<?xml version="1.0" encoding="utf-8"?>
<!-- Generator: Adobe Illustrator 16.0.0, SVG Export Plug-In . SVG Version: 6.00 Build 0)  -->
<!DOCTYPE svg PUBLIC "-//W3C//DTD SVG 1.1//EN" "http://www.w3.org/Graphics/SVG/1.1/DTD/svg11.dtd">
<svg version="1.1" id="Layer_1" xmlns="http://www.w3.org/2000/svg" xmlns:xlink="http://www.w3.org/1999/xlink" x="0px" y="0px"
	 width="85px" height="43px" viewBox="0 0 85 43" enable-background="new 0 0 85 43" xml:space="preserve">
<g>
	<path fill="#FFFFFF" d="M7.013,0h70.974C81.844,0,85,3.161,85,7.022v28.954C85,39.84,81.846,43,77.986,43H7.013
		C3.153,43,0,39.84,0,35.977V7.022C0,3.161,3.152,0,7.013,0z"/>
	<g>
		<g>
			<path fill="#204299" d="M23.335,11.611h4.192l7.336,19.723h-4.759l-1.558-4.418h-6.26l-1.53,4.418H16L23.335,11.611z
				 M27.783,23.777l-2.351-6.971l-2.407,6.971H27.783z"/>
			<path fill="#204299" d="M34.546,21.305c0-1.185,0.226-2.365,0.679-3.542c0.454-1.175,1.114-2.227,1.983-3.152
				c0.869-0.925,1.926-1.676,3.173-2.25c1.246-0.573,2.664-0.861,4.25-0.861c1.889,0,3.527,0.399,4.914,1.195
				c1.389,0.796,2.422,1.833,3.104,3.111L49.08,18.25c-0.229-0.518-0.516-0.949-0.867-1.292c-0.35-0.343-0.729-0.621-1.145-0.833
				c-0.416-0.213-0.842-0.361-1.275-0.445c-0.434-0.083-0.857-0.125-1.273-0.125c-0.889,0-1.663,0.176-2.323,0.528
				c-0.661,0.352-1.209,0.805-1.643,1.361c-0.436,0.555-0.757,1.185-0.964,1.888c-0.208,0.704-0.312,1.417-0.312,2.139
				c0,0.779,0.123,1.529,0.369,2.25c0.244,0.723,0.6,1.363,1.063,1.918c0.462,0.555,1.021,0.994,1.671,1.318
				c0.652,0.322,1.384,0.484,2.197,0.484c0.414,0,0.844-0.051,1.287-0.15c0.443-0.104,0.869-0.262,1.275-0.475
				c0.404-0.211,0.779-0.488,1.117-0.832c0.342-0.342,0.613-0.764,0.822-1.264l3.795,2.193c-0.303,0.723-0.752,1.371-1.346,1.945
				c-0.596,0.572-1.279,1.055-2.055,1.443c-0.773,0.389-1.596,0.684-2.463,0.889c-0.869,0.207-1.721,0.309-2.551,0.309
				c-1.455,0-2.791-0.291-4.008-0.875c-1.219-0.584-2.266-1.357-3.145-2.32s-1.559-2.055-2.04-3.277
				C34.788,23.807,34.546,22.564,34.546,21.305z"/>
			<path fill="#204299" d="M69,26.277c0,0.854-0.18,1.594-0.539,2.223c-0.357,0.629-0.85,1.152-1.473,1.568s-1.35,0.732-2.182,0.945
				c-0.83,0.213-1.709,0.318-2.637,0.318h-8.588V11.611h9.979c0.699,0,1.332,0.149,1.898,0.445c0.564,0.296,1.047,0.681,1.443,1.153
				s0.705,1.009,0.922,1.61c0.217,0.602,0.326,1.219,0.326,1.847c0,0.944-0.242,1.833-0.725,2.667
				c-0.48,0.833-1.203,1.463-2.168,1.89c1.152,0.332,2.064,0.925,2.734,1.777C68.664,23.852,69,24.943,69,26.277z M57.824,15.5
				v4.083h3.754c0.51,0,0.963-0.167,1.359-0.5s0.596-0.851,0.596-1.555c0-0.648-0.176-1.148-0.523-1.5
				c-0.35-0.352-0.771-0.528-1.262-0.528H57.824z M64.27,25.361c0-0.611-0.18-1.131-0.539-1.557
				c-0.357-0.426-0.813-0.639-1.359-0.639h-4.545v4.305h4.348c0.604,0,1.105-0.193,1.502-0.582S64.27,25.99,64.27,25.361z"/>
		</g>
		<ellipse fill="#29ABE2" cx="45.242" cy="21.588" rx="3.396" ry="3.332"/>
	</g>
</g>
</svg>
