<?xml version="1.0" encoding="utf-8"?>
<!-- Generator: Adobe Illustrator 16.0.0, SVG Export Plug-In . SVG Version: 6.00 Build 0)  -->
<!DOCTYPE svg PUBLIC "-//W3C//DTD SVG 1.0//EN" "http://www.w3.org/TR/2001/REC-SVG-20010904/DTD/svg10.dtd">
<svg version="1.0" id="Layer_1" xmlns="http://www.w3.org/2000/svg" xmlns:xlink="http://www.w3.org/1999/xlink" x="0px" y="0px"
	 width="100px" height="50px" viewBox="0 0 100 50" enable-background="new 0 0 100 50" xml:space="preserve">
<g>
	<g>
		<path fill="#204299" d="M21.074,10.167h6.328L38.476,39.75h-7.184l-2.351-6.626h-9.45l-2.309,6.626H10L21.074,10.167z
			 M27.786,28.417l-3.548-10.458l-3.634,10.458H27.786z"/>
		<path fill="#204299" d="M37.996,24.708c0-1.777,0.341-3.548,1.025-5.313c0.685-1.763,1.682-3.34,2.993-4.729
			c1.311-1.388,2.908-2.514,4.789-3.375c1.881-0.86,4.02-1.292,6.414-1.292c2.85,0,5.323,0.598,7.418,1.792
			c2.095,1.194,3.654,2.75,4.682,4.667l-5.386,3.667c-0.343-0.777-0.777-1.423-1.306-1.937c-0.527-0.514-1.104-0.931-1.73-1.25
			c-0.629-0.319-1.27-0.542-1.925-0.667c-0.656-0.125-1.297-0.188-1.924-0.188c-1.341,0-2.509,0.264-3.506,0.792
			c-0.998,0.528-1.824,1.208-2.48,2.042c-0.656,0.833-1.141,1.777-1.454,2.833c-0.314,1.056-0.47,2.125-0.47,3.208
			c0,1.167,0.185,2.292,0.556,3.374c0.37,1.085,0.905,2.044,1.604,2.876c0.698,0.834,1.54,1.493,2.522,1.979
			c0.983,0.486,2.088,0.729,3.315,0.729c0.624,0,1.273-0.076,1.944-0.229c0.669-0.153,1.312-0.389,1.923-0.708
			c0.613-0.319,1.177-0.735,1.69-1.249c0.512-0.514,0.924-1.147,1.24-1.897l5.729,3.291c-0.458,1.083-1.136,2.057-2.032,2.918
			c-0.898,0.86-1.932,1.583-3.102,2.166c-1.168,0.583-2.407,1.027-3.718,1.333C55.497,39.847,54.214,40,52.961,40
			c-2.196,0-4.212-0.438-6.051-1.313c-1.838-0.875-3.42-2.034-4.745-3.479c-1.326-1.444-2.352-3.083-3.079-4.917
			C38.359,28.459,37.996,26.598,37.996,24.708z"/>
		<path fill="#204299" d="M90,32.167c0,1.278-0.272,2.39-0.813,3.332c-0.541,0.945-1.282,1.73-2.224,2.354
			c-0.94,0.626-2.037,1.099-3.292,1.418c-1.254,0.319-2.58,0.479-3.977,0.479H66.728V10.167h15.062c1.056,0,2.012,0.223,2.866,0.667
			c0.854,0.445,1.582,1.021,2.181,1.729c0.598,0.708,1.063,1.514,1.391,2.416c0.326,0.903,0.491,1.828,0.491,2.771
			c0,1.416-0.365,2.75-1.091,4C86.9,23,85.81,23.945,84.355,24.583c1.739,0.5,3.114,1.389,4.127,2.667
			C89.492,28.528,90,30.166,90,32.167z M73.133,16v6.125h5.665c0.77,0,1.454-0.25,2.052-0.75c0.6-0.5,0.898-1.277,0.898-2.333
			c0-0.973-0.264-1.722-0.79-2.25C80.431,16.264,79.795,16,79.054,16H73.133z M82.859,30.792c0-0.917-0.271-1.694-0.813-2.333
			c-0.54-0.639-1.227-0.959-2.053-0.959h-6.861v6.458h6.563c0.912,0,1.668-0.292,2.267-0.875S82.859,31.736,82.859,30.792z"/>
	</g>
	<ellipse fill="#29ABE2" cx="54.139" cy="25.133" rx="5.128" ry="4.998"/>
</g>
<g>
</g>
<g>
</g>
<g>
</g>
<g>
</g>
<g>
</g>
<g>
</g>
<g>
</g>
<g>
</g>
<g>
</g>
<g>
</g>
<g>
</g>
<g>
</g>
<g>
</g>
<g>
</g>
<g>
</g>
</svg>
