<?xml version="1.0" encoding="utf-8"?>
<!-- Generator: Adobe Illustrator 16.0.0, SVG Export Plug-In . SVG Version: 6.00 Build 0)  -->
<!DOCTYPE svg PUBLIC "-//W3C//DTD SVG 1.1//EN" "http://www.w3.org/Graphics/SVG/1.1/DTD/svg11.dtd">
<svg version="1.1" id="Layer_1" xmlns="http://www.w3.org/2000/svg" xmlns:xlink="http://www.w3.org/1999/xlink" x="0px" y="0px"
	 width="360.605px" height="85.039px" viewBox="0 0 360.605 85.039" enable-background="new 0 0 360.605 85.039"
	 xml:space="preserve">
<g>
	<path fill="#FFFFFF" d="M143.818,17.008c-5.074,0-10.371,4-13.493,6.841c-0.332-4.498-1.708-6.841-7.484-6.841
		c-5.325,0-10.888,4.398-13.936,7.243v-5.129H94.551v48.91h14.354V28.115c2.697-1.521,6.801-4.357,7.179,0.249v39.667h14.35V28.718
		c0-0.318,0-0.612-0.005-0.907c2.662-1.555,6.276-3.754,6.63,0.553v39.667h14.356V28.718
		C151.416,21.057,151.416,17.008,143.818,17.008"/>
	<rect x="158.958" y="37.465" fill="#FFFFFF" width="11.185" height="30.566"/>
	<polygon fill="#FFFFFF" points="204.722,56.46 191.649,37.465 188.85,37.465 180.078,37.465 177.671,37.465 177.671,68.031 
		188.85,68.031 188.85,50.454 200.702,68.031 204.722,68.031 212.688,68.031 215.907,68.031 215.907,37.465 204.722,37.465 	"/>
	<polygon fill="#FFFFFF" points="242.979,48.396 234.773,48.396 234.773,37.465 223.59,37.465 223.59,68.031 234.773,68.031 
		234.773,52.729 242.979,52.729 242.979,68.031 254.163,68.031 254.163,37.253 242.979,37.253 	"/>
	<rect x="340.446" y="37.465" fill="#FFFFFF" width="11.184" height="30.566"/>
	<polygon fill="#FFFFFF" points="296.306,25.262 296.306,21.476 285.131,21.476 285.131,25.262 181.232,25.262 181.232,29.586 
		285.131,29.586 285.131,68.031 296.306,68.031 296.306,29.586 338.151,29.586 341.274,25.262 	"/>
	<path fill="#FFFFFF" d="M319.125,50.676L319.125,50.676c-2.093,0-3.809,0-4.974,0v-9.895c1.313,0,2.953,0,4.791,0
		C327.419,40.781,327.146,50.676,319.125,50.676 M335.5,44.889c0-4.84-3.932-7.56-9.566-7.56c-2.156,0-7.501,0-11.791,0
		c-2.312,0-4.315,0-5.345,0h-5.816c0,0.032-0.008,0.062-0.008,0.085v30.618h11.177V54.56c1.286,0,2.944,0,3.592,0
		c4.409,0,4.969,1.976,5.798,4.017c0.587,1.451,0.671,5.278,0.926,9.311c3.557,0.145,5.697-0.061,10.934,0.145
		c-0.176-4.741-0.251-8.845-1.458-11.638c-1.48-3.402-7.218-3.679-8.857-3.683C332.053,52.567,335.5,49.017,335.5,44.889z"/>
	<path fill="#FFFFFF" d="M164.554,22.635c-3.553,0-6.431,2.871-6.431,6.427c0,3.55,2.878,6.422,6.431,6.422
		c3.543,0,6.427-2.874,6.427-6.422C170.98,25.504,168.097,22.635,164.554,22.635"/>
	<polygon fill="#FFFFFF" points="360.605,25.529 349.285,25.529 342.659,33.638 349.285,33.638 	"/>
</g>
<path fill="#FFFFFF" d="M42.519,0C19.035,0,0,19.034,0,42.522c0,23.479,19.035,42.517,42.519,42.517
	c23.485,0,42.521-19.038,42.521-42.517C85.04,19.034,66.004,0,42.519,0z M34.985,10.518l5.958,4.315l1.575-9.881l1.58,9.884
	l5.952-4.318l-4.315,5.955l9.88,1.578l-9.88,1.578l4.315,5.95l-5.954-4.313l-1.578,9.882l-1.575-9.883l-5.958,4.313l4.321-5.95
	l-9.883-1.578l9.878-1.578L34.985,10.518z M53.08,76.975c14.508-6.951,13.525-20.287,13.394-28.82
	c-10.601,2.451-18.256,15.107-21.703,22.811c-1.267,2.827-1.821,6.633-1.99,7.814c-0.214,1.445-0.308,1.445-0.517,0
	c-0.172-1.182-0.764-4.863-1.991-7.814c-3.255-7.789-11.104-20.359-21.704-22.811c-0.131,8.533-1.115,21.869,13.395,28.82
	C20.319,73.292,2.346,62.031,7.228,34.912c0,0,22.196,2.735,28.347,14.929c2.348,4.017,3.92,9.083,4.964,13.774
	c-0.558-5.215-1.117-9.87-1.776-12.008c-3.213-10.427-8.13-13.956-14.021-16.382c-9.49-3.913-14.39-3.842-16.279-14.35
	C12.9,25.81,18.53,26.3,27.652,27.86c7.153,1.229,12.777,3.522,14.866,12.741c2.095-9.219,7.712-11.513,14.869-12.741
	c9.121-1.561,14.75-2.051,19.188-6.984c-1.889,10.508-6.783,10.437-16.275,14.35c-5.893,2.427-10.814,5.955-14.023,16.383
	c-0.656,2.137-1.217,6.787-1.773,12.008c1.047-4.692,2.613-9.76,4.961-13.775c6.15-12.193,28.348-14.929,28.348-14.929
	C82.695,62.031,64.72,73.292,53.08,76.975z"/>
</svg>
