<?xml version="1.0" encoding="utf-8"?>
<!-- Generator: Adobe Illustrator 16.0.0, SVG Export Plug-In . SVG Version: 6.00 Build 0)  -->
<!DOCTYPE svg PUBLIC "-//W3C//DTD SVG 1.1//EN" "http://www.w3.org/Graphics/SVG/1.1/DTD/svg11.dtd">
<svg version="1.1" id="Layer_1" xmlns="http://www.w3.org/2000/svg" xmlns:xlink="http://www.w3.org/1999/xlink" x="0px" y="0px"
	 width="304.49px" height="85.04px" viewBox="0 0 304.49 85.04" enable-background="new 0 0 304.49 85.04" xml:space="preserve">
<rect x="94.547" y="58.666" fill="#00853E" width="202.877" height="12.756"/>
<path fill="#FFFFFF" d="M106.646,67.984L106.646,67.984c0.473,0,0.87-0.041,1.194-0.113c0.313-0.076,0.584-0.217,0.793-0.414
	c0.212-0.197,0.353-0.457,0.422-0.787c0.069-0.322,0.104-0.678,0.104-1.07V63.98c0-0.328-0.068-0.633-0.19-0.9
	c-0.128-0.275-0.366-0.508-0.705-0.695c-0.159-0.086-0.35-0.154-0.564-0.207c-0.214-0.049-0.458-0.072-0.732-0.072h-4.154v5.879
	H106.646z M107.051,68.711h-5.422v-7.334h5.129c0.802,0,1.442,0.09,1.92,0.271c0.481,0.182,0.862,0.447,1.148,0.795
	c0.334,0.441,0.505,1.041,0.505,1.799v1.561c0,1.342-0.531,2.213-1.589,2.619C108.319,68.613,107.752,68.711,107.051,68.711z"/>
<polygon fill="#FFFFFF" points="114.923,68.711 114.923,61.377 121.655,61.377 121.655,62.105 116.096,62.105 116.096,64.604 
	121.423,64.604 121.423,65.287 116.096,65.287 116.096,67.984 121.655,67.984 121.655,68.711 "/>
<path fill="#FFFFFF" d="M129.909,61.32c0.735,0,1.35,0.023,1.851,0.086c0.501,0.059,0.886,0.162,1.155,0.309
	c0.493,0.293,0.741,0.779,0.741,1.465v0.201h-1.179l-0.018-0.342l-0.063-0.316c-0.029-0.15-0.108-0.271-0.238-0.367
	c-0.085-0.078-0.241-0.148-0.459-0.207l-0.348-0.057c-0.119-0.021-0.242-0.033-0.365-0.033l-1.079-0.023h-0.292
	c-1.034,0-1.719,0.104-2.052,0.297c-0.128,0.072-0.223,0.188-0.278,0.357l-0.051,0.264l-0.021,0.334c0,0.598,0.2,0.969,0.601,1.117
	c0.077,0.033,0.181,0.064,0.302,0.088c0.123,0.029,0.251,0.049,0.394,0.074l0.416,0.021l0.436,0.016h0.943
	c0.398,0,0.782,0.012,1.152,0.043l0.709,0.072c0.319,0.027,0.616,0.111,0.885,0.24c0.329,0.162,0.543,0.381,0.652,0.668
	c0.037,0.127,0.084,0.291,0.13,0.49l0.033,0.246v0.264c0,0.41-0.077,0.771-0.225,1.086c-0.154,0.318-0.375,0.557-0.681,0.709
	c-0.318,0.145-0.772,0.236-1.36,0.279c-0.591,0.049-1.226,0.074-1.902,0.074h-0.432c-0.094,0-0.241-0.006-0.449-0.018
	c-0.207-0.006-0.313-0.006-0.323-0.006c-0.104,0-0.208-0.002-0.322-0.018c-0.119-0.008-0.238-0.023-0.364-0.045
	c-0.408-0.057-0.769-0.172-1.083-0.346c-0.273-0.139-0.465-0.338-0.58-0.586l-0.062-0.145l-0.072-0.277l-0.034-0.229v-0.248
	l0.013-0.436h1.199c0,0.059-0.008,0.113-0.028,0.166v0.188l0.028,0.189v0.191l0.077,0.277c0.042,0.152,0.143,0.273,0.311,0.379
	c0.11,0.061,0.232,0.115,0.392,0.162c0.15,0.035,0.324,0.051,0.52,0.051h0.54l0.605,0.018h0.456c0.057,0,0.108,0,0.152,0
	c0.047,0,0.115,0.008,0.196,0.02l0.587-0.02c0.083,0,0.155-0.006,0.227-0.008c0.064-0.01,0.154-0.025,0.26-0.045
	c0.294-0.049,0.512-0.111,0.675-0.193c0.19-0.082,0.317-0.219,0.388-0.404c0.069-0.193,0.103-0.428,0.103-0.717v-0.117
	c0-0.447-0.122-0.758-0.359-0.932c-0.139-0.105-0.335-0.17-0.595-0.197l-0.528-0.063l-0.366-0.023h-0.35l-0.992-0.025h-0.375
	l-0.25-0.016l-0.406-0.031l-0.335-0.02l-0.242-0.035l-0.376-0.072c-0.156-0.025-0.299-0.063-0.417-0.102l-0.173-0.061
	c-0.063-0.025-0.115-0.049-0.163-0.08c-0.259-0.145-0.445-0.326-0.551-0.559l-0.072-0.156l-0.064-0.242l-0.039-0.227l-0.009-0.246
	c0-0.84,0.253-1.416,0.771-1.719c0.311-0.182,0.716-0.297,1.224-0.355C128.512,61.344,129.142,61.32,129.909,61.32"/>
<rect x="138.682" y="61.377" fill="#FFFFFF" width="1.173" height="7.334"/>
<path fill="#FFFFFF" d="M153.456,66.67c0,0.82-0.271,1.383-0.811,1.684c-0.229,0.119-0.505,0.223-0.84,0.293l-0.509,0.084
	c-0.164,0.02-0.324,0.027-0.493,0.027h-0.749l-0.773,0.018h-0.838c-0.386,0-0.759-0.018-1.111-0.045
	c-0.186-0.016-0.35-0.041-0.499-0.059c-0.145-0.025-0.294-0.055-0.445-0.096c-0.26-0.074-0.507-0.178-0.725-0.328
	c-0.271-0.188-0.485-0.443-0.645-0.777l-0.09-0.236l-0.068-0.297l-0.04-0.328v-0.381v-2.406c0-0.879,0.274-1.523,0.823-1.947
	c0.244-0.186,0.561-0.318,0.94-0.416c0.383-0.098,0.814-0.139,1.296-0.139h2.827c0.848,0,1.512,0.135,1.994,0.414
	c0.483,0.285,0.724,0.688,0.724,1.229v0.555h-1.17v-0.314c0-0.43-0.097-0.713-0.291-0.848c-0.142-0.105-0.35-0.184-0.619-0.232
	c-0.271-0.041-0.557-0.064-0.862-0.064l-1.036-0.023l-1.304,0.023c-0.331,0-0.628,0.016-0.888,0.055
	c-0.26,0.041-0.485,0.113-0.681,0.219c-0.194,0.107-0.341,0.273-0.436,0.512c-0.016,0.047-0.038,0.119-0.056,0.215
	c-0.019,0.092-0.034,0.156-0.035,0.188c-0.027,0.182-0.038,0.361-0.038,0.557v2.656c0,0.617,0.208,1.041,0.633,1.266
	c0.216,0.107,0.481,0.191,0.801,0.252l0.652,0.068l0.483,0.02l0.274-0.02h0.366h0.35c0.099,0,0.188,0.008,0.26,0.02h0.086h0.077
	c0.204,0,0.359-0.004,0.471-0.02l0.262-0.014l0.366-0.047c0.299-0.041,0.55-0.109,0.762-0.215c0.288-0.148,0.429-0.508,0.429-1.064
	v-0.922h-3.353v-0.738h4.527V66.67z"/>
<polygon fill="#FFFFFF" points="158.203,61.377 160.178,61.377 166.04,68.084 166.069,68.084 166.069,61.377 167.275,61.377 
	167.275,68.711 165.333,68.711 159.438,62.061 159.413,62.059 159.413,68.711 158.203,68.711 "/>
<path fill="#FFFFFF" d="M183.533,64.945L183.533,64.945c-0.694,0.111-1.139,0.23-1.339,0.363c-0.149,0.092-0.249,0.225-0.289,0.389
	l-0.059,0.307l-0.019,0.461c0,0.379,0.023,0.658,0.077,0.836c0.046,0.184,0.124,0.314,0.234,0.398
	c0.101,0.082,0.274,0.156,0.515,0.227c0.101,0.027,0.293,0.059,0.578,0.09c0.123,0.016,0.268,0.023,0.439,0.033
	c0.169,0.012,0.336,0.016,0.502,0.016h0.45l0.371-0.025c0.818,0,1.364-0.027,1.637-0.096c0.546-0.111,0.876-0.322,0.991-0.633
	L183.533,64.945z M188.034,63.623h-1.2v-0.051c0-0.137-0.012-0.232-0.035-0.289c0-0.445-0.053-0.75-0.164-0.908
	c-0.083-0.125-0.254-0.213-0.51-0.254c-0.137-0.029-0.297-0.051-0.479-0.063l-0.674-0.023c-0.639,0-1.105,0.061-1.399,0.162
	c-0.385,0.141-0.571,0.422-0.571,0.842c0,0.219,0.042,0.396,0.121,0.533c0.078,0.139,0.271,0.289,0.566,0.457l4.142,2.443
	l0.005-0.27l0.028-0.297v-0.09V65.74l-0.028-0.082v-0.174h1.092l0.014,0.293v0.328c0,0.068-0.003,0.17-0.008,0.311
	c-0.006,0.141-0.006,0.211-0.006,0.217c0,0.066-0.01,0.145-0.021,0.217c-0.021,0.072-0.037,0.154-0.07,0.236l1.895,1.043
	l-0.629,0.582l-1.555-0.906c-0.246,0.416-0.741,0.686-1.48,0.826c-0.211,0.041-0.438,0.074-0.69,0.1L186,68.752h-0.367l-0.916,0.023
	h-0.662c-0.936,0-1.639-0.074-2.111-0.225c-0.867-0.273-1.301-0.977-1.301-2.105c0-0.709,0.164-1.197,0.488-1.461
	c0.145-0.119,0.326-0.203,0.536-0.264l0.456-0.094l0.672-0.141c-0.234-0.125-0.425-0.244-0.565-0.371
	c-0.142-0.125-0.246-0.275-0.312-0.447c-0.064-0.193-0.09-0.398-0.09-0.609c0-0.76,0.322-1.242,0.967-1.455
	c0.459-0.191,1.197-0.283,2.206-0.283c1.272,0,2.125,0.172,2.541,0.533c0.327,0.314,0.492,0.748,0.492,1.297V63.623z"/>
<path fill="#FFFFFF" d="M204.289,65.121L204.289,65.121h3.355c0.455,0,0.818-0.021,1.086-0.059c0.262-0.039,0.461-0.107,0.598-0.215
	c0.18-0.135,0.293-0.299,0.35-0.502c0.057-0.193,0.086-0.41,0.086-0.643c0-0.305-0.018-0.553-0.051-0.725
	c-0.035-0.18-0.096-0.334-0.189-0.453c-0.223-0.281-0.729-0.42-1.504-0.42h-3.73V65.121z M204.289,65.865v2.846h-1.172v-7.334h5.303
	c1.023,0,1.713,0.23,2.078,0.682c0.293,0.359,0.438,0.885,0.438,1.564c0,0.781-0.207,1.34-0.627,1.686
	c-0.408,0.371-1.086,0.557-2.035,0.557H204.289z"/>
<path fill="#FFFFFF" d="M220.869,62.105L220.869,62.105h-3.854v2.939h3.709l0.525-0.014c0.076-0.008,0.148-0.014,0.213-0.021
	c0.066-0.008,0.141-0.018,0.207-0.031c0.25-0.049,0.465-0.139,0.664-0.279c0.262-0.197,0.391-0.547,0.391-1.053v-0.242
	c0-0.48-0.096-0.799-0.277-0.959C222.16,62.215,221.631,62.105,220.869,62.105 M220.842,61.377c1.16,0,1.979,0.18,2.457,0.537
	c0.408,0.301,0.613,0.85,0.613,1.637c0,0.656-0.139,1.113-0.406,1.375c-0.277,0.26-0.744,0.426-1.41,0.5v0.023
	c0.162,0,0.309,0.01,0.443,0.045c0.133,0.035,0.281,0.088,0.428,0.16c0.262,0.117,0.457,0.268,0.607,0.463
	c0.145,0.191,0.213,0.404,0.213,0.623v1.971h-1.197v-1.604c0-0.48-0.135-0.824-0.4-1.018c-0.238-0.205-0.717-0.307-1.43-0.307
	h-3.773v2.928h-1.168v-7.334H220.842z"/>
<rect x="229.012" y="61.377" fill="#FFFFFF" width="1.178" height="7.334"/>
<polygon fill="#FFFFFF" points="235.477,61.377 237.447,61.377 243.314,68.084 243.338,68.084 243.338,61.377 244.545,61.377 
	244.545,68.711 242.605,68.711 236.709,62.061 236.682,62.059 236.682,68.711 235.477,68.711 "/>
<polygon fill="#FFFFFF" points="252.283,68.711 252.283,62.105 248.898,62.105 248.898,61.377 256.863,61.377 256.863,62.105 
	253.482,62.105 253.482,68.711 "/>
<rect x="261.281" y="61.377" fill="#FFFFFF" width="1.17" height="7.334"/>
<polygon fill="#FFFFFF" points="267.74,61.377 269.715,61.377 275.576,68.084 275.604,68.084 275.604,61.377 276.814,61.377 
	276.814,68.711 274.869,68.711 268.977,62.061 268.951,62.059 268.951,68.711 267.74,68.711 "/>
<path fill="#FFFFFF" d="M290.344,66.67c0,0.82-0.27,1.383-0.813,1.684c-0.227,0.119-0.502,0.223-0.836,0.293l-0.508,0.084
	c-0.164,0.02-0.328,0.027-0.498,0.027h-0.748l-0.771,0.018h-0.834c-0.393,0-0.762-0.018-1.119-0.045
	c-0.182-0.016-0.348-0.041-0.492-0.059c-0.145-0.025-0.295-0.055-0.447-0.096c-0.26-0.074-0.506-0.178-0.729-0.328
	c-0.266-0.188-0.482-0.443-0.639-0.777l-0.09-0.236l-0.07-0.297l-0.039-0.328v-0.381v-2.406c0-0.879,0.277-1.523,0.82-1.947
	c0.246-0.186,0.563-0.318,0.943-0.416c0.383-0.098,0.811-0.139,1.295-0.139h2.83c0.848,0,1.506,0.135,1.99,0.414
	c0.484,0.285,0.727,0.688,0.727,1.229v0.555h-1.174v-0.314c0-0.43-0.094-0.713-0.289-0.848c-0.141-0.105-0.352-0.184-0.621-0.232
	c-0.27-0.041-0.555-0.064-0.861-0.064l-1.035-0.023l-1.305,0.023c-0.328,0-0.627,0.016-0.889,0.055
	c-0.256,0.041-0.482,0.113-0.68,0.219c-0.195,0.107-0.34,0.273-0.436,0.512c-0.016,0.047-0.039,0.119-0.055,0.215
	c-0.025,0.092-0.037,0.156-0.037,0.188c-0.027,0.182-0.039,0.361-0.039,0.557v2.656c0,0.617,0.211,1.041,0.633,1.266
	c0.217,0.107,0.482,0.191,0.803,0.252l0.652,0.068l0.482,0.02l0.271-0.02h0.371h0.35c0.096,0,0.182,0.008,0.26,0.02h0.084h0.08
	c0.203,0,0.357-0.004,0.471-0.02l0.258-0.014l0.371-0.047c0.295-0.041,0.545-0.109,0.76-0.215c0.287-0.148,0.428-0.508,0.428-1.064
	v-0.922h-3.354v-0.738h4.527V66.67z"/>
<path fill="#E30613" d="M133.426,13.618c-4.004,0-8.184,3.156-10.648,5.399c-0.262-3.549-1.348-5.399-5.906-5.399
	c-4.202,0-8.592,3.472-10.996,5.716v-4.048H94.55v38.593h11.327V22.382c2.127-1.2,5.366-3.438,5.665,0.197v31.299h11.323v-31.02
	c0-0.25,0-0.482-0.004-0.715c2.1-1.227,4.952-2.963,5.232,0.436v31.299h11.329v-31.02C139.421,16.814,139.421,13.618,133.426,13.618
	"/>
<rect x="145.374" y="29.759" fill="#E30613" width="8.826" height="24.12"/>
<polygon fill="#E30613" points="181.486,44.75 171.17,29.759 168.96,29.759 162.038,29.759 160.138,29.759 160.138,53.879 
	168.96,53.879 168.96,40.009 178.312,53.879 181.486,53.879 187.77,53.879 190.311,53.879 190.311,29.759 181.486,29.759 "/>
<polygon fill="#E30613" points="211.674,38.386 205.197,38.386 205.197,29.759 196.373,29.759 196.373,53.879 205.197,53.879 
	205.197,41.805 211.674,41.805 211.674,53.879 220.498,53.879 220.498,29.593 211.674,29.593 "/>
<rect x="288.584" y="29.759" fill="#E30613" width="8.824" height="24.12"/>
<polygon fill="#E30613" points="253.752,20.131 253.752,17.144 244.934,17.144 244.934,20.131 162.949,20.131 162.949,23.544 
	244.934,23.544 244.934,53.879 253.752,53.879 253.752,23.544 286.773,23.544 289.238,20.131 "/>
<path fill="#E30613" d="M271.76,40.185L271.76,40.185c-1.652,0-3.006,0-3.926,0v-7.809c1.037,0,2.33,0,3.781,0
	C278.303,32.376,278.088,40.185,271.76,40.185 M284.68,35.618c0-3.819-3.102-5.964-7.549-5.964c-1.701,0-5.918,0-9.303,0
	c-1.824,0-3.406,0-4.217,0h-4.59c0,0.025-0.008,0.049-0.008,0.066v24.159h8.82V43.25c1.014,0,2.324,0,2.834,0
	c3.48,0,3.922,1.559,4.576,3.17c0.463,1.145,0.529,4.164,0.73,7.346c2.807,0.113,4.496-0.047,8.627,0.113
	c-0.139-3.742-0.197-6.979-1.15-9.18c-1.168-2.686-5.695-2.905-6.988-2.909C281.961,41.677,284.68,38.876,284.68,35.618z"/>
<path fill="#E30613" d="M149.789,18.058c-2.803,0-5.075,2.266-5.075,5.072c0,2.801,2.271,5.067,5.075,5.067
	c2.795,0,5.071-2.267,5.071-5.067C154.86,20.324,152.584,18.058,149.789,18.058"/>
<polygon fill="#E30613" points="304.49,20.341 295.557,20.341 290.328,26.741 295.557,26.741 "/>
<path fill="#00853E" d="M85.04,42.523c0,23.479-19.036,42.516-42.521,42.516C19.035,85.039,0,66.002,0,42.523
	C0,19.034,19.035,0,42.518,0C66.003,0,85.04,19.034,85.04,42.523"/>
<path fill="#FFFFFF" d="M77.813,34.912c0,0-22.198,2.736-28.349,14.93c-2.347,4.014-3.914,9.082-4.961,13.773
	c0.558-5.219,1.118-9.871,1.774-12.006c3.209-10.428,8.13-13.958,14.023-16.384c9.493-3.913,14.388-3.841,16.275-14.349
	C72.137,25.81,66.508,26.3,57.387,27.86c-7.158,1.229-12.775,3.522-14.869,12.741c-2.089-9.219-7.713-11.513-14.866-12.741
	C18.53,26.3,12.9,25.81,8.461,20.876c1.889,10.508,6.788,10.436,16.279,14.349c5.892,2.427,10.809,5.956,14.022,16.384
	c0.659,2.135,1.219,6.793,1.776,12.006c-1.044-4.691-2.616-9.76-4.963-13.773c-6.151-12.194-28.347-14.93-28.347-14.93
	C2.346,62.033,20.319,73.291,31.962,76.973c-14.509-6.951-13.526-20.285-13.395-28.818c10.6,2.451,18.449,15.021,21.704,22.811
	c1.228,2.951,1.819,6.633,1.991,7.814c0.209,1.445,0.303,1.445,0.517,0c0.169-1.182,0.724-4.988,1.99-7.814
	c3.447-7.703,11.103-20.359,21.703-22.811c0.132,8.533,1.115,21.867-13.394,28.818C64.719,73.291,82.695,62.033,77.813,34.912"/>
<polygon fill="#FFFFFF" points="45.735,19.628 55.615,18.05 45.735,16.472 50.05,10.517 44.098,14.835 42.518,4.953 40.943,14.833 
	34.985,10.517 39.301,16.472 29.423,18.05 39.307,19.628 34.985,25.58 40.943,21.265 42.518,31.148 44.096,21.267 50.05,25.58 "/>
</svg>
