<?xml version="1.0" encoding="utf-8"?>
<!-- Generator: Adobe Illustrator 16.0.0, SVG Export Plug-In . SVG Version: 6.00 Build 0)  -->
<!DOCTYPE svg PUBLIC "-//W3C//DTD SVG 1.1//EN" "http://www.w3.org/Graphics/SVG/1.1/DTD/svg11.dtd">
<svg version="1.1" id="Layer_1" xmlns="http://www.w3.org/2000/svg" xmlns:xlink="http://www.w3.org/1999/xlink" x="0px" y="0px"
	 width="266.055px" height="51.025px" viewBox="94.551 17.008 266.055 51.025"
	 enable-background="new 94.551 17.008 266.055 51.025" xml:space="preserve">
<g>
	<path fill="#FFFFFF" d="M143.818,17.008c-5.074,0-10.371,4-13.493,6.841c-0.332-4.498-1.708-6.841-7.484-6.841
		c-5.325,0-10.888,4.398-13.936,7.243v-5.129H94.551v48.91h14.354V28.115c2.697-1.521,6.801-4.357,7.179,0.249v39.667h14.35V28.718
		c0-0.318,0-0.612-0.005-0.907c2.662-1.555,6.276-3.754,6.63,0.553v39.667h14.356V28.718
		C151.416,21.057,151.416,17.008,143.818,17.008"/>
	<rect x="158.958" y="37.465" fill="#FFFFFF" width="11.185" height="30.566"/>
	<polygon fill="#FFFFFF" points="204.723,56.46 191.648,37.465 188.85,37.465 180.078,37.465 177.671,37.465 177.671,68.031 
		188.85,68.031 188.85,50.454 200.702,68.031 204.723,68.031 212.688,68.031 215.907,68.031 215.907,37.465 204.723,37.465 	"/>
	<polygon fill="#FFFFFF" points="242.979,48.396 234.773,48.396 234.773,37.465 223.59,37.465 223.59,68.031 234.773,68.031 
		234.773,52.729 242.979,52.729 242.979,68.031 254.163,68.031 254.163,37.253 242.979,37.253 	"/>
	<rect x="340.446" y="37.465" fill="#FFFFFF" width="11.184" height="30.566"/>
	<polygon fill="#FFFFFF" points="296.307,25.262 296.307,21.476 285.131,21.476 285.131,25.262 181.232,25.262 181.232,29.586 
		285.131,29.586 285.131,68.031 296.307,68.031 296.307,29.586 338.151,29.586 341.274,25.262 	"/>
	<path fill="#FFFFFF" d="M319.125,50.676L319.125,50.676c-2.093,0-3.809,0-4.974,0v-9.895c1.313,0,2.952,0,4.791,0
		C327.419,40.781,327.146,50.676,319.125,50.676 M335.5,44.889c0-4.84-3.932-7.56-9.566-7.56c-2.155,0-7.501,0-11.791,0
		c-2.312,0-4.314,0-5.345,0h-5.815c0,0.032-0.008,0.062-0.008,0.085v30.618h11.177V54.561c1.286,0,2.943,0,3.592,0
		c4.409,0,4.969,1.976,5.798,4.017c0.587,1.45,0.671,5.278,0.926,9.312c3.558,0.145,5.697-0.062,10.935,0.145
		c-0.177-4.741-0.251-8.846-1.458-11.639c-1.48-3.401-7.219-3.679-8.857-3.683C332.053,52.566,335.5,49.018,335.5,44.889z"/>
	<path fill="#FFFFFF" d="M164.554,22.635c-3.553,0-6.431,2.871-6.431,6.427c0,3.55,2.878,6.422,6.431,6.422
		c3.543,0,6.427-2.874,6.427-6.422C170.98,25.504,168.097,22.635,164.554,22.635"/>
	<polygon fill="#FFFFFF" points="360.605,25.529 349.285,25.529 342.659,33.638 349.285,33.638 	"/>
</g>
</svg>
