<?xml version="1.0" encoding="utf-8"?>
<!-- Generator: Adobe Illustrator 16.0.0, SVG Export Plug-In . SVG Version: 6.00 Build 0)  -->
<!DOCTYPE svg PUBLIC "-//W3C//DTD SVG 1.1//EN" "http://www.w3.org/Graphics/SVG/1.1/DTD/svg11.dtd">
<svg version="1.1" id="Layer_1" xmlns="http://www.w3.org/2000/svg" xmlns:xlink="http://www.w3.org/1999/xlink" x="0px" y="0px"
	 width="85px" height="43px" viewBox="0 0 85 43" enable-background="new 0 0 85 43" xml:space="preserve">
<path fill="#FFFFFF" d="M7.013,0h70.973C81.844,0,85,3.161,85,7.022v28.955C85,39.84,81.846,43,77.986,43H7.013
	C3.153,43,0,39.84,0,35.977V7.022C0,3.161,3.152,0,7.013,0z"/>
<g>
	<path fill="#0373BC" d="M6.66,23.833c0.455,0,0.911,0.005,1.366-0.004c0.149-0.003,0.222,0.029,0.243,0.228
		c0.05,0.449,0.294,0.741,0.651,0.912c0.558,0.269,1.12,0.238,1.665-0.027c0.285-0.141,0.476-0.406,0.465-0.799
		c-0.011-0.385-0.221-0.578-0.503-0.715c-0.821-0.395-1.703-0.57-2.529-0.942c-0.522-0.235-1.038-0.491-1.455-0.939
		c-0.491-0.53-0.679-1.206-0.616-1.95c0.196-2.346,1.115-3.63,3.096-4.274c1.298-0.422,2.615-0.462,3.899,0.08
		c1.505,0.634,1.791,1.91,1.838,3.314c0.006,0.164-0.057,0.208-0.188,0.206c-0.942-0.003-1.884-0.003-2.826,0.002
		c-0.133,0-0.186-0.051-0.2-0.203c-0.041-0.454-0.302-0.674-0.66-0.771c-0.366-0.098-0.734-0.108-1.099,0.002
		c-0.281,0.084-0.509,0.242-0.553,0.613c-0.047,0.391,0.147,0.616,0.417,0.777c0.569,0.338,1.2,0.458,1.808,0.659
		c0.519,0.169,1.029,0.364,1.507,0.658c1.384,0.853,1.506,1.877,1.316,3.208c-0.218,1.526-0.949,2.654-2.184,3.318
		c-1.582,0.851-3.222,1.081-4.901,0.476c-1.427-0.515-2.246-1.872-2.217-3.504c0.004-0.26,0.077-0.336,0.295-0.327
		C5.749,23.843,6.205,23.833,6.66,23.833z"/>
	<path fill="#0373BC" d="M41.125,20.005c1.756-1.414,3.046-1.364,3.791,0.121c0.146-0.137,0.282-0.278,0.429-0.409
		c0.773-0.676,1.644-0.857,2.581-0.628c0.831,0.204,1.209,0.897,1.126,2.009c-0.086,1.152-0.34,2.271-0.499,3.41
		c-0.044,0.3-0.118,0.595-0.146,0.894c-0.02,0.234-0.117,0.271-0.29,0.268c-0.636-0.008-1.271-0.009-1.905,0
		c-0.183,0.004-0.231-0.042-0.193-0.268c0.176-1.025,0.331-2.053,0.493-3.08c0.018-0.108,0.034-0.217,0.043-0.325
		c0.051-0.587-0.028-0.808-0.321-0.909c-0.433-0.15-0.902,0.046-1.101,0.465c-0.186,0.393-0.227,0.832-0.296,1.261
		c-0.139,0.847-0.275,1.694-0.402,2.543c-0.033,0.223-0.101,0.323-0.322,0.316c-0.612-0.02-1.228-0.021-1.839,0
		c-0.25,0.009-0.273-0.095-0.232-0.334c0.16-0.954,0.315-1.909,0.464-2.865c0.037-0.239,0.06-0.483,0.067-0.723
		c0.017-0.505-0.278-0.785-0.717-0.701c-0.454,0.085-0.693,0.433-0.825,0.9c-0.197,0.695-0.255,1.426-0.384,2.138
		c-0.078,0.439-0.145,0.883-0.207,1.325c-0.026,0.19-0.098,0.261-0.271,0.258c-0.635-0.013-1.27-0.015-1.905,0
		c-0.216,0.003-0.237-0.085-0.202-0.303c0.319-1.958,0.63-3.917,0.938-5.877c0.036-0.228,0.089-0.355,0.337-0.341
		c0.527,0.029,1.059,0.024,1.586,0.002c0.264-0.012,0.344,0.081,0.272,0.371C41.16,19.662,41.151,19.808,41.125,20.005z"/>
	<path fill="#FEE006" d="M47.56,27.973c-10.616,0-21.233,0-31.85,0c-0.381,0-0.548-0.294-0.41-0.706
		c0.031-0.089,0.083-0.095,0.147-0.096c0.085-0.002,0.169-0.001,0.254-0.001c21.255,0,42.51,0,63.764,0
		c0.379,0,0.532,0.267,0.402,0.692c-0.026,0.087-0.072,0.11-0.14,0.11c-0.096,0.002-0.191,0.002-0.286,0.002
		C68.814,27.973,58.188,27.973,47.56,27.973z"/>
	<path fill="#0373BC" d="M52.755,19.771c0.479-0.385,0.908-0.685,1.448-0.754c1.43-0.182,2.44,0.841,2.457,2.5
		c0.016,1.408-0.411,2.588-1.318,3.531c-0.71,0.738-1.571,0.918-2.486,0.771c-0.508-0.081-0.898-0.402-1.133-0.973
		c-0.024,0.065-0.039,0.097-0.049,0.128c-0.176,0.691-0.175,0.691-0.82,0.691c-0.413,0-0.825-0.007-1.237,0.001
		c-0.162,0.006-0.226-0.031-0.191-0.245c0.542-3.365,1.081-6.732,1.609-10.1c0.035-0.231,0.104-0.292,0.297-0.288
		c0.635,0.013,1.271,0.012,1.904,0c0.199-0.003,0.245,0.041,0.206,0.284c-0.228,1.358-0.438,2.721-0.652,4.082
		C52.775,19.496,52.772,19.591,52.755,19.771z M54.259,22.05c-0.003-0.57-0.174-0.917-0.505-1.021
		c-0.516-0.161-1.006,0.1-1.229,0.662c-0.126,0.319-0.217,0.655-0.28,0.999c-0.097,0.52,0.033,0.993,0.339,1.188
		c0.324,0.208,0.833,0.101,1.133-0.248C54.094,23.194,54.242,22.651,54.259,22.05z"/>
	<path fill="#0373BC" d="M75.517,20.738c0.572-0.5,1.058-1.112,1.594-1.657c0.097-0.098,0.181-0.179,0.326-0.177
		c0.847,0.009,1.692,0.004,2.563,0.004c-0.042,0.152-0.151,0.21-0.232,0.289c-0.678,0.657-1.353,1.323-2.048,1.957
		c-0.232,0.211-0.241,0.372-0.115,0.658c0.518,1.167,1.008,2.351,1.521,3.521c0.122,0.28,0.076,0.344-0.188,0.339
		c-0.762-0.017-1.524-0.014-2.286-0.002c-0.189,0.003-0.275-0.064-0.344-0.271c-0.222-0.683-0.467-1.354-0.696-2.031
		c-0.06-0.178-0.106-0.23-0.259-0.087c-0.221,0.206-0.378,0.424-0.41,0.771c-0.045,0.445-0.141,0.884-0.205,1.325
		c-0.031,0.208-0.102,0.302-0.308,0.296c-0.612-0.02-1.229-0.02-1.841-0.001c-0.238,0.007-0.287-0.086-0.246-0.336
		c0.352-2.149,0.695-4.297,1.04-6.445c0.188-1.17,0.379-2.339,0.557-3.511c0.039-0.251,0.107-0.36,0.354-0.349
		c0.594,0.026,1.187,0.02,1.778,0.002c0.24-0.007,0.32,0.037,0.268,0.345c-0.274,1.621-0.53,3.245-0.791,4.869
		c-0.024,0.154-0.035,0.312-0.052,0.467c-0.011,0.016-0.021,0.031-0.029,0.048c-0.002,0.003,0.012,0.017,0.018,0.025
		C75.496,20.771,75.506,20.755,75.517,20.738z"/>
	<path fill="#0373BC" d="M61.211,24.985c-0.787,0.655-1.604,0.913-2.499,0.877c-0.425-0.019-0.812-0.142-1.17-0.396
		c-0.457-0.325-0.656-0.861-0.549-1.468c0.196-1.111,0.812-1.812,1.806-2.017c0.768-0.16,1.543-0.281,2.313-0.435
		c0.427-0.086,0.649-0.325,0.612-0.598c-0.036-0.266-0.321-0.416-0.741-0.386c-0.331,0.022-0.628,0.129-0.799,0.489
		c-0.056,0.117-0.13,0.137-0.232,0.136c-0.635-0.002-1.27-0.009-1.904,0.003c-0.209,0.003-0.225-0.093-0.176-0.285
		c0.23-0.878,0.792-1.368,1.515-1.608c1.177-0.394,2.38-0.413,3.578-0.138c0.827,0.19,1.177,0.744,1.118,1.726
		c-0.065,1.08-0.322,2.127-0.479,3.19c-0.041,0.274-0.083,0.55-0.137,0.822c-0.043,0.217,0.039,0.38,0.151,0.528
		c0.125,0.168,0.079,0.237-0.092,0.237c-0.719,0.003-1.438,0-2.158,0.003c-0.126,0-0.164-0.069-0.158-0.202
		C61.215,25.334,61.211,25.202,61.211,24.985z M61.392,22.841c-0.127,0.042-0.229,0.074-0.331,0.107
		c-0.413,0.135-0.854,0.145-1.246,0.386c-0.249,0.152-0.356,0.382-0.307,0.688c0.049,0.295,0.269,0.346,0.488,0.361
		C60.758,24.436,61.333,23.813,61.392,22.841z"/>
	<path fill="#0373BC" d="M19.542,24.979c-0.548,0.432-1.073,0.738-1.668,0.826c-0.656,0.098-1.307,0.127-1.914-0.267
		c-0.569-0.372-0.767-0.883-0.64-1.616c0.201-1.159,0.883-1.727,1.825-1.943c0.766-0.176,1.542-0.295,2.313-0.438
		c0.138-0.024,0.264-0.084,0.381-0.168c0.124-0.09,0.211-0.218,0.199-0.389c-0.013-0.187-0.123-0.301-0.273-0.366
		c-0.445-0.191-0.995-0.017-1.272,0.43c-0.067,0.108-0.129,0.137-0.229,0.137c-0.645-0.001-1.29-0.009-1.935,0.003
		c-0.212,0.003-0.186-0.106-0.146-0.264c0.159-0.615,0.498-1.06,0.984-1.364c0.737-0.464,1.549-0.531,2.364-0.563
		c0.54-0.021,1.078,0.007,1.61,0.124c0.986,0.217,1.403,0.866,1.241,2.002c-0.169,1.185-0.366,2.365-0.565,3.544
		c-0.049,0.289-0.067,0.545,0.118,0.784c0.116,0.15,0.033,0.213-0.106,0.215c-0.708,0.001-1.417-0.002-2.125,0.001
		c-0.125,0-0.168-0.063-0.163-0.198C19.545,25.336,19.542,25.202,19.542,24.979z M19.729,22.853
		c-0.299,0.078-0.563,0.17-0.831,0.212c-0.278,0.04-0.533,0.148-0.781,0.281c-0.237,0.126-0.346,0.363-0.304,0.653
		c0.041,0.292,0.251,0.365,0.476,0.385c0.469,0.041,0.852-0.143,1.127-0.589C19.582,23.526,19.681,23.22,19.729,22.853z"/>
	<path fill="#0373BC" d="M67.667,20.005c0.155,0.015,0.208-0.11,0.285-0.185c0.737-0.704,1.577-0.956,2.518-0.755
		c0.822,0.174,1.27,0.779,1.297,1.744c0.023,0.898-0.221,1.75-0.338,2.623c-0.086,0.636-0.212,1.264-0.301,1.898
		c-0.039,0.266-0.134,0.351-0.37,0.343c-0.581-0.021-1.163-0.02-1.746-0.001c-0.258,0.009-0.323-0.064-0.27-0.366
		c0.184-1.048,0.352-2.099,0.506-3.152c0.089-0.614-0.048-0.945-0.381-1.065c-0.48-0.17-0.964,0.055-1.174,0.567
		c-0.275,0.67-0.3,1.41-0.433,2.121c-0.102,0.545-0.184,1.098-0.261,1.649c-0.024,0.179-0.087,0.245-0.246,0.243
		c-0.655-0.007-1.312-0.012-1.967,0.002c-0.214,0.003-0.219-0.111-0.189-0.293c0.283-1.729,0.563-3.46,0.848-5.19
		c0.054-0.333,0.029-0.777,0.207-0.965c0.195-0.208,0.584-0.052,0.889-0.061c0.338-0.01,0.677,0.008,1.016-0.007
		c0.193-0.008,0.241,0.078,0.2,0.28C67.72,19.623,67.696,19.814,67.667,20.005z"/>
	<path fill="#0373BC" d="M33.76,25.857c-0.852,0.014-1.593-0.175-2.236-0.738c-0.578-0.507-0.788-1.203-0.747-2.018
		c0.051-1.038,0.308-1.989,0.951-2.748c0.885-1.041,2.005-1.393,3.235-1.349c0.597,0.021,1.169,0.178,1.698,0.516
		c0.759,0.488,1.092,1.312,1.04,2.312C37.554,24.696,35.528,25.877,33.76,25.857z M35.293,21.937
		c0.016-0.235-0.015-0.46-0.081-0.682c-0.081-0.272-0.242-0.454-0.491-0.511c-0.474-0.111-0.983,0.177-1.18,0.691
		c-0.197,0.513-0.319,1.054-0.363,1.612c-0.041,0.543,0.193,0.94,0.573,1.034c0.446,0.109,0.903-0.107,1.15-0.559
		C35.167,23.04,35.283,22.505,35.293,21.937z"/>
	<path fill="#0373BC" d="M29.798,23.144c-0.248,1.035-0.777,1.729-1.559,2.158c-1.09,0.6-2.234,0.704-3.401,0.359
		c-1.071-0.317-2.033-1.442-1.571-3.43c0.42-1.81,1.654-3.017,3.281-3.188c0.812-0.087,1.608-0.058,2.365,0.321
		c0.759,0.381,1.123,1.071,1.112,2.016c-0.001,0.213-0.039,0.301-0.244,0.297c-0.655-0.014-1.311-0.003-1.967-0.007
		c-0.085,0-0.2,0.045-0.201-0.141c0-0.383-0.155-0.675-0.479-0.764c-0.392-0.108-0.791-0.034-1.04,0.349
		c-0.425,0.653-0.57,1.427-0.536,2.233c0.015,0.338,0.186,0.59,0.484,0.691c0.37,0.13,0.71,0.067,1.007-0.228
		c0.056-0.055,0.125-0.116,0.144-0.19c0.139-0.515,0.484-0.496,0.854-0.484C28.62,23.157,29.19,23.144,29.798,23.144z"/>
	<path fill="#FDFEFD" d="M75.517,20.738c-0.011,0.017-0.021,0.032-0.031,0.049c-0.005-0.01-0.019-0.022-0.017-0.025
		c0.007-0.017,0.018-0.032,0.027-0.048L75.517,20.738z"/>
</g>
</svg>
