<?xml version="1.0" encoding="utf-8"?>
<!-- Generator: Adobe Illustrator 16.0.0, SVG Export Plug-In . SVG Version: 6.00 Build 0)  -->
<!DOCTYPE svg PUBLIC "-//W3C//DTD SVG 1.0//EN" "http://www.w3.org/TR/2001/REC-SVG-20010904/DTD/svg10.dtd">
<svg version="1.0" id="Layer_1" xmlns="http://www.w3.org/2000/svg" xmlns:xlink="http://www.w3.org/1999/xlink" x="0px" y="0px"
	 width="100px" height="50px" viewBox="0 0 100 50" enable-background="new 0 0 100 50" xml:space="preserve">
<g>
	<path fill-rule="evenodd" clip-rule="evenodd" fill="#0373BC" d="M6.994,27.691c0.546,0,1.093,0.006,1.639-0.004
		c0.179-0.003,0.266,0.034,0.292,0.263c0.06,0.519,0.353,0.854,0.781,1.053c0.669,0.309,1.344,0.274,1.997-0.032
		c0.342-0.162,0.571-0.469,0.558-0.922c-0.013-0.443-0.265-0.667-0.604-0.824c-0.985-0.456-2.043-0.659-3.034-1.088
		c-0.627-0.272-1.245-0.566-1.746-1.085c-0.589-0.611-0.815-1.391-0.74-2.25c0.236-2.707,1.338-4.188,3.716-4.931
		c1.557-0.487,3.137-0.533,4.679,0.093c1.806,0.732,2.149,2.204,2.206,3.824c0.007,0.189-0.068,0.239-0.225,0.238
		c-1.13-0.004-2.261-0.005-3.391,0.001c-0.159,0-0.223-0.058-0.24-0.234c-0.049-0.524-0.362-0.777-0.792-0.888
		c-0.439-0.114-0.881-0.125-1.319,0.001c-0.337,0.098-0.611,0.279-0.664,0.708c-0.056,0.451,0.177,0.71,0.501,0.896
		c0.683,0.391,1.44,0.529,2.17,0.759c0.623,0.196,1.234,0.42,1.808,0.76c1.661,0.985,1.807,2.166,1.579,3.701
		c-0.261,1.761-1.139,3.063-2.62,3.828c-1.898,0.982-3.867,1.249-5.882,0.55c-1.712-0.595-2.695-2.161-2.66-4.043
		c0.005-0.299,0.092-0.387,0.354-0.378C5.901,27.703,6.448,27.691,6.994,27.691z"/>
	<path fill-rule="evenodd" clip-rule="evenodd" fill="#0373BC" d="M48.351,23.275c2.108-1.63,3.656-1.574,4.55,0.14
		c0.173-0.158,0.338-0.322,0.514-0.471c0.928-0.781,1.972-0.99,3.096-0.725c0.998,0.235,1.452,1.035,1.353,2.317
		c-0.104,1.33-0.409,2.621-0.601,3.935c-0.051,0.346-0.141,0.686-0.173,1.031c-0.024,0.27-0.141,0.312-0.349,0.309
		c-0.762-0.01-1.524-0.011-2.286,0c-0.219,0.004-0.278-0.049-0.232-0.309c0.21-1.183,0.397-2.369,0.592-3.555
		c0.021-0.124,0.04-0.249,0.051-0.374c0.061-0.678-0.034-0.932-0.386-1.05c-0.518-0.173-1.082,0.054-1.32,0.538
		c-0.223,0.452-0.272,0.958-0.356,1.454c-0.165,0.977-0.329,1.955-0.482,2.935c-0.04,0.257-0.12,0.373-0.386,0.365
		c-0.735-0.023-1.473-0.025-2.208,0c-0.3,0.01-0.327-0.11-0.278-0.386c0.193-1.101,0.378-2.202,0.557-3.306
		c0.044-0.275,0.071-0.556,0.08-0.834c0.02-0.583-0.334-0.906-0.861-0.809c-0.544,0.099-0.831,0.5-0.99,1.04
		c-0.236,0.803-0.307,1.644-0.46,2.466c-0.094,0.507-0.174,1.019-0.248,1.53c-0.032,0.219-0.118,0.3-0.326,0.296
		c-0.762-0.014-1.524-0.016-2.286,0c-0.26,0.005-0.285-0.097-0.242-0.349c0.382-2.259,0.755-4.52,1.126-6.781
		c0.043-0.263,0.106-0.41,0.404-0.394c0.633,0.035,1.27,0.029,1.904,0.003c0.316-0.013,0.411,0.094,0.326,0.427
		C48.392,22.879,48.383,23.048,48.351,23.275z"/>
	<path fill-rule="evenodd" clip-rule="evenodd" fill="#FEE006" d="M56.072,32.469c-12.739,0-25.479,0-38.219,0
		c-0.457,0-0.658-0.34-0.492-0.814c0.037-0.104,0.1-0.111,0.177-0.112c0.102-0.002,0.203-0.001,0.305-0.001
		c25.505,0,51.01,0,76.515,0c0.455,0,0.638,0.308,0.483,0.799c-0.032,0.1-0.087,0.127-0.168,0.128
		c-0.114,0.001-0.229,0.001-0.343,0.001C81.577,32.469,68.825,32.469,56.072,32.469z"/>
	<path fill-rule="evenodd" clip-rule="evenodd" fill="#0373BC" d="M62.307,23.005c0.574-0.445,1.09-0.79,1.738-0.87
		c1.715-0.21,2.928,0.97,2.948,2.885c0.018,1.624-0.494,2.987-1.582,4.074c-0.853,0.852-1.885,1.058-2.984,0.89
		c-0.609-0.093-1.077-0.465-1.358-1.123c-0.03,0.076-0.048,0.112-0.059,0.148c-0.211,0.798-0.21,0.798-0.985,0.798
		c-0.495,0-0.99-0.008-1.485,0.002c-0.195,0.005-0.27-0.038-0.229-0.284c0.65-3.883,1.296-7.767,1.93-11.653
		c0.043-0.267,0.125-0.337,0.357-0.332c0.762,0.015,1.524,0.014,2.285,0c0.239-0.004,0.295,0.047,0.247,0.327
		c-0.273,1.567-0.524,3.14-0.782,4.71C62.331,22.687,62.327,22.798,62.307,23.005z M64.112,25.635
		c-0.004-0.658-0.21-1.058-0.607-1.178c-0.619-0.186-1.206,0.115-1.474,0.764c-0.151,0.369-0.259,0.755-0.336,1.153
		c-0.116,0.599,0.04,1.145,0.407,1.371c0.388,0.239,0.999,0.116,1.359-0.286C63.913,26.955,64.092,26.328,64.112,25.635z"/>
	<path fill-rule="evenodd" clip-rule="evenodd" fill="#0373BC" d="M89.62,24.121c0.687-0.576,1.268-1.283,1.912-1.912
		c0.116-0.113,0.217-0.206,0.392-0.204c1.016,0.01,2.03,0.005,3.076,0.005c-0.051,0.176-0.182,0.243-0.279,0.333
		c-0.814,0.758-1.623,1.527-2.458,2.258c-0.278,0.244-0.288,0.431-0.137,0.76c0.62,1.347,1.209,2.713,1.825,4.063
		c0.147,0.323,0.092,0.396-0.225,0.39c-0.914-0.018-1.829-0.015-2.743-0.001c-0.227,0.004-0.331-0.075-0.412-0.313
		c-0.266-0.787-0.561-1.562-0.837-2.344c-0.071-0.204-0.126-0.265-0.31-0.1c-0.265,0.238-0.453,0.489-0.493,0.889
		c-0.053,0.514-0.168,1.02-0.246,1.53c-0.036,0.24-0.12,0.347-0.368,0.341c-0.735-0.022-1.474-0.022-2.209-0.001
		c-0.286,0.007-0.344-0.099-0.295-0.388c0.421-2.479,0.834-4.958,1.248-7.437c0.225-1.35,0.454-2.699,0.668-4.051
		c0.046-0.29,0.129-0.416,0.426-0.403c0.711,0.03,1.423,0.023,2.133,0.003c0.288-0.008,0.385,0.042,0.322,0.398
		c-0.33,1.87-0.638,3.745-0.95,5.618c-0.029,0.177-0.042,0.359-0.063,0.539c-0.012,0.018-0.025,0.035-0.034,0.055
		c-0.002,0.004,0.014,0.019,0.021,0.028C89.595,24.158,89.608,24.14,89.62,24.121z"/>
	<path fill-rule="evenodd" clip-rule="evenodd" fill="#0373BC" d="M72.453,29.021c-0.944,0.756-1.923,1.054-2.998,1.012
		c-0.51-0.021-0.975-0.163-1.404-0.457c-0.549-0.375-0.787-0.994-0.658-1.693c0.235-1.284,0.973-2.091,2.165-2.329
		c0.923-0.184,1.853-0.323,2.776-0.502c0.512-0.099,0.78-0.374,0.735-0.689c-0.043-0.307-0.386-0.479-0.889-0.445
		c-0.398,0.026-0.754,0.148-0.96,0.564c-0.066,0.135-0.156,0.158-0.278,0.157c-0.762-0.003-1.523-0.011-2.285,0.003
		c-0.251,0.005-0.271-0.107-0.212-0.327c0.277-1.014,0.952-1.578,1.818-1.856c1.413-0.454,2.856-0.476,4.293-0.159
		c0.994,0.22,1.413,0.858,1.343,1.991c-0.078,1.246-0.387,2.454-0.574,3.681c-0.049,0.317-0.101,0.635-0.165,0.949
		c-0.051,0.25,0.047,0.438,0.182,0.61c0.15,0.193,0.095,0.273-0.109,0.274c-0.863,0.003-1.727,0-2.59,0.003
		c-0.152,0-0.197-0.079-0.191-0.233C72.458,29.424,72.453,29.271,72.453,29.021z M72.671,26.547
		c-0.154,0.048-0.275,0.086-0.397,0.124c-0.497,0.155-1.026,0.167-1.497,0.445c-0.298,0.176-0.428,0.441-0.367,0.793
		c0.059,0.341,0.322,0.399,0.586,0.417C71.91,28.386,72.599,27.668,72.671,26.547z"/>
	<path fill-rule="evenodd" clip-rule="evenodd" fill="#0373BC" d="M22.451,29.014c-0.657,0.497-1.287,0.851-2.002,0.953
		c-0.787,0.113-1.568,0.146-2.296-0.308c-0.683-0.428-0.92-1.018-0.768-1.865c0.241-1.337,1.06-1.992,2.19-2.242
		c0.919-0.203,1.85-0.34,2.775-0.504c0.166-0.029,0.317-0.098,0.457-0.195c0.148-0.103,0.253-0.252,0.239-0.448
		c-0.015-0.215-0.147-0.348-0.328-0.422c-0.534-0.221-1.194-0.02-1.526,0.495c-0.081,0.126-0.156,0.159-0.276,0.158
		c-0.774-0.001-1.548-0.01-2.322,0.004c-0.254,0.005-0.223-0.123-0.174-0.304c0.191-0.71,0.597-1.222,1.18-1.574
		c0.885-0.536,1.859-0.614,2.837-0.651c0.647-0.024,1.293,0.008,1.932,0.143c1.183,0.25,1.683,0.999,1.489,2.31
		c-0.203,1.368-0.439,2.729-0.678,4.09c-0.059,0.334-0.081,0.629,0.142,0.904c0.139,0.174,0.039,0.247-0.127,0.248
		c-0.85,0.002-1.701-0.001-2.551,0.002c-0.15,0.001-0.201-0.072-0.195-0.229C22.456,29.426,22.451,29.272,22.451,29.014z
		 M22.676,26.56c-0.359,0.091-0.675,0.197-0.997,0.244c-0.334,0.048-0.639,0.173-0.937,0.326c-0.284,0.145-0.415,0.419-0.365,0.754
		c0.049,0.337,0.302,0.42,0.571,0.443c0.563,0.048,1.023-0.164,1.353-0.678C22.5,27.338,22.619,26.985,22.676,26.56z"/>
	<path fill-rule="evenodd" clip-rule="evenodd" fill="#0373BC" d="M80.201,23.276c0.186,0.017,0.249-0.128,0.342-0.213
		c0.885-0.813,1.892-1.103,3.021-0.872c0.987,0.201,1.523,0.899,1.556,2.012c0.029,1.037-0.264,2.02-0.405,3.028
		c-0.104,0.733-0.255,1.457-0.362,2.189c-0.046,0.307-0.159,0.405-0.443,0.396c-0.698-0.025-1.397-0.023-2.095-0.001
		c-0.31,0.01-0.388-0.075-0.324-0.423c0.22-1.209,0.422-2.421,0.606-3.637c0.107-0.708-0.056-1.091-0.457-1.229
		c-0.575-0.197-1.156,0.063-1.408,0.654c-0.33,0.773-0.359,1.627-0.519,2.447c-0.122,0.629-0.22,1.266-0.312,1.902
		c-0.03,0.207-0.105,0.283-0.296,0.281c-0.787-0.008-1.574-0.013-2.36,0.002c-0.256,0.005-0.263-0.129-0.228-0.338
		c0.34-1.996,0.676-3.992,1.017-5.988c0.066-0.384,0.037-0.896,0.249-1.113c0.235-0.24,0.701-0.06,1.066-0.071
		c0.406-0.011,0.813,0.01,1.219-0.007c0.233-0.009,0.289,0.09,0.241,0.323C80.264,22.834,80.236,23.054,80.201,23.276z"/>
	<path fill-rule="evenodd" clip-rule="evenodd" fill="#0373BC" d="M39.513,30.028c-1.022,0.016-1.912-0.202-2.683-0.852
		c-0.694-0.585-0.945-1.388-0.897-2.328c0.062-1.198,0.37-2.296,1.141-3.17c1.062-1.202,2.406-1.607,3.882-1.557
		c0.716,0.024,1.404,0.205,2.038,0.596c0.91,0.562,1.31,1.513,1.248,2.667C44.066,28.688,41.635,30.05,39.513,30.028z
		 M41.354,25.504c0.018-0.271-0.019-0.532-0.097-0.787c-0.097-0.314-0.291-0.523-0.589-0.59c-0.569-0.129-1.179,0.204-1.416,0.797
		c-0.237,0.592-0.383,1.216-0.435,1.86c-0.05,0.626,0.231,1.085,0.687,1.193c0.535,0.126,1.084-0.123,1.38-0.644
		C41.201,26.777,41.341,26.159,41.354,25.504z"/>
	<path fill-rule="evenodd" clip-rule="evenodd" fill="#0373BC" d="M34.759,26.896c-0.298,1.195-0.933,1.994-1.87,2.49
		c-1.309,0.692-2.682,0.813-4.082,0.415c-1.285-0.365-2.44-1.665-1.885-3.958c0.505-2.087,1.985-3.479,3.938-3.678
		c0.974-0.1,1.929-0.068,2.837,0.37c0.91,0.439,1.347,1.236,1.334,2.327c-0.002,0.245-0.047,0.347-0.292,0.342
		c-0.787-0.016-1.574-0.004-2.361-0.008c-0.103,0-0.24,0.051-0.241-0.163c-0.001-0.441-0.186-0.778-0.575-0.881
		c-0.469-0.125-0.948-0.038-1.247,0.403c-0.511,0.753-0.684,1.646-0.643,2.577c0.018,0.389,0.222,0.68,0.581,0.798
		c0.445,0.149,0.853,0.078,1.209-0.263c0.067-0.064,0.15-0.134,0.173-0.22c0.166-0.593,0.581-0.572,1.025-0.558
		C33.345,26.912,34.03,26.896,34.759,26.896z"/>
	<path fill-rule="evenodd" clip-rule="evenodd" fill="#FDFEFD" d="M89.62,24.121c-0.012,0.019-0.024,0.037-0.037,0.056
		c-0.007-0.01-0.022-0.024-0.021-0.028c0.009-0.02,0.022-0.037,0.034-0.055C89.596,24.093,89.62,24.121,89.62,24.121z"/>
</g>
</svg>
