<?xml version="1.0" encoding="utf-8"?>
<!-- Generator: Adobe Illustrator 16.0.0, SVG Export Plug-In . SVG Version: 6.00 Build 0)  -->
<!DOCTYPE svg PUBLIC "-//W3C//DTD SVG 1.1//EN" "http://www.w3.org/Graphics/SVG/1.1/DTD/svg11.dtd">
<svg version="1.1" id="Layer_1" xmlns="http://www.w3.org/2000/svg" xmlns:xlink="http://www.w3.org/1999/xlink" x="0px" y="0px"
	 width="85px" height="43px" viewBox="0 0 85 43" enable-background="new 0 0 85 43" xml:space="preserve">
<path fill="#FFFFFF" d="M7.013,0h70.973C81.844,0,85,3.161,85,7.022v28.955C85,39.84,81.846,43,77.986,43H7.013
	C3.153,43,0,39.84,0,35.977V7.022C0,3.161,3.152,0,7.013,0z"/>
<g>
	<polygon fill="#024731" points="16.367,27.739 14.599,27.749 14.599,34.9 16.367,34.9 	"/>
	<path fill="#024731" d="M26.255,34.823c-0.276-0.104-0.491-0.293-0.633-0.527C25.33,33.819,25.3,33.231,25.3,32.48v-3.03h-1.083
		v-1.711h1.084v-1.729h1.763v1.729h1.613v1.711h-1.613v3.234c0,0.206,0.014,0.369,0.031,0.452c0.017,0.087,0.029,0.095,0.044,0.095
		c0,0,0,0.02,0.047,0.036c0.056,0.017,0.165,0.023,0.322,0.023c0.091,0,0.28-0.017,0.425-0.06c0.156-0.008,0.287-0.05,0.287-0.05
		l0.32-0.063l0.173,1.542l-0.227,0.098c-0.026,0-0.597,0.203-1.271,0.203C26.842,34.962,26.521,34.919,26.255,34.823"/>
	<path fill="#024731" d="M32.366,35c-0.521,0-0.957-0.038-1.339-0.153c-0.388-0.107-0.714-0.316-0.976-0.626
		c-0.512-0.606-0.683-1.528-0.683-2.89c0-1.033,0.104-1.793,0.364-2.393c0.255-0.58,0.715-0.954,1.294-1.113
		c0.384-0.124,0.818-0.167,1.34-0.167c1.095,0,2.123,0.278,2.149,0.278l0.262,0.06l-0.229,1.698l-0.313-0.079
		c0,0-0.039-0.011-0.131-0.042c-0.087-0.005-0.215-0.016-0.363-0.038c-0.28-0.043-0.684-0.086-1.099-0.086
		c-0.417,0-0.741,0.021-0.946,0.086c-0.197,0.063-0.271,0.142-0.359,0.283c-0.051,0.093-0.095,0.232-0.127,0.417
		c-0.032,0.269-0.049,0.637-0.049,1.096c0,0.52,0.017,0.898,0.068,1.182c0.057,0.264,0.135,0.414,0.241,0.496
		c0.066,0.081,0.167,0.127,0.313,0.162c0.2,0.061,0.481,0.08,0.858,0.08c0.612,0,1.198-0.115,1.462-0.158
		c0.093-0.005,0.127-0.032,0.127-0.032l0.316-0.076l0.23,1.643l-0.249,0.083C34.516,34.72,33.698,35,32.366,35"/>
	<path fill="#024731" d="M51.89,29.19c-0.096-0.542-0.35-0.975-0.767-1.22c-0.412-0.244-0.93-0.313-1.585-0.313
		c-0.391,0-0.811,0.045-0.819,0.045l-0.078,0.008l-0.823,0.677h-0.009c-0.006,0.016-0.009,0.016-0.018,0.033
		c-0.289-0.303-0.552-0.507-0.846-0.617c-0.302-0.126-0.601-0.145-0.985-0.145h-0.044c-0.363,0-0.792,0.045-0.797,0.052l-0.058,0.01
		l-0.699,0.575c-0.027,0.022-0.044,0.035-0.07,0.046c-0.054,0.019-0.076-0.011-0.08-0.036l-0.06-0.565h-0.015h-1.463v7.162h1.773
		v-5.384c0.254-0.056,0.645-0.096,1.023-0.096c0.269,0,0.462,0.007,0.602,0.04c0.101,0.033,0.162,0.056,0.21,0.079
		c0.048,0.034,0.096,0.104,0.126,0.278c0.049,0.153,0.07,0.419,0.07,0.767v4.315h1.757v-4.809c0-0.188-0.019-0.396-0.049-0.598
		c0.289-0.033,0.67-0.066,1.055-0.066c0.25,0,0.452,0.022,0.597,0.043c0.101,0.023,0.166,0.047,0.201,0.087
		c0.061,0.042,0.104,0.092,0.153,0.266c0.031,0.147,0.049,0.412,0.049,0.78v4.297h1.76v-4.418
		C52.002,29.971,51.98,29.538,51.89,29.19"/>
	<path fill="#024731" d="M21.018,30.505H20.63h-0.018h-0.021h-0.33c-0.229,0-0.557-0.009-0.885-0.044
		c0.014-0.209,0.018-0.382,0.044-0.514c0.025-0.147,0.057-0.251,0.096-0.309c0.049-0.08,0.092-0.137,0.281-0.188
		c0.17-0.054,0.464-0.071,0.88-0.071c0.28,0,0.484,0.002,0.635,0.034c0.101,0.037,0.176,0.057,0.224,0.089
		c0.068,0.062,0.125,0.141,0.166,0.348c0.045,0.144,0.066,0.363,0.08,0.632C21.516,30.505,21.235,30.505,21.018,30.505
		 M22.507,27.996c-0.496-0.259-1.104-0.338-1.877-0.338c-0.659,0-1.22,0.062-1.692,0.271c-0.478,0.189-0.857,0.578-1.073,1.135
		c-0.21,0.58-0.313,1.407-0.313,2.268c0,0.737,0.072,1.327,0.217,1.821c0.195,0.748,0.6,1.247,1.126,1.52
		c0.529,0.261,1.148,0.318,1.874,0.328c1.299-0.01,2.281-0.369,2.306-0.376l0.234-0.094l-0.244-1.6l-0.313,0.062
		c-0.654,0.145-1.199,0.259-1.869,0.259c-0.243,0-0.517,0-0.756-0.039c-0.233-0.063-0.418-0.151-0.543-0.307
		c-0.159-0.229-0.233-0.643-0.233-1.038v-0.148c0.005-0.036,0.014-0.046,0.026-0.046l0.005-0.005c0.008,0,0.013,0,0.039,0.005
		c0.025,0.005,0.048,0.017,0.076,0.046l0.323,0.334l0.061,0.045l0.061,0.019c0.018,0.011,0.438,0.087,1.293,0.087
		c0.899-0.011,1.664-0.103,2.027-0.118l0.275-0.007l0.015-0.283c0.023-0.479,0.027-0.709,0.027-0.949
		c0-0.58-0.027-1.082-0.134-1.483C23.308,28.746,22.987,28.267,22.507,27.996"/>
	<path fill="#024731" d="M39.775,32.518c-0.013,0.21-0.057,0.367-0.096,0.458c-0.075,0.143-0.109,0.177-0.259,0.241
		c-0.149,0.059-0.425,0.074-0.798,0.074c-0.337,0-0.573-0.007-0.74-0.058c-0.114-0.021-0.176-0.063-0.219-0.115
		c-0.079-0.062-0.14-0.213-0.184-0.505c-0.049-0.28-0.058-0.718-0.058-1.282c0-0.497,0.01-0.901,0.045-1.182
		c0.03-0.207,0.057-0.363,0.096-0.455c0.084-0.146,0.118-0.192,0.267-0.244c0.157-0.054,0.425-0.071,0.793-0.071
		c0.337,0,0.578,0.002,0.739,0.049c0.119,0.033,0.172,0.066,0.232,0.122c0.057,0.066,0.122,0.203,0.171,0.503
		c0.044,0.287,0.057,0.712,0.049,1.28C39.824,31.836,39.81,32.231,39.775,32.518 M41.213,28.674
		c-0.202-0.407-0.557-0.689-0.995-0.826c-0.415-0.145-0.945-0.19-1.593-0.19c-0.578,0-1.06,0.042-1.454,0.147
		c-0.298,0.076-0.562,0.206-0.78,0.4c-0.324,0.289-0.512,0.702-0.617,1.208c-0.092,0.513-0.136,1.132-0.136,1.918
		c0,0.694,0.026,1.271,0.106,1.759c0.064,0.343,0.156,0.645,0.296,0.906c0.211,0.403,0.561,0.683,0.981,0.826
		c0.438,0.139,0.945,0.166,1.604,0.177c0.577-0.011,1.055-0.033,1.453-0.141c0.302-0.085,0.564-0.209,0.779-0.412
		c0.325-0.273,0.518-0.695,0.614-1.195c0.108-0.507,0.131-1.125,0.131-1.92c0-0.7-0.022-1.267-0.092-1.758
		C41.443,29.235,41.356,28.927,41.213,28.674"/>
	<path fill="#024731" d="M72.331,29.19c-0.131-0.542-0.38-0.975-0.796-1.22c-0.412-0.244-0.92-0.313-1.577-0.313
		c-0.24,0-0.723,0.062-0.728,0.062l-0.078,0.007h-0.005l-0.697,0.578c-0.034,0.02-0.048,0.036-0.074,0.054
		c-0.044,0.015-0.065-0.018-0.079-0.042l-0.053-0.579h-1.488V34.9h1.755v-5.365c0.303-0.065,0.737-0.115,1.143-0.115
		c0.259,0,0.466,0.007,0.605,0.039c0.096,0.033,0.171,0.058,0.196,0.079c0.065,0.035,0.105,0.104,0.15,0.28
		c0.039,0.152,0.056,0.417,0.056,0.767V34.9h1.77v-4.419C72.433,29.971,72.401,29.538,72.331,29.19"/>
	<path fill="#024731" d="M80,34.9c-0.141-0.125-0.285-0.26-0.425-0.379c0-0.005-0.015-0.022-0.041-0.036
		c0-0.007,0-0.016-0.017-0.016c-1.988-1.868-2.527-3.439-2.527-3.439l1.184-1.406l1.111-1.389l0.593-0.683l-0.435,0.024h-1.647
		l-2.259,2.653c-0.041,0.057-0.092,0.089-0.132,0.128c-0.07,0.055-0.161,0.036-0.161,0.036v-5.467h-1.761V34.9h1.761v-3.162
		c0,0,0.14-0.011,0.184,0.056c0,0,0.955,2.015,2.295,3.106H80z"/>
	<path fill="#024731" d="M63.906,33.09c-0.337,0.058-0.998,0.186-1.56,0.186c-0.191,0-0.372-0.008-0.494-0.044
		c-0.097,0-0.15-0.017-0.202-0.032c-0.061-0.047-0.07-0.063-0.1-0.139c-0.044-0.074-0.071-0.235-0.071-0.481
		c0-0.273,0.027-0.441,0.071-0.534c0.024-0.086,0.039-0.099,0.056-0.132c0.03-0.018,0.096-0.043,0.246-0.063h0.573l1.479-0.043
		v1.282H63.906z M65.477,28.828c-0.117-0.321-0.332-0.574-0.616-0.756c-0.495-0.321-1.161-0.413-2.023-0.413
		c-1.507,0-2.58,0.361-2.61,0.373l-0.249,0.079l0.254,1.675l0.337-0.089c0,0,0.064-0.013,0.166-0.047
		c0.356-0.082,1.147-0.248,1.939-0.248c0.461-0.004,0.78,0.03,0.933,0.115c0.124,0.058,0.185,0.126,0.229,0.219
		c0.044,0.098,0.064,0.235,0.069,0.446l-1.971,0.015c-0.394,0-0.722,0.04-1.018,0.123c-0.424,0.126-0.781,0.393-0.962,0.771
		c-0.196,0.403-0.249,0.875-0.263,1.489c0,0.431,0.027,0.795,0.123,1.114c0.104,0.479,0.402,0.86,0.818,1.055
		c0.42,0.191,0.938,0.241,1.594,0.251c0.408,0,0.925-0.06,0.925-0.06l0.096-0.016l0.706-0.573c0.029-0.021,0.053-0.036,0.065-0.055
		c0.047-0.004,0.068,0.019,0.086,0.039l0.049,0.565h1.523v-4.863C65.679,29.564,65.627,29.185,65.477,28.828"/>
	<path fill="#024731" d="M57.034,32.412c-0.021,0.201-0.062,0.356-0.11,0.473c-0.082,0.155-0.153,0.213-0.284,0.268
		c-0.14,0.071-0.363,0.099-0.675,0.099c-0.377,0-0.714-0.034-0.963-0.08c-0.063-0.002-0.102-0.019-0.155-0.034v-3.572
		c0.277-0.07,0.725-0.163,1.152-0.163c0.277,0,0.469,0.026,0.601,0.093c0.097,0.023,0.167,0.07,0.224,0.13
		c0.088,0.088,0.154,0.261,0.206,0.537c0.041,0.269,0.061,0.656,0.061,1.139C57.091,31.764,57.078,32.136,57.034,32.412
		 M57.533,27.871c-0.346-0.145-0.762-0.213-1.252-0.213c-0.166,0-0.355,0.043-0.495,0.053c-0.053,0.017-0.095,0.028-0.122,0.028
		l-0.688,0.59c-0.034,0.012-0.052,0.029-0.074,0.029c-0.035,0.028-0.074,0-0.074-0.018v-3.413h-1.756v9.594l0.207,0.067
		C54.144,34.9,55.081,34.99,55.773,35c0.601,0,1.09-0.062,1.502-0.177c0.632-0.199,1.074-0.623,1.305-1.224
		c0.241-0.599,0.297-1.337,0.297-2.301c0-1.207-0.104-2.099-0.498-2.729C58.174,28.236,57.871,28.013,57.533,27.871"/>
	<path fill="#024731" d="M8.073,34.758l0.019,0.018l0.022,0.02c0.018,0,0.595,0.144,1.386,0.144c0.394,0,0.85-0.038,1.315-0.144
		l0.033-0.009l0.009-0.028c2.019-3.252,2.711-6.371,2.947-8.158c0.127-0.741,0.157-1.584,0.157-1.596l-2.089,0.341
		c-0.156,1.193-0.717,4.668-2.285,7.494L9.522,32.97l-0.058-0.131c-1.077-1.93-1.663-3.9-1.993-5.37
		c-0.153-0.704-0.291-1.679-0.346-2.144L5,25.016C5.008,25.427,5.159,29.971,8.073,34.758"/>
	<g>
		<path fill="#275140" d="M60.091,10.027V9.321C60.047,9.506,60.047,9.741,60.091,10.027z"/>
		<path fill="#275140" d="M60.13,9.167c-0.021,0.043-0.025,0.103-0.039,0.155v0.706c0.015,0.09,0.026,0.177,0.048,0.277V9.146
			C60.135,9.155,60.13,9.167,60.13,9.167z"/>
		<path fill="#275140" d="M60.139,9.146v1.159c0.015,0.059,0.033,0.124,0.05,0.186V9.055C60.159,9.101,60.148,9.128,60.139,9.146z"
			/>
		<path fill="#275140" d="M60.188,9.055v1.436c0.014,0.051,0.028,0.104,0.044,0.156V8.993C60.218,9.014,60.198,9.037,60.188,9.055z"
			/>
		<path fill="#285240" d="M60.231,8.991v1.654c0.017,0.057,0.029,0.108,0.048,0.168V8.926C60.261,8.95,60.247,8.97,60.231,8.991z"/>
		<path fill="#285240" d="M60.279,8.926v1.888c0.016,0.051,0.031,0.101,0.05,0.152V8.872C60.313,8.89,60.293,8.909,60.279,8.926z"/>
		<path fill="#285340" d="M60.329,8.872v2.094c0.011,0.035,0.025,0.072,0.039,0.108V8.829C60.354,8.844,60.34,8.857,60.329,8.872z"
			/>
		<path fill="#285340" d="M60.366,8.829v2.245c0.018,0.051,0.037,0.104,0.057,0.156v-2.46C60.402,8.791,60.386,8.81,60.366,8.829z"
			/>
		<path fill="#285341" d="M60.424,8.771v2.46c0.014,0.037,0.025,0.071,0.04,0.108V8.737C60.451,8.749,60.435,8.76,60.424,8.771z"/>
		<path fill="#285341" d="M60.464,8.737v2.602c0.018,0.05,0.032,0.095,0.052,0.146V8.693C60.498,8.708,60.479,8.723,60.464,8.737z"
			/>
		<path fill="#285341" d="M60.516,8.693v2.791c0.014,0.033,0.026,0.066,0.04,0.1V8.66C60.54,8.671,60.53,8.682,60.516,8.693z"/>
		<path fill="#285441" d="M60.556,8.66v2.924c0.018,0.042,0.038,0.088,0.057,0.131V8.617C60.592,8.632,60.574,8.646,60.556,8.66z"/>
		<path fill="#295441" d="M60.612,8.617v3.097c0.014,0.034,0.029,0.069,0.044,0.104V8.59C60.643,8.6,60.625,8.607,60.612,8.617z"/>
		<path fill="#295541" d="M60.656,8.59v3.229c0.016,0.037,0.032,0.075,0.049,0.114V8.56C60.688,8.569,60.672,8.58,60.656,8.59z"/>
		<path fill="#295541" d="M60.705,8.56v3.373c0.017,0.037,0.03,0.073,0.049,0.111V8.53C60.736,8.54,60.72,8.55,60.705,8.56z"/>
		<path fill="#2A5541" d="M60.752,8.53v3.514c0.015,0.031,0.026,0.06,0.04,0.091V8.507C60.778,8.514,60.767,8.522,60.752,8.53z"/>
		<path fill="#2A5542" d="M60.792,8.507v3.629c0.017,0.036,0.031,0.071,0.048,0.107V8.477C60.822,8.486,60.809,8.496,60.792,8.507z"
			/>
		<path fill="#2A5642" d="M60.84,8.477v3.766c0.015,0.032,0.032,0.067,0.049,0.1V8.455C60.873,8.463,60.854,8.47,60.84,8.477z"/>
		<path fill="#2A5642" d="M60.887,8.455v3.887c0.015,0.03,0.031,0.062,0.045,0.091V8.437C60.918,8.443,60.901,8.448,60.887,8.455z"
			/>
		<path fill="#2A5642" d="M60.932,8.437v3.996c0.016,0.034,0.033,0.068,0.049,0.102V8.415C60.965,8.422,60.947,8.429,60.932,8.437z"
			/>
		<path fill="#2A5642" d="M60.981,8.415v4.119c0.015,0.033,0.031,0.066,0.047,0.1V8.396C61.013,8.402,60.996,8.408,60.981,8.415z"/>
		<path fill="#2A5742" d="M61.028,8.396v4.238c0.015,0.03,0.028,0.06,0.044,0.09V8.376C61.057,8.383,61.043,8.389,61.028,8.396z"/>
		<path fill="#2A5742" d="M61.072,8.376v4.348c0.017,0.037,0.033,0.071,0.053,0.109V8.354C61.105,8.36,61.091,8.37,61.072,8.376z"/>
		<path fill="#2A5742" d="M61.125,8.354v4.479c0.018,0.035,0.03,0.066,0.049,0.102V8.334C61.155,8.34,61.142,8.348,61.125,8.354z"/>
		<path fill="#2C5842" d="M61.174,8.334v4.6c0.014,0.026,0.029,0.056,0.044,0.082V8.322C61.203,8.327,61.187,8.33,61.174,8.334z"/>
		<path fill="#2C5842" d="M61.218,8.322v4.693c0.015,0.026,0.029,0.055,0.044,0.082V8.311C61.247,8.315,61.23,8.318,61.218,8.322z"
			/>
		<path fill="#2C5943" d="M61.262,8.311v4.787c0.016,0.029,0.032,0.06,0.047,0.09v-4.89C61.294,8.302,61.276,8.307,61.262,8.311z"/>
		<path fill="#2C5943" d="M61.309,8.298v4.89c0.015,0.027,0.029,0.055,0.044,0.083V8.286C61.338,8.291,61.323,8.294,61.309,8.298z"
			/>
		<path fill="#2D5942" d="M61.353,8.286v4.984c0.018,0.035,0.037,0.07,0.057,0.106V8.271C61.39,8.276,61.372,8.281,61.353,8.286z"/>
		<path fill="#2E5A43" d="M61.409,8.271v5.106c0.011,0.02,0.02,0.038,0.031,0.058V8.263C61.43,8.266,61.42,8.269,61.409,8.271z"/>
		<path fill="#2E5A43" d="M61.44,8.263v5.172c0.018,0.033,0.034,0.065,0.053,0.098V8.249C61.475,8.253,61.458,8.259,61.44,8.263z"/>
		<path fill="#2E5A43" d="M61.492,8.249v5.284c0.017,0.031,0.031,0.06,0.049,0.09V8.235C61.523,8.24,61.511,8.245,61.492,8.249z"/>
		<path fill="#2E5B43" d="M61.59,8.229c-0.006,0-0.013,0-0.018,0.001h-0.01c-0.008,0.002-0.015,0.004-0.021,0.006v5.388
			c0.018,0.031,0.031,0.061,0.049,0.092V8.229L61.59,8.229z"/>
		<path fill="#2E5B43" d="M61.59,8.229v5.486c0.009-0.001,0.031-0.004,0.043-0.007V8.223C61.619,8.226,61.604,8.226,61.59,8.229z"/>
		<path fill="#2E5B43" d="M61.633,8.223v5.485c0.013-0.002,0.032-0.004,0.049-0.007V8.217C61.665,8.22,61.648,8.221,61.633,8.223z"
			/>
		<path fill="#2E5C43" d="M61.682,8.217v5.484c0.015-0.002,0.025-0.004,0.044-0.007V8.212C61.711,8.215,61.695,8.215,61.682,8.217z"
			/>
		<path fill="#2E5C44" d="M61.724,8.212v5.482c0.021-0.002,0.029-0.004,0.053-0.008v-5.48C61.76,8.209,61.741,8.21,61.724,8.212z"/>
		<path fill="#2F5C44" d="M61.777,8.206v5.48c0.013-0.001,0.027-0.003,0.041-0.005v-5.48C61.805,8.204,61.79,8.204,61.777,8.206z"/>
		<path fill="#2F5C43" d="M61.818,8.201v5.479c0.013-0.001,0.032-0.004,0.047-0.006V8.196C61.849,8.197,61.833,8.198,61.818,8.201z"
			/>
		<path fill="#305D44" d="M61.863,8.196v5.479c0.014-0.001,0.031-0.003,0.046-0.006V8.191C61.895,8.192,61.879,8.193,61.863,8.196z"
			/>
		<path fill="#305D44" d="M61.909,8.191v5.478c0.017-0.002,0.034-0.004,0.052-0.007V8.185C61.944,8.187,61.927,8.188,61.909,8.191z"
			/>
		<path fill="#305E44" d="M61.961,8.185v5.477c0.016-0.001,0.029-0.003,0.045-0.005V8.179C61.99,8.182,61.976,8.183,61.961,8.185z"
			/>
		<path fill="#305E44" d="M62.005,8.179v5.478c0.019-0.003,0.033-0.005,0.053-0.008V8.173C62.039,8.176,62.023,8.177,62.005,8.179z"
			/>
		<path fill="#315E44" d="M62.058,8.173v5.476c0.015-0.001,0.023-0.003,0.039-0.005V8.169C62.083,8.171,62.07,8.172,62.058,8.173z"
			/>
		<path fill="#305F44" d="M62.097,8.169v5.476c0.019-0.002,0.039-0.005,0.058-0.007V8.161C62.136,8.164,62.115,8.166,62.097,8.169z"
			/>
		<path fill="#305F44" d="M62.154,8.161v5.476c0.007-0.001,0.017-0.002,0.025-0.003V8.159C62.171,8.16,62.163,8.16,62.154,8.161z"/>
		<path fill="#315F44" d="M62.18,8.159v5.475c0.02-0.003,0.045-0.005,0.064-0.008V8.151C62.224,8.154,62.202,8.156,62.18,8.159z"/>
		<path fill="#326045" d="M62.244,8.151v5.475c0.013-0.001,0.024-0.002,0.036-0.004V8.146C62.269,8.149,62.258,8.149,62.244,8.151z"
			/>
		<path fill="#336044" d="M62.28,8.146v5.476c0.017-0.002,0.032-0.003,0.05-0.006V8.142C62.313,8.143,62.297,8.146,62.28,8.146z"/>
		<path fill="#326145" d="M62.33,8.142v5.475c0.016-0.002,0.031-0.004,0.048-0.005V8.136C62.361,8.138,62.346,8.14,62.33,8.142z"/>
		<path fill="#326145" d="M62.378,8.136v5.476c0.017-0.002,0.031-0.004,0.049-0.006V8.13C62.41,8.132,62.394,8.135,62.378,8.136z"/>
		<path fill="#326145" d="M62.426,8.13v5.476c0.016-0.002,0.028-0.004,0.044-0.005V8.125C62.454,8.127,62.441,8.128,62.426,8.13z"/>
		<path fill="#336245" d="M62.47,8.125v5.476c0.019-0.002,0.033-0.004,0.053-0.007V8.119C62.505,8.121,62.487,8.123,62.47,8.125z"/>
		<path fill="#336245" d="M62.521,8.119v5.475c0.014-0.001,0.022-0.002,0.035-0.004V8.115C62.546,8.116,62.533,8.117,62.521,8.119z"
			/>
		<path fill="#356345" d="M62.557,8.115v5.475c0.018-0.002,0.034-0.003,0.053-0.006V8.108C62.591,8.11,62.575,8.113,62.557,8.115z"
			/>
		<path fill="#356345" d="M62.609,8.108v5.476c0.018-0.002,0.039-0.004,0.057-0.006V8.103C62.646,8.104,62.629,8.106,62.609,8.108z"
			/>
		<path fill="#356345" d="M62.666,8.103v5.477c0.01-0.001,0.021-0.002,0.031-0.003V8.099C62.688,8.1,62.677,8.102,62.666,8.103z"/>
		<path fill="#356346" d="M62.697,8.099v5.477c0.017-0.001,0.038-0.003,0.057-0.006V8.091C62.734,8.093,62.717,8.097,62.697,8.099z"
			/>
		<path fill="#356346" d="M62.754,8.091v5.479c0.015,0,0.029-0.002,0.044-0.004V8.087C62.783,8.088,62.769,8.091,62.754,8.091z"/>
		<path fill="#346446" d="M62.798,8.087v5.479c0.013-0.001,0.026-0.002,0.039-0.004V8.082C62.824,8.083,62.811,8.086,62.798,8.087z"
			/>
		<path fill="#356546" d="M62.837,8.082v5.479c0.017-0.001,0.034-0.003,0.052-0.005v-5.48C62.871,8.077,62.854,8.081,62.837,8.082z"
			/>
		<path fill="#356546" d="M62.889,8.076v5.479c0.015,0,0.029-0.002,0.046-0.004V8.07C62.918,8.072,62.903,8.074,62.889,8.076z"/>
		<path fill="#356546" d="M62.935,8.07v5.481c0.017-0.001,0.031-0.003,0.048-0.005V8.065C62.966,8.066,62.95,8.069,62.935,8.07z"/>
		<path fill="#376546" d="M62.981,8.065v5.482c0.019-0.002,0.034-0.004,0.053-0.005V8.059C63.017,8.06,63,8.063,62.981,8.065z"/>
		<path fill="#366647" d="M63.035,8.059v5.483c0.014-0.001,0.024-0.003,0.039-0.004V8.055C63.06,8.055,63.049,8.058,63.035,8.059z"
			/>
		<path fill="#376746" d="M63.073,8.055v5.483c0.019-0.001,0.034-0.003,0.053-0.005v-5.48C63.108,8.054,63.091,8.054,63.073,8.055z"
			/>
		<path fill="#376746" d="M63.126,8.053v5.48c0.014-0.001,0.026-0.001,0.04-0.003V8.051C63.152,8.052,63.14,8.051,63.126,8.053z"/>
		<path fill="#376747" d="M63.166,8.051v5.479c0.016-0.001,0.035-0.003,0.052-0.005V8.049C63.201,8.05,63.182,8.05,63.166,8.051z"/>
		<path fill="#386747" d="M63.218,8.049v5.476c0.016,0,0.032-0.002,0.049-0.003V8.048C63.25,8.049,63.234,8.049,63.218,8.049z"/>
		<path fill="#386847" d="M63.267,8.048v5.474c0.015-0.001,0.029-0.002,0.044-0.003V8.046C63.296,8.047,63.281,8.047,63.267,8.048z"
			/>
		<path fill="#386947" d="M63.311,8.046v5.472c0.016-0.001,0.029-0.002,0.044-0.004v-5.47C63.34,8.045,63.325,8.045,63.311,8.046z"
			/>
		<path fill="#396947" d="M63.354,8.044v5.47c0.017-0.001,0.034-0.002,0.052-0.004V8.042C63.389,8.044,63.371,8.044,63.354,8.044z"
			/>
		<path fill="#396947" d="M63.406,8.042v5.468c0.015-0.001,0.029-0.003,0.044-0.004V8.041C63.436,8.041,63.421,8.041,63.406,8.042z"
			/>
		<path fill="#396947" d="M63.45,8.041v5.465c0.017,0,0.033-0.002,0.048-0.003V8.04C63.483,8.04,63.466,8.04,63.45,8.041z"/>
		<path fill="#3A6947" d="M63.498,8.04v5.463c0.016-0.001,0.032-0.002,0.049-0.004V8.038C63.53,8.038,63.514,8.039,63.498,8.04z"/>
		<path fill="#3A6A47" d="M63.547,8.038v5.461c0.016-0.001,0.031-0.003,0.049-0.004V8.036C63.579,8.036,63.562,8.037,63.547,8.038z"
			/>
		<path fill="#3B6B47" d="M63.594,8.036v5.459c0.013-0.001,0.022-0.002,0.036-0.003V8.036C63.618,8.036,63.605,8.036,63.594,8.036z"
			/>
		<path fill="#3A6B47" d="M63.63,8.036v5.456c0.016-0.001,0.03-0.003,0.048-0.004V8.034C63.662,8.034,63.646,8.035,63.63,8.036z"/>
		<path fill="#3B6B48" d="M63.678,8.034v5.454c0.017-0.001,0.031-0.002,0.05-0.004V8.032C63.71,8.032,63.694,8.033,63.678,8.034z"/>
		<path fill="#3B6B48" d="M63.728,8.032v5.452c0.016-0.001,0.03-0.002,0.047-0.003V8.03C63.758,8.031,63.742,8.031,63.728,8.032z"/>
		<path fill="#3C6C48" d="M63.772,8.03v5.45c0.016-0.001,0.029-0.002,0.045-0.003V8.029C63.802,8.03,63.788,8.03,63.772,8.03z"/>
		<path fill="#3C6C48" d="M63.817,8.029v5.448c0.018-0.001,0.036-0.002,0.053-0.003V8.027C63.853,8.028,63.836,8.028,63.817,8.029z"
			/>
		<path fill="#3B6D48" d="M63.87,8.027v5.447c0.015,0,0.029-0.001,0.044-0.002V8.025C63.899,8.026,63.885,8.026,63.87,8.027z"/>
		<path fill="#3D6D48" d="M63.913,8.025v5.446c0.014-0.001,0.027-0.002,0.041-0.003V8.024C63.94,8.024,63.928,8.025,63.913,8.025z"
			/>
		<path fill="#3D6D48" d="M63.954,8.024v5.445c0.018-0.001,0.035-0.001,0.053-0.002V8.022C63.989,8.022,63.972,8.023,63.954,8.024z"
			/>
		<path fill="#3D6D48" d="M64.007,8.022v5.444c0.015-0.001,0.028-0.002,0.044-0.003V8.021C64.035,8.021,64.021,8.022,64.007,8.022z"
			/>
		<path fill="#3E6E48" d="M64.05,8.021v5.442c0.019,0,0.037-0.001,0.057-0.003V8.019C64.087,8.02,64.069,8.021,64.05,8.021z"/>
		<path fill="#3E6F49" d="M64.106,8.019v5.441c0.013,0,0.023-0.001,0.036-0.001V8.018C64.13,8.018,64.118,8.019,64.106,8.019z"/>
		<path fill="#3E6F49" d="M64.143,8.018v5.441c0.018-0.001,0.035-0.003,0.053-0.004V8.017C64.177,8.018,64.16,8.018,64.143,8.018z"
			/>
		<path fill="#3E6F49" d="M64.194,8.017v5.439c0.013,0,0.022-0.001,0.036-0.002V8.016C64.219,8.016,64.207,8.017,64.194,8.017z"/>
		<path fill="#3E6F49" d="M64.23,8.016v5.438c0.016-0.001,0.03-0.002,0.047-0.003V8.014C64.261,8.014,64.246,8.016,64.23,8.016z"/>
		<path fill="#3F7149" d="M64.277,8.014v5.437c0.015,0,0.029-0.001,0.044-0.002V8.012C64.307,8.013,64.292,8.014,64.277,8.014z"/>
		<path fill="#3F7149" d="M64.321,8.012v5.437c0.018-0.001,0.036-0.002,0.053-0.003V8.011C64.357,8.011,64.339,8.012,64.321,8.012z"
			/>
		<path fill="#407149" d="M64.374,8.011v5.435c0.018-0.001,0.032-0.002,0.048-0.003V8.009C64.406,8.009,64.392,8.011,64.374,8.011z"
			/>
		<path fill="#417249" d="M64.422,8.009v5.434c0.019-0.001,0.036-0.002,0.053-0.003V8.007C64.458,8.007,64.44,8.009,64.422,8.009z"
			/>
		<path fill="#407249" d="M64.475,8.007v5.432c0.015-0.001,0.025-0.001,0.039-0.001V8.006C64.5,8.006,64.489,8.007,64.475,8.007z"/>
		<path fill="#417349" d="M64.514,8.006v5.432c0.016,0,0.034,0,0.05-0.001V8.004C64.546,8.004,64.531,8.005,64.514,8.006z"/>
		<path fill="#417349" d="M64.563,8.004v5.433c0.016-0.001,0.031-0.001,0.048-0.002V8.003C64.595,8.003,64.579,8.004,64.563,8.004z"
			/>
		<path fill="#417349" d="M64.61,8.003v5.432c0.017,0,0.031-0.001,0.049-0.001V8.001C64.642,8.001,64.627,8.003,64.61,8.003z"/>
		<path fill="#437449" d="M64.681,8c-0.008,0-0.015,0.001-0.021,0.001v5.432c0.016,0,0.029,0,0.045-0.001V8H64.681z"/>
		<path fill="#417449" d="M64.704,8v5.432c0.017,0,0.034-0.001,0.052-0.002V8H64.704z"/>
		<path fill="#437549" d="M64.769,8h-0.013v5.43c0.015,0,0.028-0.001,0.043-0.001V8.001C64.788,8.001,64.778,8,64.769,8z"/>
		<path fill="#447549" d="M64.799,8.001v5.428c0.019-0.001,0.038-0.001,0.057-0.002V8.003C64.837,8.003,64.818,8.001,64.799,8.001z"
			/>
		<path fill="#44764A" d="M64.855,8.003v5.424c0.014,0,0.027,0,0.04-0.001V8.004C64.881,8.004,64.87,8.003,64.855,8.003z"/>
		<path fill="#44764A" d="M64.896,8.004v5.422c0.017,0,0.032-0.001,0.049-0.001v-5.42C64.928,8.004,64.912,8.004,64.896,8.004z"/>
		<path fill="#44764A" d="M64.944,8.005v5.419c0.014,0,0.025-0.001,0.039-0.001V8.006C64.97,8.006,64.956,8.005,64.944,8.005z"/>
		<path fill="#44774A" d="M64.982,8.006v5.417c0.018-0.001,0.035-0.001,0.053-0.002V8.008C65.018,8.007,65.001,8.006,64.982,8.006z"
			/>
		<path fill="#46774A" d="M65.036,8.008v5.413c0.013,0,0.025-0.001,0.039-0.001V8.009C65.062,8.009,65.049,8.008,65.036,8.008z"/>
		<path fill="#46784A" d="M65.075,8.009v5.411c0.018,0,0.034-0.001,0.052-0.001V8.011C65.109,8.01,65.093,8.009,65.075,8.009z"/>
		<path fill="#46784A" d="M65.127,8.011v5.408c0.014,0,0.026-0.001,0.04-0.001V8.012C65.154,8.012,65.141,8.011,65.127,8.011z"/>
		<path fill="#46784A" d="M65.167,8.012v5.405c0.015,0,0.028-0.001,0.044-0.002V8.012C65.195,8.012,65.182,8.012,65.167,8.012z"/>
		<path fill="#47794A" d="M65.211,8.012v5.403c0.019,0,0.037-0.001,0.056-0.001v-5.4C65.249,8.014,65.229,8.013,65.211,8.012z"/>
		<path fill="#47794A" d="M65.267,8.014v5.4c0.017,0,0.033,0,0.049,0V8.016C65.3,8.015,65.284,8.015,65.267,8.014z"/>
		<path fill="#477A4A" d="M65.315,8.016v5.398c0.015,0,0.029,0,0.044,0V8.017C65.345,8.017,65.33,8.016,65.315,8.016z"/>
		<path fill="#477A4A" d="M65.359,8.017v5.397c0.016,0,0.029,0,0.044,0V8.018C65.389,8.018,65.374,8.018,65.359,8.017z"/>
		<path fill="#477A4A" d="M65.403,8.018v5.396c0.017,0,0.033,0,0.048,0V8.019C65.437,8.018,65.42,8.018,65.403,8.018z"/>
		<path fill="#497B4B" d="M65.451,8.019v5.396c0.015,0,0.025,0,0.039,0V8.02C65.477,8.02,65.466,8.019,65.451,8.019z"/>
		<path fill="#497A4A" d="M65.49,8.02v5.394c0.018,0,0.035,0,0.054,0V8.021C65.526,8.021,65.508,8.021,65.49,8.02z"/>
		<path fill="#497B4B" d="M65.544,8.021v5.393c0.015,0,0.029,0,0.044,0V8.022C65.573,8.022,65.559,8.022,65.544,8.021z"/>
		<path fill="#4A7C4B" d="M65.588,8.022v5.391c0.016,0,0.031,0,0.047,0v-5.39C65.619,8.022,65.604,8.022,65.588,8.022z"/>
		<path fill="#4A7C4B" d="M65.635,8.023v5.391c0.015,0,0.029,0,0.044,0v-5.39C65.664,8.024,65.649,8.024,65.635,8.023z"/>
		<path fill="#4B7D4B" d="M65.679,8.024v5.389c0.017,0,0.032,0,0.049,0V8.026C65.711,8.025,65.695,8.025,65.679,8.024z"/>
		<path fill="#4C7D4B" d="M65.728,8.026v5.387c0.015,0,0.029,0,0.044,0V8.028C65.757,8.027,65.742,8.027,65.728,8.026z"/>
		<path fill="#4B7E4B" d="M65.771,8.028v5.386c0.017,0,0.031,0,0.049,0V8.031C65.803,8.03,65.788,8.029,65.771,8.028z"/>
		<path fill="#4C7E4B" d="M65.818,8.031v5.382c0.014,0,0.026,0,0.039,0V8.034C65.847,8.033,65.832,8.031,65.818,8.031z"/>
		<path fill="#4C7E4B" d="M65.857,8.034v5.379c0.019,0,0.036,0,0.053,0V8.037C65.894,8.036,65.877,8.035,65.857,8.034z"/>
		<path fill="#4C7E4B" d="M65.911,8.037v5.376c0.015,0,0.029,0,0.044,0V8.04C65.94,8.039,65.926,8.038,65.911,8.037z"/>
		<path fill="#4C7E4B" d="M65.955,8.04v5.373c0.019,0,0.038,0,0.056,0V8.044C65.993,8.044,65.975,8.041,65.955,8.04z"/>
		<path fill="#4D804B" d="M66.012,8.044v5.369c0.014,0,0.025,0,0.04,0V8.047C66.037,8.046,66.023,8.045,66.012,8.044z"/>
		<path fill="#4D804B" d="M66.052,8.047v5.366c0.006,0,0.011,0,0.018,0c0.011,0,0.02,0.001,0.029,0.001V8.05
			C66.083,8.049,66.066,8.049,66.052,8.047z"/>
		<path fill="#4E814B" d="M66.099,8.05v5.364c0.017,0,0.029,0,0.045,0.001V8.054C66.128,8.053,66.114,8.051,66.099,8.05z"/>
		<path fill="#4E814B" d="M66.144,8.054v5.362c0.017,0,0.031,0.001,0.048,0.002V8.056C66.175,8.055,66.16,8.055,66.144,8.054z"/>
		<path fill="#4F824B" d="M66.191,8.056v5.361c0.018,0,0.031,0.001,0.049,0.002V8.06C66.224,8.059,66.208,8.058,66.191,8.056z"/>
		<path fill="#4F824B" d="M66.24,8.06v5.359c0.017,0,0.031,0.001,0.047,0.002V8.063C66.271,8.062,66.256,8.061,66.24,8.06z"/>
		<path fill="#50834C" d="M66.287,8.063v5.358c0.015,0.001,0.029,0.001,0.044,0.002V8.066C66.316,8.065,66.302,8.064,66.287,8.063z"
			/>
		<path fill="#51824C" d="M66.331,8.066v5.356c0.016,0,0.029,0.001,0.044,0.002V8.069C66.36,8.067,66.346,8.067,66.331,8.066z"/>
		<path fill="#51844C" d="M66.375,8.069v5.356c0.015,0,0.029,0.001,0.044,0.001V8.072C66.404,8.07,66.39,8.07,66.375,8.069z"/>
		<path fill="#51844C" d="M66.419,8.072v5.354c0.019,0,0.035,0,0.053,0.001V8.075C66.454,8.074,66.438,8.072,66.419,8.072z"/>
		<path fill="#51844C" d="M66.472,8.075v5.353c0.017,0.001,0.032,0.001,0.05,0.002V8.079C66.504,8.078,66.487,8.077,66.472,8.075z"
			/>
		<path fill="#52854C" d="M66.521,8.079v5.351c0.015,0.001,0.029,0.001,0.044,0.002v-5.35C66.55,8.081,66.535,8.081,66.521,8.079z"
			/>
		<path fill="#52854C" d="M66.564,8.082v5.351c0.018,0,0.035,0,0.052,0.001V8.086C66.6,8.085,66.582,8.083,66.564,8.082z"/>
		<path fill="#53864C" d="M66.616,8.086v5.348c0.014,0,0.027,0.001,0.039,0.001V8.088C66.644,8.087,66.63,8.086,66.616,8.086z"/>
		<path fill="#53864C" d="M66.655,8.088v5.348c0.018,0.001,0.036,0.001,0.053,0.002V8.091C66.691,8.09,66.673,8.089,66.655,8.088z"
			/>
		<path fill="#53864C" d="M66.739,8.094c-0.011-0.001-0.021-0.001-0.031-0.002v5.346c0.014,0.001,0.03,0.001,0.045,0.002V8.095
			C66.748,8.095,66.743,8.094,66.739,8.094z"/>
		<path fill="#54874C" d="M66.753,8.095v5.344c0.014,0.001,0.029,0.001,0.044,0.002V8.099C66.782,8.097,66.766,8.096,66.753,8.095z"
			/>
		<path fill="#54874C" d="M66.795,8.099v5.343c0.019,0.001,0.036,0.002,0.053,0.003V8.104C66.831,8.102,66.813,8.1,66.795,8.099z"/>
		<path fill="#54874C" d="M66.848,8.104v5.341c0.016,0.001,0.029,0.001,0.045,0.003V8.106C66.878,8.105,66.862,8.104,66.848,8.104z"
			/>
		<path fill="#55874C" d="M66.893,8.106v5.34c0.017,0.001,0.031,0.002,0.048,0.004V8.11C66.926,8.109,66.908,8.108,66.893,8.106z"/>
		<path fill="#55884B" d="M66.94,8.11v5.34c0.018,0,0.034,0.002,0.052,0.003V8.116C66.975,8.114,66.958,8.112,66.94,8.11z"/>
		<path fill="#55884B" d="M66.994,8.116v5.338c0.012,0.001,0.021,0.002,0.034,0.002V8.118C67.017,8.117,67.004,8.117,66.994,8.116z"
			/>
		<path fill="#56894B" d="M67.028,8.118v5.338c0.018,0.002,0.034,0.003,0.053,0.005V8.123C67.063,8.122,67.046,8.12,67.028,8.118z"
			/>
		<path fill="#56894B" d="M67.08,8.123v5.338c0.015,0.001,0.026,0.002,0.041,0.003V8.127C67.106,8.125,67.095,8.124,67.08,8.123z"/>
		<path fill="#568A4B" d="M67.121,8.127v5.337c0.018,0,0.037,0.002,0.055,0.003V8.131C67.157,8.129,67.141,8.128,67.121,8.127z"/>
		<path fill="#578A4C" d="M67.176,8.131v5.336c0.011,0.001,0.021,0.002,0.031,0.002V8.135C67.197,8.133,67.188,8.133,67.176,8.131z"
			/>
		<path fill="#578B4B" d="M67.207,8.135v5.335c0.021,0.002,0.042,0.003,0.062,0.005V8.141C67.248,8.139,67.229,8.136,67.207,8.135z"
			/>
		<path fill="#598C4B" d="M67.271,8.141v5.334c0.014,0,0.028,0.001,0.042,0.002V8.146C67.299,8.144,67.283,8.142,67.271,8.141z"/>
		<path fill="#598C4B" d="M67.313,8.146v5.331c0.014,0.001,0.029,0.002,0.043,0.004V8.15C67.342,8.149,67.326,8.146,67.313,8.146z"
			/>
		<path fill="#598D4C" d="M67.355,8.15v5.33c0.016,0.001,0.034,0.002,0.05,0.003V8.155C67.389,8.154,67.373,8.152,67.355,8.15z"/>
		<path fill="#5A8E4C" d="M67.405,8.155v5.328c0.015,0.002,0.032,0.003,0.048,0.004V8.16C67.437,8.159,67.42,8.157,67.405,8.155z"/>
		<path fill="#5A8E4C" d="M67.453,8.16v5.327c0.014,0,0.029,0.001,0.044,0.003V8.165C67.482,8.164,67.468,8.162,67.453,8.16z"/>
		<path fill="#5A8E4C" d="M67.497,8.165v5.325c0.018,0.002,0.034,0.004,0.052,0.005V8.172C67.531,8.17,67.515,8.168,67.497,8.165z"
			/>
		<path fill="#5A8E4C" d="M67.549,8.172v5.323c0.015,0.001,0.026,0.004,0.041,0.005V8.176C67.575,8.175,67.562,8.173,67.549,8.172z"
			/>
		<path fill="#5A8E4C" d="M67.588,8.176V13.5c0.017,0.001,0.029,0.003,0.045,0.005V8.181C67.619,8.179,67.604,8.178,67.588,8.176z"
			/>
		<path fill="#5B8F4C" d="M67.633,8.181v5.324c0.016,0.001,0.028,0.003,0.044,0.005V8.187C67.661,8.185,67.648,8.183,67.633,8.181z"
			/>
		<path fill="#5B8F4C" d="M67.677,8.187v5.323c0.019,0.002,0.037,0.004,0.056,0.006V8.191C67.713,8.19,67.695,8.188,67.677,8.187z"
			/>
		<path fill="#5B8F4C" d="M67.732,8.192v5.324c0.013,0.001,0.023,0.003,0.036,0.004V8.196C67.757,8.194,67.745,8.193,67.732,8.192z"
			/>
		<path fill="#5C904C" d="M67.769,8.196v5.323c0.017,0.002,0.031,0.004,0.047,0.005V8.202C67.8,8.201,67.784,8.198,67.769,8.196z"/>
		<path fill="#5C914C" d="M67.815,8.202v5.323c0.02,0.002,0.039,0.005,0.058,0.007V8.211C67.854,8.209,67.834,8.205,67.815,8.202z"
			/>
		<path fill="#5D914C" d="M67.873,8.211v5.321c0.012,0.001,0.024,0.003,0.035,0.004v-5.32C67.897,8.215,67.885,8.213,67.873,8.211z"
			/>
		<path fill="#5E924C" d="M67.908,8.216v5.32c0.016,0.002,0.033,0.003,0.049,0.005V8.223C67.939,8.222,67.925,8.218,67.908,8.216z"
			/>
		<path fill="#5E924C" d="M67.957,8.223v5.318c0.014,0.002,0.029,0.003,0.043,0.005V8.229C67.985,8.228,67.971,8.226,67.957,8.223z"
			/>
		<path fill="#5E924C" d="M68,8.229v5.317c0.019,0.003,0.04,0.005,0.058,0.007V8.237C68.039,8.234,68.02,8.231,68,8.229z"/>
		<path fill="#5F934C" d="M68.058,8.237v5.315c0.014,0.002,0.03,0.003,0.045,0.005V8.244C68.087,8.241,68.073,8.24,68.058,8.237z"/>
		<path fill="#5F934C" d="M68.103,8.244v5.313c0.016,0.002,0.03,0.004,0.047,0.007V8.25C68.133,8.248,68.117,8.246,68.103,8.244z"/>
		<path fill="#5F934C" d="M68.147,8.25v5.314c0.019,0.002,0.033,0.005,0.05,0.007V8.258C68.181,8.255,68.165,8.252,68.147,8.25z"/>
		<path fill="#60944C" d="M68.197,8.258v5.314c0.018,0.002,0.032,0.005,0.048,0.008V8.265C68.229,8.262,68.213,8.26,68.197,8.258z"
			/>
		<path fill="#61954B" d="M68.245,8.265v5.315c0.017,0.002,0.029,0.005,0.044,0.008V8.271C68.274,8.268,68.26,8.266,68.245,8.265z"
			/>
		<path fill="#60954C" d="M68.289,8.271v5.316c0.018,0.002,0.034,0.005,0.053,0.008V8.278C68.323,8.275,68.308,8.272,68.289,8.271z"
			/>
		<path fill="#62964B" d="M68.342,8.278v5.316c0.011,0.002,0.023,0.004,0.035,0.006V8.283C68.365,8.282,68.353,8.28,68.342,8.278z"
			/>
		<path fill="#62964B" d="M68.377,8.283v5.317c0.017,0.003,0.032,0.006,0.048,0.008V8.293C68.408,8.291,68.392,8.287,68.377,8.283z"
			/>
		<path fill="#63974B" d="M68.425,8.293v5.315c0.015,0.003,0.029,0.004,0.044,0.007V8.301C68.454,8.298,68.439,8.296,68.425,8.293z"
			/>
		<path fill="#64974B" d="M68.469,8.301v5.314c0.018,0.004,0.036,0.006,0.054,0.009V8.31C68.504,8.308,68.486,8.303,68.469,8.301z"
			/>
		<path fill="#63984B" d="M68.522,8.31v5.314c0.016,0.002,0.032,0.005,0.048,0.007V8.318C68.555,8.315,68.537,8.313,68.522,8.31z"/>
		<path fill="#64984C" d="M68.569,8.318v5.313c0.016,0.003,0.032,0.005,0.048,0.008V8.327C68.601,8.324,68.586,8.32,68.569,8.318z"
			/>
		<path fill="#64994C" d="M68.617,8.327v5.312c0.014,0.003,0.027,0.005,0.04,0.008V8.334C68.645,8.332,68.63,8.329,68.617,8.327z"/>
		<path fill="#64994C" d="M68.657,8.334v5.313c0.022,0.004,0.041,0.009,0.062,0.014V8.346C68.698,8.341,68.678,8.338,68.657,8.334z"
			/>
		<path fill="#649A4D" d="M68.719,8.346v5.314c0.01,0.001,0.017,0.004,0.026,0.006V8.35C68.735,8.348,68.728,8.347,68.719,8.346z"/>
		<path fill="#659B4C" d="M68.745,8.35v5.316c0.02,0.003,0.037,0.009,0.056,0.013V8.36C68.782,8.356,68.765,8.353,68.745,8.35z"/>
		<path fill="#659B4C" d="M68.802,8.36v5.318c0.018,0.003,0.034,0.007,0.053,0.012V8.369C68.836,8.365,68.819,8.363,68.802,8.36z"/>
		<path fill="#679B4C" d="M68.854,8.369v5.321c0.013,0.003,0.026,0.006,0.04,0.008V8.376C68.881,8.373,68.867,8.371,68.854,8.369z"
			/>
		<path fill="#679C4C" d="M68.895,8.376v5.322c0.015,0.004,0.029,0.008,0.044,0.011V8.385C68.924,8.383,68.908,8.379,68.895,8.376z"
			/>
		<path fill="#679C4D" d="M68.938,8.385v5.324c0.018,0.003,0.036,0.008,0.053,0.011V8.397C68.973,8.393,68.955,8.389,68.938,8.385z"
			/>
		<path fill="#689E4C" d="M68.99,8.397v5.322c0.016,0.004,0.033,0.007,0.048,0.011V8.407C69.021,8.404,69.007,8.4,68.99,8.397z"/>
		<path fill="#689E4C" d="M69.038,8.407v5.323c0.017,0.003,0.034,0.006,0.049,0.011V8.418C69.07,8.415,69.055,8.41,69.038,8.407z"/>
		<path fill="#699E4C" d="M69.087,8.418v5.323c0.014,0.003,0.024,0.007,0.039,0.011V8.426C69.113,8.424,69.1,8.421,69.087,8.418z"/>
		<path fill="#6A9F4C" d="M69.126,8.426v5.326c0.018,0.005,0.034,0.011,0.052,0.016V8.438C69.161,8.435,69.144,8.431,69.126,8.426z"
			/>
		<path fill="#6BA04D" d="M69.178,8.438v5.329c0.015,0.004,0.026,0.008,0.039,0.013V8.447C69.204,8.444,69.191,8.44,69.178,8.438z"
			/>
		<path fill="#6A9F4C" d="M69.217,8.446v5.333c0.015,0.003,0.026,0.007,0.041,0.012V8.456C69.244,8.452,69.23,8.45,69.217,8.446z"/>
		<path fill="#6BA04B" d="M69.256,8.456v5.335c0.02,0.007,0.039,0.013,0.058,0.019V8.469C69.295,8.463,69.275,8.46,69.256,8.456z"/>
		<path fill="#6BA04B" d="M69.314,8.469v5.34c0.015,0.004,0.029,0.009,0.044,0.013V8.478C69.344,8.475,69.328,8.472,69.314,8.469z"
			/>
		<path fill="#6CA14C" d="M69.357,8.478v5.344c0.015,0.004,0.029,0.009,0.044,0.013V8.488C69.387,8.483,69.373,8.481,69.357,8.478z"
			/>
		<path fill="#6CA14C" d="M69.401,8.488v5.346c0.016,0.006,0.036,0.01,0.052,0.016V8.499C69.437,8.494,69.419,8.492,69.401,8.488z"
			/>
		<path fill="#6CA24B" d="M69.455,8.499v5.351c0.013,0.004,0.025,0.01,0.039,0.015V8.508C69.48,8.505,69.466,8.503,69.455,8.499z"/>
		<path fill="#6DA24C" d="M69.494,8.508v5.356c0.018,0.006,0.03,0.014,0.049,0.02V8.521C69.526,8.518,69.51,8.513,69.494,8.508z"/>
		<path fill="#6DA34B" d="M69.542,8.521v5.362c0.019,0.007,0.034,0.014,0.053,0.021V8.536C69.576,8.531,69.561,8.526,69.542,8.521z"
			/>
		<path fill="#6DA44C" d="M69.595,8.536v5.368c0.015,0.006,0.028,0.013,0.044,0.019V8.548C69.623,8.545,69.607,8.54,69.595,8.536z"
			/>
		<path fill="#6EA44B" d="M69.637,8.548v5.375c0.014,0.005,0.028,0.01,0.039,0.016v-5.38C69.665,8.556,69.65,8.551,69.637,8.548z"/>
		<path fill="#6FA44B" d="M69.676,8.559v5.38c0.019,0.007,0.038,0.015,0.053,0.021V8.574C69.712,8.568,69.695,8.563,69.676,8.559z"
			/>
		<path fill="#70A64A" d="M69.729,8.574v5.385c0.019,0.008,0.038,0.016,0.054,0.023V8.588C69.766,8.583,69.748,8.579,69.729,8.574z"
			/>
		<path fill="#70A64A" d="M69.783,8.588v5.395c0.014,0.006,0.021,0.013,0.034,0.02V8.598C69.807,8.595,69.795,8.592,69.783,8.588z"
			/>
		<path fill="#70A64C" d="M69.817,8.598v5.404c0.021,0.01,0.038,0.021,0.058,0.031v-5.42C69.855,8.608,69.837,8.604,69.817,8.598z"
			/>
		<path fill="#71A74B" d="M69.875,8.613v5.42c0.014,0.008,0.025,0.016,0.039,0.022V8.624C69.9,8.62,69.888,8.617,69.875,8.613z"/>
		<path fill="#71A74B" d="M69.914,8.624v5.433c0.017,0.01,0.035,0.02,0.052,0.029V8.639C69.949,8.634,69.931,8.63,69.914,8.624z"/>
		<path fill="#72A84A" d="M69.967,8.639v5.447c0.011,0.007,0.023,0.014,0.035,0.02V8.649C69.99,8.646,69.979,8.643,69.967,8.639z"/>
		<path fill="#73A94B" d="M70.002,8.649v5.457c0.004,0.002,0.01,0.005,0.013,0.008c0.018,0.011,0.027,0.024,0.044,0.036V8.666
			C70.04,8.66,70.02,8.654,70.002,8.649z"/>
		<path fill="#73A94B" d="M70.059,8.666v5.484c0.017,0.012,0.029,0.024,0.044,0.036V8.682C70.086,8.677,70.074,8.67,70.059,8.666z"
			/>
		<path fill="#74A94B" d="M70.103,8.682v5.505c0.018,0.015,0.037,0.028,0.052,0.044V8.7C70.138,8.693,70.12,8.687,70.103,8.682z"/>
		<path fill="#74AA4B" d="M70.156,8.7v5.529c0.012,0.013,0.027,0.023,0.039,0.036V8.713C70.182,8.709,70.168,8.704,70.156,8.7z"/>
		<path fill="#73AB4A" d="M70.193,8.713v5.554c0.021,0.023,0.036,0.05,0.053,0.074V8.731C70.228,8.726,70.213,8.719,70.193,8.713z"
			/>
		<path fill="#73AB4A" d="M70.246,8.731v5.609c0.015,0.019,0.029,0.037,0.04,0.058V8.745C70.273,8.741,70.261,8.736,70.246,8.731z"
			/>
		<path fill="#75AB4B" d="M70.286,8.745v5.653c0.024,0.042,0.043,0.086,0.058,0.13V8.766C70.325,8.759,70.305,8.752,70.286,8.745z"
			/>
		<path fill="#75AB4B" d="M70.322,15.33c0.007-0.013,0.015-0.029,0.021-0.042v-0.026C70.335,15.287,70.329,15.312,70.322,15.33z"/>
		<path fill="#76AD4C" d="M70.344,15.262v0.026c0.013-0.022,0.025-0.05,0.039-0.074v-0.123
			C70.371,15.158,70.358,15.215,70.344,15.262z"/>
		<path fill="#76AD4C" d="M70.344,8.766v5.763c0.018,0.049,0.03,0.096,0.039,0.146V8.779C70.369,8.774,70.356,8.771,70.344,8.766z"
			/>
		<path fill="#76AD4C" d="M70.383,15.214c0.018-0.031,0.035-0.064,0.052-0.1V8.798c-0.017-0.007-0.036-0.013-0.052-0.019v5.895
			c0.025,0.148,0.02,0.296,0,0.416V15.214z"/>
		<path fill="#77AE4B" d="M70.471,15.049V8.811c-0.013-0.005-0.023-0.009-0.036-0.013v6.316
			C70.447,15.092,70.458,15.072,70.471,15.049z"/>
		<path fill="#77AE4B" d="M70.522,14.947V8.828c-0.018-0.007-0.035-0.012-0.052-0.018v6.238
			C70.487,15.015,70.505,14.982,70.522,14.947z"/>
		<path fill="#76AE4C" d="M70.566,14.859V8.844c-0.014-0.006-0.029-0.01-0.044-0.016v6.118
			C70.537,14.921,70.552,14.889,70.566,14.859z"/>
		<path fill="#77AF4C" d="M70.607,14.78V8.861c-0.015-0.005-0.026-0.013-0.041-0.018v6.016
			C70.579,14.835,70.594,14.808,70.607,14.78z"/>
		<path fill="#77AF4C" d="M70.662,14.669V8.888c-0.02-0.008-0.036-0.019-0.055-0.026v5.919
			C70.625,14.743,70.643,14.708,70.662,14.669z"/>
		<path fill="#79B04C" d="M70.706,14.58V8.907c-0.015-0.007-0.027-0.014-0.044-0.02v5.781C70.677,14.639,70.691,14.611,70.706,14.58
			z"/>
		<path fill="#79B04C" d="M70.75,14.488V8.927c-0.016-0.007-0.029-0.014-0.044-0.02v5.673C70.721,14.552,70.735,14.519,70.75,14.488
			z"/>
		<path fill="#7AB24C" d="M70.794,14.397V8.948c-0.015-0.008-0.029-0.014-0.044-0.021v5.562
			C70.765,14.459,70.779,14.428,70.794,14.397z"/>
		<path fill="#7BB34C" d="M70.852,14.277V8.973c-0.02-0.009-0.039-0.018-0.058-0.025v5.449
			C70.813,14.357,70.832,14.318,70.852,14.277z"/>
		<path fill="#7BB34C" d="M70.896,14.186V8.993c-0.015-0.007-0.029-0.014-0.044-0.02v5.305
			C70.866,14.246,70.881,14.218,70.896,14.186z"/>
		<path fill="#7DB64D" d="M70.935,14.102V9.01c-0.014-0.006-0.026-0.012-0.039-0.017v5.191
			C70.908,14.157,70.921,14.131,70.935,14.102z"/>
		<path fill="#7DB64D" d="M70.988,13.985v-4.95c-0.019-0.008-0.036-0.016-0.053-0.024v5.092
			C70.952,14.064,70.969,14.024,70.988,13.985z"/>
		<path fill="#7DB64D" d="M71.039,13.87V9.059c-0.017-0.009-0.035-0.016-0.053-0.023v4.95C71.004,13.946,71.022,13.909,71.039,13.87
			z"/>
		<path fill="#7DB64D" d="M71.083,13.772V9.087c-0.013-0.008-0.036-0.023-0.044-0.028v4.813
			C71.055,13.837,71.068,13.806,71.083,13.772z"/>
		<path fill="#7DB64D" d="M71.131,13.667V9.116c-0.019-0.012-0.034-0.021-0.049-0.03v4.687
			C71.099,13.736,71.115,13.703,71.131,13.667z"/>
		<path fill="#7DB64D" d="M71.18,13.553V9.148c-0.021-0.016-0.03-0.021-0.049-0.032v4.551C71.147,13.629,71.164,13.591,71.18,13.553
			z"/>
		<path fill="#7DB64D" d="M71.224,13.449V9.187c-0.014-0.011-0.03-0.028-0.044-0.038v4.404
			C71.194,13.519,71.209,13.483,71.224,13.449z"/>
		<path fill="#7DB64D" d="M71.26,13.365V9.217c-0.012-0.009-0.024-0.021-0.036-0.03v4.263C71.235,13.421,71.248,13.395,71.26,13.365
			z"/>
		<path fill="#7DB64D" d="M71.32,13.222V9.269c-0.021-0.019-0.041-0.036-0.061-0.053v4.148
			C71.279,13.317,71.301,13.271,71.32,13.222z"/>
		<path fill="#7DB64D" d="M71.359,13.129V9.303c-0.015-0.014-0.024-0.021-0.039-0.033v3.952
			C71.333,13.189,71.347,13.159,71.359,13.129z"/>
		<path fill="#7DB64D" d="M71.398,13.028V9.339c-0.014-0.014-0.024-0.023-0.039-0.037v3.827
			C71.372,13.095,71.385,13.062,71.398,13.028z"/>
		<path fill="#7DB64D" d="M71.452,12.888V9.404c-0.019-0.02-0.036-0.047-0.054-0.065v3.689
			C71.417,12.98,71.434,12.936,71.452,12.888z"/>
		<path fill="#7DB64D" d="M71.499,12.766V9.461c-0.017-0.019-0.031-0.04-0.047-0.057v3.483
			C71.468,12.848,71.482,12.806,71.499,12.766z"/>
		<path fill="#7DB64D" d="M71.538,12.664V9.508c-0.013-0.017-0.026-0.031-0.039-0.047v3.305
			C71.512,12.731,71.525,12.697,71.538,12.664z"/>
		<path fill="#7DB64D" d="M71.596,12.5V9.578c-0.019-0.026-0.038-0.046-0.058-0.07v3.156C71.559,12.607,71.577,12.555,71.596,12.5z"
			/>
		<path fill="#7DB64D" d="M71.635,12.383V9.631c-0.014-0.019-0.025-0.035-0.039-0.053V12.5
			C71.609,12.46,71.621,12.423,71.635,12.383z"/>
		<path fill="#7DB64D" d="M71.685,12.238V9.725c-0.018-0.028-0.031-0.065-0.05-0.093v2.752
			C71.65,12.336,71.668,12.285,71.685,12.238z"/>
		<path fill="#7DB64D" d="M71.722,12.119v-2.32c-0.013-0.024-0.024-0.052-0.039-0.074v2.514
			C71.696,12.198,71.712,12.157,71.722,12.119z"/>
		<path fill="#7DB64D" d="M71.78,11.905V9.907c-0.018-0.038-0.038-0.073-0.057-0.108v2.32C71.746,12.044,71.761,11.977,71.78,11.905
			z"/>
		<path fill="#7DB64D" d="M71.819,11.759V9.982c-0.012-0.028-0.027-0.049-0.039-0.074v1.998
			C71.792,11.856,71.809,11.806,71.819,11.759z"/>
		<path fill="#7DB64D" d="M71.836,11.695c0.018-0.071,0.026-0.133,0.04-0.198v-1.361c-0.018-0.055-0.034-0.1-0.043-0.128
			c-0.005-0.01-0.01-0.017-0.015-0.025v1.776C71.823,11.739,71.831,11.714,71.836,11.695z"/>
		<path fill="#7DB64D" d="M71.915,11.294v-1.009c-0.013-0.059-0.025-0.108-0.039-0.149v1.361
			C71.89,11.429,71.905,11.357,71.915,11.294z"/>
		<path fill="#7DB64D" d="M71.915,10.285v1.009C71.99,10.814,71.96,10.493,71.915,10.285z"/>
	</g>
	<g>
		<path fill="#FBFEFF" d="M56.198,10.394c0,0-0.094,0.096-0.21,0.271l0.224-0.283C56.206,10.387,56.201,10.391,56.198,10.394z"/>
		<path fill="#FBFEFF" d="M56.613,10.032c-0.16,0.126-0.3,0.247-0.401,0.35l-0.224,0.283c-0.078,0.119-0.166,0.278-0.243,0.469
			L56.613,10.032z"/>
		<path fill="#FBFEFF" d="M55.653,11.405l1.243-1.582c-0.106,0.072-0.198,0.142-0.285,0.21l-0.866,1.103
			C55.711,11.219,55.681,11.309,55.653,11.405z"/>
		<path fill="#FBFEFF" d="M55.61,11.616l1.539-1.957c-0.089,0.055-0.175,0.109-0.253,0.163l-1.243,1.583
			C55.637,11.471,55.624,11.546,55.61,11.616z"/>
		<path fill="#FBFEFF" d="M55.584,11.81l1.792-2.284c-0.08,0.046-0.155,0.09-0.227,0.135l-1.539,1.957
			C55.601,11.68,55.59,11.743,55.584,11.81z"/>
		<path fill="#FBFEFF" d="M55.574,11.979l2.014-2.566c-0.071,0.038-0.145,0.075-0.212,0.112l-1.792,2.284
			C55.578,11.864,55.576,11.922,55.574,11.979z"/>
		<path fill="#FBFEFF" d="M55.568,12.116c0,0.005,0,0.009,0,0.014l2.212-2.816c-0.069,0.033-0.127,0.067-0.19,0.102l-2.016,2.566
			C55.573,12.026,55.566,12.068,55.568,12.116z"/>
		<path fill="#FBFEFF" d="M55.583,12.274L57.98,9.22c-0.067,0.031-0.137,0.062-0.2,0.092l-2.212,2.816
			C55.571,12.176,55.579,12.228,55.583,12.274z"/>
		<path fill="#F8FCFF" d="M55.597,12.413l2.569-3.271C58.105,9.168,58.04,9.194,57.98,9.22l-2.397,3.056
			C55.586,12.32,55.592,12.366,55.597,12.413z"/>
		<path fill="#F8FCFF" d="M55.608,12.545l2.729-3.478c-0.06,0.024-0.115,0.049-0.173,0.073l-2.569,3.271
			C55.603,12.457,55.604,12.5,55.608,12.545z"/>
		<path fill="#F7FCFD" d="M55.628,12.688l2.906-3.704c-0.072,0.026-0.128,0.056-0.196,0.083l-2.728,3.478
			C55.615,12.593,55.62,12.64,55.628,12.688z"/>
		<path fill="#F7FCFD" d="M55.647,12.799l3.036-3.865c-0.048,0.018-0.104,0.033-0.149,0.051l-2.906,3.704
			C55.633,12.725,55.643,12.763,55.647,12.799z"/>
		<path fill="#F5F8FA" d="M55.674,12.925l3.18-4.049c-0.055,0.02-0.118,0.038-0.17,0.058l-3.036,3.865
			C55.656,12.84,55.665,12.883,55.674,12.925z"/>
		<path fill="#F5F8FA" d="M55.698,13.056l3.32-4.235c-0.056,0.019-0.112,0.037-0.165,0.056l-3.18,4.049
			C55.682,12.969,55.689,13.011,55.698,13.056z"/>
		<path fill="#F0F7F7" d="M55.724,13.187l3.474-4.427c-0.063,0.02-0.118,0.039-0.179,0.06l-3.32,4.236
			C55.708,13.1,55.713,13.143,55.724,13.187z"/>
		<path fill="#F0F7F7" d="M55.749,13.29l3.602-4.581c-0.056,0.017-0.1,0.034-0.153,0.052l-3.475,4.427
			C55.73,13.222,55.74,13.256,55.749,13.29z"/>
		<path fill="#EEF5F5" d="M55.781,13.416l3.731-4.752c-0.053,0.016-0.11,0.028-0.162,0.044l-3.602,4.582
			C55.76,13.332,55.771,13.374,55.781,13.416z"/>
		<path fill="#EEF5F5" d="M55.813,13.532l3.854-4.906c-0.049,0.013-0.105,0.024-0.153,0.039l-3.731,4.752
			C55.792,13.455,55.802,13.494,55.813,13.532z"/>
		<path fill="#EEF5F5" d="M55.842,13.645l3.963-5.056c-0.046,0.012-0.093,0.024-0.139,0.035l-3.854,4.908
			C55.822,13.57,55.831,13.607,55.842,13.645z"/>
		<path fill="#EDF4F4" d="M55.874,13.772l4.099-5.226c-0.056,0.015-0.112,0.029-0.168,0.043l-3.963,5.055
			C55.853,13.688,55.861,13.73,55.874,13.772z"/>
		<path fill="#EDF4F4" d="M55.907,13.88l4.217-5.372c-0.053,0.013-0.1,0.025-0.151,0.038l-4.099,5.226
			C55.886,13.809,55.896,13.844,55.907,13.88z"/>
		<path fill="#ECF1F1" d="M55.939,13.983l4.331-5.513c-0.053,0.011-0.097,0.024-0.148,0.037l-4.216,5.372
			C55.918,13.916,55.93,13.949,55.939,13.983z"/>
		<path fill="#ECF1F1" d="M55.976,14.099l4.446-5.663c-0.053,0.011-0.1,0.023-0.151,0.035l-4.331,5.515
			C55.952,14.022,55.964,14.061,55.976,14.099z"/>
		<path fill="#E7F0EF" d="M56.01,14.209l4.554-5.801c-0.045,0.01-0.098,0.018-0.142,0.026l-4.446,5.663
			C55.988,14.135,55.998,14.173,56.01,14.209z"/>
		<path fill="#E7F0EF" d="M56.043,14.314L60.7,8.384c-0.044,0.009-0.093,0.016-0.137,0.024l-4.554,5.801
			C56.022,14.244,56.032,14.28,56.043,14.314z"/>
		<path fill="#E7F0EF" d="M56.081,14.424l4.015-5.122c0.013-0.045,0.017-0.098,0.034-0.135c0,0,0.117-0.301,0.522-0.575l0.184-0.233
			c-0.045,0.009-0.092,0.017-0.136,0.025l-4.657,5.931C56.057,14.352,56.067,14.387,56.081,14.424z"/>
		<path fill="#E3EDED" d="M56.12,14.535l3.937-5.01c0.005-0.085,0.021-0.155,0.04-0.224l-4.015,5.122
			C56.094,14.463,56.106,14.498,56.12,14.535z"/>
		<path fill="#E3EDED" d="M60.901,8.449l0.095-0.12c-0.054,0.01-0.109,0.02-0.16,0.029l-0.184,0.233
			C60.726,8.543,60.809,8.494,60.901,8.449z"/>
		<path fill="#E1EAEA" d="M61.064,8.38l0.057-0.073c-0.043,0.008-0.084,0.016-0.125,0.022l-0.095,0.12
			C60.952,8.425,61.008,8.402,61.064,8.38z"/>
		<path fill="#E1EAEA" d="M56.155,14.635l3.903-4.974c0-0.046-0.005-0.095-0.002-0.137l-3.937,5.01
			C56.131,14.568,56.143,14.603,56.155,14.635z"/>
		<path fill="#E1EAEA" d="M61.248,8.315l0.028-0.037c-0.054,0.01-0.103,0.02-0.155,0.029L61.064,8.38
			C61.123,8.356,61.183,8.334,61.248,8.315z"/>
		<path fill="#E1EAEA" d="M56.193,14.74l3.868-4.917c-0.006-0.06-0.001-0.107-0.003-0.161l-3.903,4.974
			C56.167,14.671,56.18,14.706,56.193,14.74z"/>
		<path fill="#E1EAEA" d="M56.233,14.858l3.843-4.908c-0.006-0.042-0.013-0.087-0.016-0.127l-3.869,4.918
			C56.206,14.779,56.219,14.821,56.233,14.858z"/>
		<path fill="#E1EAEA" d="M61.388,8.277l0.017-0.022c-0.045,0.006-0.084,0.016-0.127,0.023l-0.029,0.036
			C61.291,8.301,61.34,8.29,61.388,8.277z"/>
		<path fill="#DFE8E8" d="M61.551,8.233l0.002-0.004h-0.018c-0.047,0.007-0.085,0.018-0.131,0.025l-0.018,0.022
			C61.442,8.263,61.491,8.246,61.551,8.233z"/>
		<path fill="#DFE8E8" d="M56.271,14.961l3.828-4.88c-0.007-0.043-0.017-0.09-0.022-0.131l-3.844,4.908
			C56.247,14.895,56.26,14.926,56.271,14.961z"/>
		<polygon fill="#DFE8E8" points="61.563,8.229 61.553,8.229 61.551,8.233 		"/>
		<path fill="#DFE8E8" d="M56.309,15.058L60.12,10.2c-0.008-0.041-0.014-0.079-0.021-0.119l-3.828,4.88
			C56.285,14.995,56.297,15.025,56.309,15.058z"/>
		<path fill="#DBE8E7" d="M56.352,15.169l3.793-4.834c-0.011-0.048-0.015-0.088-0.022-0.134l-3.812,4.857
			C56.323,15.096,56.338,15.133,56.352,15.169z"/>
		<path fill="#DBE8E7" d="M56.393,15.274l3.784-4.825c-0.009-0.037-0.023-0.079-0.032-0.115l-3.793,4.834
			C56.365,15.203,56.379,15.24,56.393,15.274z"/>
		<path fill="#D9E4E3" d="M56.429,15.369l3.778-4.81c-0.01-0.037-0.021-0.074-0.03-0.11l-3.784,4.825
			C56.404,15.304,56.418,15.339,56.429,15.369z"/>
		<path fill="#D9E4E3" d="M56.472,15.473l3.768-4.8c-0.012-0.038-0.021-0.075-0.032-0.113l-3.778,4.81
			C56.443,15.406,56.457,15.436,56.472,15.473z"/>
		<path fill="#D9E4E3" d="M56.516,15.577l3.758-4.785c-0.013-0.041-0.021-0.078-0.034-0.119l-3.768,4.8
			C56.486,15.509,56.501,15.542,56.516,15.577z"/>
		<path fill="#D8E3E0" d="M56.553,15.67l3.75-4.773c-0.013-0.037-0.019-0.069-0.029-0.104l-3.758,4.785
			C56.527,15.609,56.541,15.642,56.553,15.67z"/>
		<path fill="#D6E1DE" d="M56.599,15.779l3.746-4.768c-0.013-0.036-0.03-0.079-0.042-0.115l-3.75,4.773
			C56.568,15.706,56.584,15.747,56.599,15.779z"/>
		<path fill="#D6E1DE" d="M56.639,15.872l3.74-4.764c-0.011-0.032-0.022-0.064-0.034-0.097l-3.746,4.768
			C56.613,15.815,56.624,15.84,56.639,15.872z"/>
		<path fill="#D6E1DE" d="M56.683,15.976l3.735-4.759c-0.013-0.036-0.025-0.072-0.039-0.107l-3.74,4.764
			C56.653,15.909,56.668,15.941,56.683,15.976z"/>
		<path fill="#D3E0DD" d="M56.729,16.082l3.729-4.754c-0.014-0.038-0.026-0.074-0.041-0.112l-3.735,4.759
			C56.697,16.011,56.716,16.051,56.729,16.082z"/>
		<path fill="#D3E0DD" d="M56.746,16.121c0.009,0.018,0.018,0.036,0.026,0.055l3.726-4.743c-0.015-0.035-0.024-0.069-0.039-0.104
			l-3.729,4.754C56.734,16.095,56.74,16.11,56.746,16.121z"/>
		<path fill="#D1DEDC" d="M56.816,16.266l3.719-4.731c-0.015-0.035-0.024-0.067-0.037-0.102l-3.726,4.743
			C56.787,16.205,56.802,16.236,56.816,16.266z"/>
		<path fill="#D1DEDC" d="M56.865,16.367l3.714-4.728c-0.015-0.035-0.03-0.072-0.045-0.106l-3.718,4.732
			C56.833,16.3,56.849,16.334,56.865,16.367z"/>
		<path fill="#CFDDDA" d="M56.909,16.458l3.71-4.727c-0.014-0.03-0.026-0.063-0.04-0.092l-3.714,4.728
			C56.88,16.397,56.895,16.428,56.909,16.458z"/>
		<path fill="#CFDDDA" d="M56.96,16.562l3.704-4.725c-0.015-0.036-0.031-0.07-0.045-0.105l-3.71,4.727
			C56.927,16.492,56.942,16.527,56.96,16.562z"/>
		<path fill="#CFDDDA" d="M57.002,16.648l3.704-4.712c-0.015-0.034-0.029-0.067-0.043-0.1l-3.703,4.725
			C56.974,16.591,56.987,16.619,57.002,16.648z"/>
		<path fill="#CDDAD7" d="M57.053,16.752l3.697-4.715c-0.016-0.035-0.028-0.068-0.044-0.102l-3.704,4.712
			C57.02,16.684,57.034,16.717,57.053,16.752z"/>
		<path fill="#C9D9D5" d="M57.098,16.837l3.694-4.702c-0.016-0.034-0.027-0.064-0.042-0.097l-3.697,4.715
			C57.067,16.78,57.082,16.808,57.098,16.837z"/>
		<path fill="#C9D9D5" d="M57.148,16.934l3.689-4.695c-0.016-0.035-0.03-0.069-0.047-0.104l-3.694,4.702
			C57.114,16.869,57.132,16.9,57.148,16.934z"/>
		<path fill="#C9D9D5" d="M57.195,17.024l3.687-4.697c-0.015-0.028-0.03-0.061-0.044-0.089l-3.689,4.695
			C57.165,16.964,57.18,16.995,57.195,17.024z"/>
		<path fill="#C6D6D2" d="M57.244,17.119l3.686-4.691c-0.017-0.032-0.033-0.067-0.049-0.101l-3.686,4.697
			C57.212,17.056,57.229,17.088,57.244,17.119z"/>
		<path fill="#C6D6D2" d="M57.3,17.225l3.679-4.692c-0.017-0.035-0.033-0.069-0.049-0.104l-3.686,4.691
			C57.264,17.154,57.28,17.189,57.3,17.225z"/>
		<path fill="#C4D4D1" d="M57.346,17.312l3.678-4.687c-0.016-0.031-0.029-0.062-0.045-0.093l-3.68,4.692
			C57.314,17.253,57.33,17.282,57.346,17.312z"/>
		<path fill="#C4D4D1" d="M57.391,17.393l3.676-4.682c-0.015-0.029-0.028-0.058-0.043-0.086l-3.678,4.687
			C57.361,17.339,57.376,17.365,57.391,17.393z"/>
		<path fill="#C3D3CF" d="M57.448,17.495l3.669-4.677c-0.017-0.037-0.034-0.071-0.051-0.107l-3.676,4.682
			C57.41,17.428,57.429,17.46,57.448,17.495z"/>
		<path fill="#C3D3CF" d="M57.494,17.58l3.666-4.674c-0.016-0.03-0.027-0.059-0.044-0.088l-3.67,4.677
			C57.463,17.523,57.479,17.552,57.494,17.58z"/>
		<path fill="#BDD0CC" d="M57.546,17.67l3.663-4.669c-0.016-0.032-0.033-0.063-0.049-0.095l-3.666,4.674
			C57.512,17.609,57.527,17.64,57.546,17.67z"/>
		<path fill="#BDD0CC" d="M57.593,17.756l3.664-4.664c-0.017-0.03-0.034-0.062-0.048-0.091l-3.665,4.669
			C57.561,17.698,57.576,17.727,57.593,17.756z"/>
		<path fill="#BDD0CC" d="M57.645,17.85l3.662-4.665c-0.016-0.03-0.034-0.063-0.049-0.093l-3.665,4.664
			C57.609,17.786,57.627,17.818,57.645,17.85z"/>
		<path fill="#BCCDC7" d="M57.693,17.936l3.66-4.664c-0.016-0.028-0.032-0.058-0.047-0.087l-3.663,4.665
			C57.661,17.879,57.678,17.906,57.693,17.936z"/>
		<path fill="#BCCDC7" d="M57.75,18.031l3.654-4.664c-0.018-0.032-0.034-0.064-0.051-0.096l-3.66,4.664
			C57.713,17.969,57.731,17.998,57.75,18.031z"/>
		<path fill="#BBCCC6" d="M57.796,18.11l3.656-4.654c-0.017-0.029-0.032-0.059-0.049-0.089l-3.653,4.664
			C57.766,18.059,57.781,18.084,57.796,18.11z"/>
		<path fill="#BBCCC6" d="M57.849,18.199l3.651-4.652c-0.018-0.031-0.032-0.061-0.048-0.091l-3.656,4.654
			C57.813,18.14,57.83,18.171,57.849,18.199z"/>
		<path fill="#B7CBC4" d="M57.898,18.287l3.649-4.649c-0.017-0.031-0.031-0.061-0.048-0.09L57.849,18.2
			C57.864,18.229,57.883,18.259,57.898,18.287z"/>
		<path fill="#B7CBC4" d="M57.952,18.378L61.6,13.73c-0.004-0.005-0.007-0.011-0.01-0.017c-0.016-0.026-0.027-0.052-0.042-0.077
			l-3.649,4.648C57.917,18.316,57.935,18.35,57.952,18.378z"/>
		<path fill="#B5C9C2" d="M58.006,18.47l3.647-4.645c-0.017-0.031-0.037-0.063-0.054-0.095l-3.647,4.647
			C57.971,18.41,57.989,18.438,58.006,18.47z"/>
		<path fill="#B5C9C2" d="M58.059,18.555l3.646-4.643c-0.018-0.028-0.034-0.058-0.052-0.087l-3.647,4.645
			C58.025,18.499,58.042,18.525,58.059,18.555z"/>
		<path fill="#B3C7C0" d="M58.11,18.64l3.645-4.641c-0.017-0.028-0.034-0.058-0.051-0.087l-3.646,4.643
			C58.076,18.583,58.094,18.611,58.11,18.64z"/>
		<path fill="#B3C7C0" d="M58.169,18.733l3.641-4.642c-0.018-0.031-0.036-0.062-0.054-0.093l-3.644,4.641
			C58.13,18.671,58.149,18.703,58.169,18.733z"/>
		<path fill="#B3C7C0" d="M58.215,18.811l3.643-4.639c-0.017-0.026-0.031-0.054-0.049-0.081l-3.642,4.643
			C58.182,18.758,58.2,18.786,58.215,18.811z"/>
		<path fill="#B0C5BE" d="M58.276,18.909l3.638-4.641c-0.02-0.032-0.037-0.064-0.057-0.097l-3.643,4.639
			C58.235,18.844,58.256,18.877,58.276,18.909z"/>
		<path fill="#ACC3BB" d="M58.327,18.988l3.638-4.634c-0.018-0.028-0.034-0.058-0.052-0.087l-3.637,4.642
			C58.294,18.938,58.311,18.962,58.327,18.988z"/>
		<path fill="#ACC3BB" d="M58.382,19.078l3.637-4.632c-0.019-0.03-0.035-0.061-0.053-0.092l-3.638,4.634
			C58.347,19.02,58.364,19.05,58.382,19.078z"/>
		<path fill="#ACC3BB" d="M58.434,19.158l3.635-4.626c-0.018-0.028-0.032-0.057-0.051-0.085l-3.636,4.631
			C58.399,19.104,58.418,19.132,58.434,19.158z"/>
		<path fill="#AAC1B9" d="M58.489,19.249l3.633-4.628c-0.018-0.029-0.036-0.06-0.054-0.089l-3.635,4.626
			C58.452,19.188,58.473,19.221,58.489,19.249z"/>
		<path fill="#AAC1B9" d="M58.544,19.331l3.631-4.63c-0.018-0.027-0.036-0.054-0.053-0.08l-3.633,4.628
			C58.51,19.279,58.525,19.302,58.544,19.331z"/>
		<path fill="#A8BFB7" d="M58.601,19.417l3.631-4.627c-0.02-0.029-0.04-0.059-0.057-0.088l-3.631,4.631
			C58.564,19.362,58.582,19.389,58.601,19.417z"/>
		<path fill="#A8BFB7" d="M58.659,19.508l3.628-4.63c-0.017-0.029-0.037-0.058-0.056-0.088l-3.63,4.627
			C58.62,19.447,58.641,19.479,58.659,19.508z"/>
		<path fill="#A7BDB5" d="M58.706,19.579l3.633-4.622c-0.018-0.026-0.034-0.054-0.052-0.08l-3.628,4.629
			C58.674,19.53,58.693,19.558,58.706,19.579z"/>
		<path fill="#A7BDB5" d="M58.768,19.669l3.628-4.622c-0.02-0.03-0.039-0.06-0.057-0.089l-3.633,4.621
			C58.73,19.615,58.748,19.638,58.768,19.669z"/>
		<path fill="#A7BDB5" d="M58.824,19.752l3.627-4.621c-0.018-0.028-0.036-0.056-0.054-0.084l-3.628,4.622
			C58.787,19.695,58.809,19.729,58.824,19.752z"/>
		<path fill="#A2BBB4" d="M58.843,19.779c0.011,0.014,0.024,0.033,0.034,0.048l3.625-4.616c-0.019-0.027-0.034-0.054-0.053-0.08
			l-3.626,4.621C58.83,19.758,58.838,19.772,58.843,19.779z"/>
		<path fill="#A1BAB3" d="M58.943,19.919l3.619-4.615c-0.021-0.03-0.04-0.062-0.061-0.093l-3.625,4.616
			C58.898,19.854,58.924,19.89,58.943,19.919z"/>
		<path fill="#A1BAB3" d="M58.993,19.989l3.617-4.609c-0.018-0.026-0.03-0.05-0.048-0.074l-3.619,4.614
			C58.958,19.941,58.978,19.966,58.993,19.989z"/>
		<path fill="#A1BAB3" d="M59.056,20.076l3.615-4.604c-0.004-0.005-0.01-0.014-0.013-0.019c-0.018-0.024-0.031-0.05-0.049-0.074
			l-3.617,4.609C59.012,20.017,59.035,20.047,59.056,20.076z"/>
		<path fill="#9EB8B1" d="M59.114,20.159l3.613-4.602c-0.019-0.029-0.04-0.06-0.056-0.085l-3.615,4.604
			C59.075,20.104,59.095,20.132,59.114,20.159z"/>
		<path fill="#9EB8B1" d="M59.172,20.238l3.61-4.598c-0.021-0.031-0.036-0.056-0.055-0.083l-3.613,4.602
			C59.134,20.185,59.15,20.211,59.172,20.238z"/>
		<path fill="#9EB8B1" d="M59.226,20.315l3.609-4.598c-0.018-0.026-0.037-0.053-0.053-0.077l-3.61,4.598
			C59.189,20.265,59.207,20.289,59.226,20.315z"/>
		<path fill="#9DB6AD" d="M59.289,20.401l3.604-4.598c-0.019-0.029-0.04-0.059-0.059-0.086l-3.608,4.598
			C59.248,20.346,59.266,20.371,59.289,20.401z"/>
		<path fill="#9AB4AA" d="M59.345,20.482l3.606-4.596c-0.02-0.029-0.038-0.054-0.058-0.083l-3.604,4.598
			C59.309,20.431,59.323,20.453,59.345,20.482z"/>
		<path fill="#9AB4AA" d="M59.408,20.565l3.602-4.595c-0.02-0.027-0.041-0.058-0.059-0.084l-3.606,4.596
			C59.365,20.51,59.39,20.538,59.408,20.565z"/>
		<path fill="#9AB4AA" d="M59.468,20.644l3.602-4.588c-0.021-0.028-0.041-0.057-0.06-0.085l-3.602,4.595
			C59.427,20.59,59.45,20.617,59.468,20.644z"/>
		<path fill="#98B3A8" d="M59.526,20.718l3.598-4.584c-0.019-0.027-0.036-0.052-0.055-0.078l-3.6,4.588
			C59.487,20.668,59.508,20.692,59.526,20.718z"/>
		<path fill="#98B3A8" d="M59.588,20.796l3.596-4.578c-0.021-0.029-0.041-0.056-0.06-0.084l-3.598,4.584
			C59.546,20.744,59.567,20.77,59.588,20.796z"/>
		<path fill="#96B1A6" d="M59.648,20.874l3.592-4.577c-0.019-0.025-0.039-0.054-0.057-0.078l-3.596,4.578
			C59.606,20.821,59.629,20.848,59.648,20.874z"/>
		<path fill="#96B1A6" d="M59.707,20.951l3.588-4.577c-0.019-0.026-0.037-0.053-0.055-0.077l-3.592,4.577
			C59.668,20.899,59.688,20.925,59.707,20.951z"/>
		<path fill="#94AEA4" d="M59.764,21.023l3.589-4.57c-0.02-0.027-0.037-0.053-0.057-0.079l-3.589,4.577
			C59.727,20.975,59.744,20.997,59.764,21.023z"/>
		<path fill="#94AEA4" d="M59.818,21.095l3.588-4.566c-0.02-0.025-0.035-0.05-0.054-0.075l-3.589,4.57
			C59.782,21.047,59.799,21.07,59.818,21.095z"/>
		<path fill="#8FACA1" d="M59.883,21.177l3.586-4.563c-0.02-0.028-0.043-0.059-0.063-0.085l-3.588,4.564
			C59.841,21.123,59.86,21.148,59.883,21.177z"/>
		<path fill="#8FACA1" d="M59.943,21.254l3.584-4.564c-0.02-0.024-0.039-0.051-0.058-0.076l-3.587,4.563
			C59.904,21.203,59.922,21.229,59.943,21.254z"/>
		<path fill="#8CA99F" d="M60.008,21.335l3.581-4.56c-0.021-0.028-0.042-0.057-0.062-0.086l-3.584,4.564
			C59.965,21.281,59.985,21.308,60.008,21.335z"/>
		<path fill="#8CA99F" d="M60.069,21.408l3.576-4.556c-0.02-0.026-0.037-0.051-0.057-0.076l-3.581,4.559
			C60.027,21.359,60.051,21.383,60.069,21.408z"/>
		<path fill="#8CA99F" d="M60.138,21.487l3.571-4.552c-0.021-0.027-0.044-0.057-0.063-0.085l-3.576,4.556
			C60.091,21.434,60.115,21.461,60.138,21.487z"/>
		<path fill="#8AA89D" d="M60.198,21.56l3.566-4.55c-0.018-0.024-0.037-0.05-0.056-0.074l-3.571,4.552
			C60.156,21.512,60.179,21.535,60.198,21.56z"/>
		<path fill="#8AA89D" d="M60.261,21.634l3.565-4.543c-0.021-0.027-0.041-0.054-0.062-0.081l-3.566,4.55
			C60.22,21.584,60.241,21.608,60.261,21.634z"/>
		<path fill="#89A79C" d="M60.324,21.707l3.561-4.54c-0.02-0.025-0.038-0.051-0.059-0.076l-3.564,4.543
			C60.281,21.658,60.303,21.683,60.324,21.707z"/>
		<path fill="#89A79C" d="M60.388,21.782l3.56-4.534c-0.021-0.026-0.041-0.053-0.063-0.081l-3.561,4.54
			C60.345,21.732,60.366,21.757,60.388,21.782z"/>
		<path fill="#85A499" d="M60.454,21.861l3.555-4.535c-0.02-0.026-0.041-0.052-0.062-0.078l-3.559,4.534
			C60.41,21.809,60.432,21.835,60.454,21.861z"/>
		<path fill="#85A499" d="M60.515,21.932l3.553-4.53c-0.02-0.024-0.04-0.05-0.059-0.074l-3.555,4.534
			C60.474,21.885,60.494,21.907,60.515,21.932z"/>
		<path fill="#83A397" d="M60.574,22.004l3.554-4.526c-0.02-0.025-0.041-0.051-0.061-0.076l-3.553,4.53
			C60.535,21.956,60.555,21.979,60.574,22.004z"/>
		<path fill="#83A397" d="M60.64,22.078l3.552-4.521c-0.021-0.027-0.043-0.054-0.063-0.08l-3.553,4.526
			C60.598,22.028,60.617,22.054,60.64,22.078z"/>
		<path fill="#81A195" d="M60.706,22.156l3.547-4.521c-0.021-0.026-0.041-0.053-0.062-0.078l-3.552,4.521
			C60.662,22.104,60.682,22.131,60.706,22.156z"/>
		<path fill="#81A195" d="M71.039,9.059c0.008,0.003,0.028,0.019,0.04,0.025l0.003-0.004C71.058,9.067,71.039,9.059,71.039,9.059z"
			/>
		<path fill="#81A195" d="M60.766,22.219l3.544-4.514c-0.018-0.023-0.038-0.046-0.057-0.07l-3.547,4.52
			C60.726,22.178,60.747,22.197,60.766,22.219z"/>
		<path fill="#7E9F91" d="M60.835,22.291l3.539-4.507c-0.021-0.026-0.043-0.052-0.064-0.078l-3.544,4.514
			C60.788,22.243,60.813,22.267,60.835,22.291z"/>
		<path fill="#7E9F91" d="M71.082,9.08l-0.003,0.004c0.024,0.015,0.049,0.027,0.086,0.055l0.008-0.01
			C71.136,9.108,71.105,9.091,71.082,9.08z"/>
		<path fill="#7E9F91" d="M71.172,9.129l-0.007,0.01c0.021,0.015,0.047,0.039,0.07,0.058l0.017-0.02
			C71.223,9.159,71.198,9.144,71.172,9.129z"/>
		<path fill="#7E9F91" d="M60.903,22.363l3.534-4.503c-0.021-0.025-0.043-0.051-0.063-0.076l-3.539,4.507
			C60.857,22.315,60.881,22.339,60.903,22.363z"/>
		<path fill="#7E9F91" d="M71.252,9.178l-0.017,0.02c0.022,0.018,0.046,0.038,0.07,0.06l0.021-0.029
			C71.302,9.21,71.277,9.192,71.252,9.178z"/>
		<path fill="#7E9F91" d="M60.97,22.433l3.529-4.499c-0.021-0.023-0.041-0.049-0.062-0.073l-3.534,4.503
			C60.926,22.389,60.949,22.41,60.97,22.433z"/>
		<path fill="#7C9D8F" d="M61.043,22.509l3.524-4.491c-0.024-0.027-0.047-0.054-0.068-0.082l-3.529,4.499
			C60.994,22.459,61.019,22.483,61.043,22.509z"/>
		<path fill="#7C9D8F" d="M71.355,9.246c-0.01-0.006-0.02-0.012-0.028-0.019l-0.021,0.029c0.027,0.024,0.051,0.039,0.081,0.068
			l0.024-0.032C71.393,9.277,71.374,9.261,71.355,9.246z"/>
		<path fill="#7C9D8F" d="M61.099,22.569l3.523-4.487c-0.018-0.021-0.037-0.043-0.055-0.064l-3.524,4.491
			C61.062,22.53,61.08,22.549,61.099,22.569z"/>
		<path fill="#7C9D8F" d="M71.411,9.293l-0.025,0.032c0.019,0.02,0.038,0.049,0.058,0.069l0.036-0.046
			C71.457,9.329,71.436,9.311,71.411,9.293z"/>
		<path fill="#7A9B8D" d="M71.479,9.349l-0.036,0.046c0.022,0.025,0.045,0.055,0.067,0.082l0.049-0.062
			C71.535,9.391,71.507,9.37,71.479,9.349z"/>
		<path fill="#7A9B8D" d="M61.169,22.642l3.521-4.481c-0.021-0.026-0.046-0.052-0.067-0.078l-3.523,4.487
			C61.123,22.594,61.145,22.618,61.169,22.642z"/>
		<path fill="#7A9B8D" d="M71.56,9.415l-0.049,0.061c0.02,0.023,0.039,0.045,0.058,0.07l0.053-0.066
			C71.6,9.457,71.584,9.436,71.56,9.415z"/>
		<path fill="#7A9B8D" d="M61.233,22.711l3.518-4.479c-0.02-0.023-0.041-0.049-0.062-0.071l-3.521,4.481
			C61.191,22.665,61.213,22.689,61.233,22.711z"/>
		<path fill="#7A9B8D" d="M61.304,22.784l3.513-4.477c-0.021-0.024-0.044-0.053-0.065-0.077l-3.518,4.48
			C61.258,22.735,61.28,22.761,61.304,22.784z"/>
		<path fill="#7A9B8D" d="M71.621,9.479l-0.052,0.066c0.021,0.027,0.042,0.05,0.063,0.08l0.059-0.074
			C71.67,9.528,71.646,9.504,71.621,9.479z"/>
		<path fill="#78998B" d="M71.719,9.581c-0.007-0.01-0.019-0.019-0.027-0.029l-0.059,0.074c0.018,0.028,0.032,0.065,0.05,0.095
			l0.073-0.092C71.741,9.614,71.731,9.595,71.719,9.581z"/>
		<path fill="#78998B" d="M61.369,22.853l3.512-4.472c-0.02-0.023-0.042-0.048-0.063-0.073l-3.514,4.477
			C61.326,22.807,61.347,22.831,61.369,22.853z"/>
		<path fill="#78998B" d="M71.755,9.629l-0.073,0.092c0.018,0.028,0.032,0.061,0.049,0.091l0.083-0.105
			C71.792,9.682,71.775,9.652,71.755,9.629z"/>
		<path fill="#78998B" d="M61.434,22.921l3.511-4.47c-0.021-0.024-0.042-0.047-0.063-0.07l-3.512,4.472
			C61.391,22.875,61.411,22.899,61.434,22.921z"/>
		<path fill="#73978A" d="M71.813,9.706L71.73,9.812c0.018,0.033,0.035,0.063,0.052,0.099l0.094-0.121
			C71.855,9.761,71.834,9.733,71.813,9.706z"/>
		<path fill="#73978A" d="M61.457,22.946c0.016,0.016,0.035,0.032,0.05,0.047l3.508-4.466c-0.022-0.024-0.046-0.051-0.07-0.076
			l-3.511,4.471C61.44,22.929,61.448,22.938,61.457,22.946z"/>
		<path fill="#73978A" d="M61.579,23.059l3.501-4.461c-0.023-0.022-0.044-0.047-0.065-0.07l-3.508,4.466
			C61.529,23.014,61.555,23.037,61.579,23.059z"/>
		<path fill="#73978A" d="M71.876,9.79l-0.094,0.12c0.013,0.031,0.032,0.055,0.046,0.088l0.104-0.133
			C71.914,9.837,71.893,9.815,71.876,9.79z"/>
		<path fill="#73978A" d="M61.65,23.128l3.498-4.454c-0.023-0.024-0.048-0.052-0.07-0.076l-3.501,4.461
			C61.601,23.081,61.627,23.104,61.65,23.128z"/>
		<path fill="#73978A" d="M71.931,9.864l-0.104,0.133c0.002,0.005,0.005,0.007,0.007,0.011c0.008,0.024,0.021,0.062,0.035,0.105
			l0.124-0.158C71.973,9.923,71.951,9.896,71.931,9.864z"/>
		<path fill="#729587" d="M71.992,9.955l-0.123,0.158c0.011,0.031,0.021,0.067,0.032,0.108l0.137-0.176
			C72.021,10.018,72.009,9.984,71.992,9.955z"/>
		<path fill="#729587" d="M61.716,23.187l3.494-4.448c-0.02-0.022-0.042-0.043-0.062-0.064l-3.498,4.454
			C61.672,23.147,61.693,23.168,61.716,23.187z"/>
		<path fill="#729587" d="M72.038,10.046l-0.139,0.176c0.009,0.033,0.017,0.065,0.024,0.105l0.155-0.198
			C72.065,10.103,72.053,10.073,72.038,10.046z"/>
		<path fill="#729587" d="M61.784,23.251l3.49-4.448c-0.022-0.021-0.043-0.043-0.064-0.064l-3.494,4.448
			C61.736,23.207,61.76,23.229,61.784,23.251z"/>
		<path fill="#719486" d="M72.079,10.13l-0.155,0.198c0.008,0.043,0.016,0.092,0.021,0.145l0.188-0.238
			C72.115,10.198,72.098,10.164,72.079,10.13z"/>
		<path fill="#719486" d="M61.857,23.321l3.49-4.444c-0.023-0.025-0.048-0.051-0.072-0.074l-3.491,4.447
			C61.808,23.274,61.831,23.297,61.857,23.321z"/>
		<path fill="#719486" d="M61.929,23.389l3.485-4.444c-0.021-0.021-0.045-0.046-0.067-0.067l-3.489,4.444
			C61.882,23.344,61.904,23.365,61.929,23.389z"/>
		<path fill="#719486" d="M72.132,10.234l-0.187,0.238c0.005,0.039,0.007,0.086,0.01,0.131l0.221-0.281
			C72.163,10.291,72.146,10.266,72.132,10.234z"/>
		<path fill="#6F9284" d="M72.195,10.361c-0.006-0.014-0.014-0.024-0.02-0.039l-0.221,0.281c0.003,0.051,0.005,0.102,0.005,0.158
			l0.261-0.332C72.212,10.41,72.202,10.376,72.195,10.361z"/>
		<path fill="#6F9284" d="M61.997,23.451l3.485-4.438c-0.021-0.023-0.046-0.047-0.067-0.069l-3.486,4.444
			C61.952,23.41,61.973,23.43,61.997,23.451z"/>
		<path fill="#6F9284" d="M72.221,10.43l-0.261,0.332c0,0.047-0.002,0.098-0.005,0.148l0.301-0.385
			C72.243,10.491,72.231,10.457,72.221,10.43z"/>
		<path fill="#6F9284" d="M62.067,23.519l3.482-4.442c-0.022-0.021-0.045-0.041-0.068-0.063l-3.486,4.438
			C62.021,23.475,62.043,23.494,62.067,23.519z"/>
		<path fill="#6F9284" d="M72.256,10.525l-0.301,0.385c-0.004,0.056-0.009,0.114-0.015,0.176l0.353-0.45
			C72.278,10.589,72.269,10.563,72.256,10.525z"/>
		<path fill="#6F9284" d="M62.136,23.58l3.485-4.439c-0.023-0.021-0.047-0.043-0.07-0.064l-3.483,4.442
			C62.09,23.538,62.112,23.559,62.136,23.58z"/>
		<path fill="#6B9082" d="M72.293,10.635l-0.353,0.45c-0.007,0.057-0.014,0.114-0.021,0.176l0.402-0.512
			C72.312,10.714,72.303,10.667,72.293,10.635z"/>
		<path fill="#6B9082" d="M62.207,23.644l3.482-4.44c-0.023-0.02-0.047-0.041-0.069-0.063l-3.484,4.439
			C62.159,23.602,62.185,23.623,62.207,23.644z"/>
		<path fill="#6B9082" d="M62.273,23.702l3.484-4.437c-0.022-0.02-0.047-0.041-0.067-0.063l-3.483,4.44
			C62.229,23.662,62.252,23.682,62.273,23.702z"/>
		<path fill="#6B9082" d="M72.321,10.749l-0.402,0.512c-0.01,0.064-0.022,0.135-0.036,0.205l0.468-0.596
			C72.341,10.828,72.331,10.787,72.321,10.749z"/>
		<path fill="#698E80" d="M62.347,23.766l3.485-4.438c-0.025-0.021-0.049-0.039-0.075-0.063l-3.483,4.437
			C62.298,23.723,62.323,23.744,62.347,23.766z"/>
		<path fill="#698E80" d="M72.351,10.87l-0.469,0.596c-0.015,0.068-0.024,0.136-0.043,0.211l0.539-0.688
			C72.37,10.943,72.359,10.912,72.351,10.87z"/>
		<path fill="#698E80" d="M72.378,10.989l-0.538,0.688c-0.002,0.006-0.002,0.012-0.004,0.019c-0.015,0.061-0.035,0.13-0.052,0.194
			l0.612-0.782C72.391,11.067,72.386,11.026,72.378,10.989z"/>
		<path fill="#698E80" d="M62.425,23.835l3.483-4.446c-0.024-0.02-0.051-0.039-0.076-0.061l-3.485,4.438
			C62.373,23.789,62.399,23.811,62.425,23.835z"/>
		<path fill="#698E80" d="M62.492,23.894l3.489-4.445c-0.024-0.019-0.049-0.039-0.073-0.06l-3.483,4.446
			C62.448,23.854,62.47,23.873,62.492,23.894z"/>
		<path fill="#698E80" d="M72.396,11.107l-0.612,0.782c-0.023,0.084-0.043,0.163-0.07,0.253l0.698-0.889
			C72.405,11.206,72.403,11.152,72.396,11.107z"/>
		<path fill="#678D7F" d="M62.566,23.958l3.491-4.448c-0.024-0.018-0.052-0.042-0.076-0.062l-3.489,4.445
			C62.518,23.914,62.541,23.938,62.566,23.958z"/>
		<path fill="#678D7F" d="M72.412,11.254l-0.698,0.889c-0.027,0.091-0.062,0.188-0.096,0.285l0.809-1.03
			C72.422,11.35,72.417,11.302,72.412,11.254z"/>
		<path fill="#678D7F" d="M62.637,24.02l3.499-4.458c-0.025-0.02-0.05-0.032-0.078-0.052l-3.491,4.448
			C62.59,23.979,62.614,23.999,62.637,24.02z"/>
		<path fill="#678D7F" d="M72.426,11.398l-0.808,1.029c-0.031,0.093-0.063,0.183-0.098,0.277l0.919-1.171
			C72.438,11.484,72.43,11.445,72.426,11.398z"/>
		<path fill="#658A7C" d="M62.71,24.084l3.506-4.471c-0.026-0.018-0.052-0.033-0.08-0.052l-3.499,4.458
			C62.661,24.041,62.686,24.063,62.71,24.084z"/>
		<path fill="#658A7C" d="M72.439,11.534l-0.919,1.171c-0.034,0.092-0.07,0.186-0.107,0.279l1.024-1.308
			C72.438,11.629,72.441,11.579,72.439,11.534z"/>
		<path fill="#658A7C" d="M72.438,11.677l-1.024,1.308c-0.047,0.118-0.095,0.236-0.145,0.355l1.158-1.475
			C72.43,11.803,72.438,11.736,72.438,11.677z"/>
		<path fill="#658A7C" d="M62.781,24.146l3.52-4.479c-0.028-0.017-0.057-0.036-0.085-0.055l-3.506,4.471
			C62.734,24.104,62.757,24.125,62.781,24.146z"/>
		<path fill="#60897A" d="M62.861,24.213l3.53-4.498c-0.031-0.016-0.061-0.029-0.091-0.048l-3.52,4.479
			C62.809,24.169,62.834,24.189,62.861,24.213z"/>
		<path fill="#60897A" d="M72.427,11.865l-1.159,1.475c-0.048,0.116-0.096,0.233-0.146,0.349l1.296-1.65
			C72.423,11.979,72.424,11.922,72.427,11.865z"/>
		<path fill="#60897A" d="M62.933,24.269l3.542-4.517c-0.027-0.012-0.055-0.023-0.083-0.037l-3.53,4.498
			C62.885,24.232,62.909,24.249,62.933,24.269z"/>
		<path fill="#60897A" d="M72.417,12.038l-1.296,1.65c-0.048,0.108-0.094,0.214-0.143,0.319l1.431-1.822
			C72.415,12.132,72.412,12.088,72.417,12.038z"/>
		<path fill="#60897A" d="M63.003,24.324l3.56-4.531c-0.027-0.01-0.059-0.028-0.086-0.04l-3.542,4.516
			C62.957,24.288,62.979,24.305,63.003,24.324z"/>
		<path fill="#60897A" d="M72.405,12.234c0.004-0.018,0.002-0.032,0.004-0.05l-1.43,1.822c-0.06,0.134-0.12,0.263-0.18,0.388
			l1.583-2.017C72.391,12.332,72.4,12.28,72.405,12.234z"/>
		<path fill="#5F8676" d="M72.383,12.378L70.8,14.395c-0.066,0.143-0.131,0.274-0.191,0.4l1.746-2.224
			C72.363,12.507,72.375,12.441,72.383,12.378z"/>
		<path fill="#5F8676" d="M63.078,24.384l3.588-4.568c-0.035-0.008-0.067-0.01-0.104-0.022l-3.559,4.531
			C63.028,24.345,63.054,24.364,63.078,24.384z"/>
		<path fill="#5F8676" d="M72.354,12.571l-1.746,2.224c-0.078,0.157-0.149,0.3-0.214,0.422l1.93-2.46
			C72.336,12.694,72.344,12.634,72.354,12.571z"/>
		<path fill="#5F8676" d="M63.155,24.443l3.616-4.607c-0.033-0.002-0.07-0.012-0.105-0.02l-3.588,4.568
			C63.104,24.403,63.129,24.424,63.155,24.443z"/>
		<path fill="#5D8574" d="M72.324,12.758l-1.929,2.46c-0.017,0.031-0.036,0.07-0.052,0.1l-0.021,0.013
			c-0.018,0.034-0.105,0.201-0.241,0.446l2.208-2.813C72.303,12.893,72.313,12.826,72.324,12.758z"/>
		<path fill="#5D8574" d="M63.229,24.504l3.68-4.688c-0.037,0.008-0.078,0.024-0.114,0.022c-0.006,0-0.017-0.003-0.023-0.003
			l-3.616,4.607C63.179,24.465,63.205,24.483,63.229,24.504z"/>
		<path fill="#5D8574" d="M63.311,24.566l3.77-4.807c-0.06,0.028-0.115,0.045-0.171,0.057l-3.68,4.688
			C63.256,24.524,63.283,24.545,63.311,24.566z"/>
		<path fill="#5D8574" d="M72.289,12.963l-2.208,2.813c-0.089,0.16-0.2,0.354-0.326,0.571l2.493-3.181
			C72.262,13.1,72.277,13.03,72.289,12.963z"/>
		<path fill="#5D8574" d="M72.248,13.168l-2.493,3.18c-0.119,0.206-0.253,0.428-0.397,0.661l2.847-3.624
			C72.219,13.312,72.234,13.239,72.248,13.168z"/>
		<path fill="#5D8574" d="M63.379,24.619l3.921-4.991c-0.075,0.055-0.149,0.098-0.22,0.132l-3.77,4.807
			C63.332,24.583,63.354,24.604,63.379,24.619z"/>
		<path fill="#5B8272" d="M72.204,13.384l-2.846,3.623c-0.179,0.291-0.373,0.593-0.576,0.89l3.383-4.315
			C72.178,13.516,72.189,13.45,72.204,13.384z"/>
		<path fill="#5B8272" d="M63.46,24.686l4.263-5.438c-0.146,0.151-0.289,0.281-0.424,0.38l-3.922,4.991
			C63.405,24.641,63.434,24.665,63.46,24.686z"/>
		<path fill="#5B8272" d="M63.528,24.74l8.581-10.929c0.018-0.076,0.037-0.153,0.054-0.229l-3.382,4.315
			c-0.347,0.51-0.713,0.992-1.06,1.352l-4.263,5.437C63.483,24.703,63.507,24.724,63.528,24.74z"/>
		<path fill="#588172" d="M63.614,24.798l8.44-10.757c0.019-0.076,0.037-0.152,0.055-0.229L63.528,24.74
			C63.56,24.762,63.586,24.777,63.614,24.798z"/>
		<path fill="#588172" d="M63.689,24.847L72,14.268c0.02-0.075,0.036-0.151,0.054-0.227l-8.439,10.757
			C63.641,24.815,63.664,24.829,63.689,24.847z"/>
		<path fill="#568070" d="M63.763,24.895l8.178-10.397c0.02-0.078,0.04-0.152,0.06-0.229l-8.312,10.579
			C63.714,24.863,63.737,24.878,63.763,24.895z"/>
		<path fill="#568070" d="M63.853,24.956l8.025-10.229c0.021-0.076,0.043-0.153,0.063-0.229l-8.178,10.398
			C63.794,24.916,63.822,24.935,63.853,24.956z"/>
		<path fill="#568070" d="M63.925,25.002l7.89-10.036c0.022-0.077,0.043-0.159,0.063-0.239l-8.025,10.228
			C63.877,24.971,63.901,24.987,63.925,25.002z"/>
		<path fill="#557E6E" d="M64.014,25.062l7.726-9.837c0.025-0.087,0.05-0.169,0.075-0.258l-7.89,10.035
			C63.954,25.022,63.984,25.043,64.014,25.062z"/>
		<path fill="#557E6E" d="M64.092,25.112l7.582-9.658c0.022-0.074,0.045-0.152,0.066-0.229l-7.727,9.837
			C64.04,25.078,64.066,25.098,64.092,25.112z"/>
		<path fill="#527C6C" d="M64.178,25.17l7.425-9.475c0.023-0.079,0.048-0.159,0.071-0.241l-7.582,9.658
			C64.119,25.131,64.148,25.153,64.178,25.17z"/>
		<path fill="#527C6C" d="M64.23,25.204c0.008,0.006,0.018,0.009,0.025,0.012l7.266-9.258c0.026-0.086,0.053-0.171,0.081-0.262
			l-7.425,9.474C64.194,25.18,64.214,25.194,64.23,25.204z"/>
		<path fill="#527C6C" d="M64.339,25.254l7.104-9.049c0.024-0.078,0.052-0.164,0.078-0.247l-7.266,9.258
			C64.284,25.23,64.312,25.242,64.339,25.254z"/>
		<path fill="#4E7A69" d="M64.427,25.295l6.926-8.81c0.029-0.089,0.059-0.179,0.091-0.28l-7.104,9.049
			C64.368,25.268,64.397,25.282,64.427,25.295z"/>
		<path fill="#4E7A69" d="M64.521,25.327l6.75-8.596c0.024-0.075,0.052-0.157,0.082-0.246l-6.925,8.809
			C64.46,25.309,64.49,25.316,64.521,25.327z"/>
		<path fill="#4C7867" d="M64.629,25.363l6.54-8.339c0.005-0.012,0.011-0.028,0.015-0.041c0.025-0.067,0.057-0.16,0.088-0.251
			l-6.75,8.596C64.558,25.34,64.593,25.353,64.629,25.363z"/>
		<path fill="#4C7867" d="M64.719,25.388l6.343-8.071c0.037-0.103,0.073-0.201,0.107-0.292l-6.54,8.339
			C64.66,25.373,64.689,25.379,64.719,25.388z"/>
		<path fill="#4C7867" d="M64.826,25.414l6.119-7.788c0.041-0.107,0.08-0.213,0.116-0.31l-6.342,8.071
			C64.755,25.396,64.791,25.406,64.826,25.414z"/>
		<path fill="#4A7666" d="M64.931,25.434l5.908-7.531c0.038-0.097,0.071-0.186,0.106-0.278l-6.119,7.79
			C64.862,25.422,64.896,25.427,64.931,25.434z"/>
		<path fill="#4A7666" d="M65.032,25.452l5.683-7.236c0.042-0.105,0.085-0.213,0.123-0.313l-5.908,7.532
			C64.966,25.44,65,25.447,65.032,25.452z"/>
		<path fill="#487563" d="M65.148,25.467l5.431-6.914c0.048-0.116,0.092-0.229,0.136-0.339l-5.682,7.236
			C65.072,25.457,65.114,25.463,65.148,25.467z"/>
		<path fill="#487563" d="M65.257,25.477l5.192-6.613c0.045-0.105,0.086-0.208,0.129-0.311l-5.43,6.914
			C65.19,25.472,65.225,25.474,65.257,25.477z"/>
		<path fill="#447261" d="M65.374,25.483l4.926-6.269c0.051-0.119,0.101-0.236,0.149-0.352l-5.192,6.613
			C65.311,25.481,65.349,25.483,65.374,25.483z"/>
		<path fill="#447261" d="M65.407,25.484c0.02-0.001,0.052-0.003,0.093-0.006l4.651-5.926c0.052-0.114,0.099-0.227,0.148-0.338
			l-4.926,6.269C65.389,25.484,65.402,25.484,65.407,25.484z"/>
		<path fill="#447261" d="M65.64,25.462l4.336-5.529c0.06-0.127,0.12-0.255,0.176-0.382L65.5,25.479
			C65.539,25.475,65.585,25.47,65.64,25.462z"/>
		<path fill="#42715E" d="M65.773,25.439l4.024-5.131c0.062-0.125,0.121-0.25,0.178-0.376l-4.336,5.529
			C65.679,25.455,65.725,25.448,65.773,25.439z"/>
		<path fill="#42715E" d="M65.921,25.402l3.672-4.68c0.07-0.137,0.139-0.275,0.204-0.414l-4.025,5.131
			C65.818,25.431,65.87,25.417,65.921,25.402z"/>
		<path fill="#42705D" d="M66.096,25.348l3.229-4.116c0.092-0.168,0.182-0.336,0.269-0.508l-3.672,4.68
			C65.978,25.388,66.035,25.369,66.096,25.348z"/>
		<path fill="#42705D" d="M66.244,25.293l2.823-3.592c0.052-0.095,0.105-0.189,0.154-0.277c0.036-0.063,0.068-0.13,0.104-0.194
			l-3.229,4.118C66.145,25.331,66.193,25.315,66.244,25.293z"/>
		<path fill="#42705D" d="M66.463,25.187l2.265-2.883c0.121-0.211,0.232-0.411,0.34-0.603l-2.823,3.592
			C66.315,25.263,66.389,25.228,66.463,25.187z"/>
		<path fill="#3D6F5B" d="M66.714,25.026l1.649-2.101c0.126-0.21,0.249-0.419,0.365-0.621l-2.266,2.883
			C66.545,25.141,66.629,25.088,66.714,25.026z"/>
		<path fill="#3D6F5B" d="M66.994,24.794c0.039-0.038,0.078-0.085,0.117-0.127l0.75-0.955c0.173-0.254,0.34-0.52,0.502-0.788
			l-1.649,2.103C66.807,24.959,66.899,24.885,66.994,24.794z"/>
		<path fill="#3B6C5A" d="M67.861,23.712l-0.75,0.955C67.365,24.397,67.617,24.07,67.861,23.712z"/>
	</g>
</g>
</svg>
