<?xml version="1.0" encoding="utf-8"?>
<!-- Generator: Adobe Illustrator 16.0.0, SVG Export Plug-In . SVG Version: 6.00 Build 0)  -->
<!DOCTYPE svg PUBLIC "-//W3C//DTD SVG 1.1 Tiny//EN" "http://www.w3.org/Graphics/SVG/1.1/DTD/svg11-tiny.dtd">
<svg version="1.1" baseProfile="tiny" id="Layer_1" xmlns="http://www.w3.org/2000/svg" xmlns:xlink="http://www.w3.org/1999/xlink"
	 x="0px" y="0px" width="100px" height="50px" viewBox="0 0 100 50" xml:space="preserve">
<g>
	<polygon fill="#024731" points="18.64,32.394 16.519,32.407 16.519,40.883 18.64,40.883 	"/>
	<path fill="#024731" d="M30.506,40.791c-0.331-0.123-0.589-0.348-0.76-0.625c-0.35-0.565-0.386-1.261-0.386-2.152v-3.591H28.06
		v-2.029h1.301v-2.049h2.115v2.049h1.936v2.029h-1.936v3.833c0,0.244,0.016,0.437,0.037,0.536c0.021,0.103,0.036,0.113,0.053,0.113
		c0,0,0,0.022,0.057,0.042c0.066,0.02,0.197,0.027,0.387,0.027c0.108,0,0.336-0.019,0.51-0.069c0.187-0.011,0.344-0.059,0.344-0.059
		l0.384-0.077l0.208,1.828l-0.273,0.116c-0.031,0-0.715,0.241-1.526,0.241C31.21,40.955,30.826,40.905,30.506,40.791"/>
	<path fill="#024731" d="M37.84,41c-0.626,0-1.148-0.045-1.608-0.181c-0.465-0.128-0.856-0.376-1.17-0.742
		c-0.614-0.72-0.819-1.811-0.819-3.424c0-1.225,0.124-2.125,0.436-2.836c0.308-0.688,0.859-1.132,1.554-1.321
		c0.46-0.147,0.982-0.197,1.608-0.197c1.313,0,2.548,0.33,2.579,0.33l0.315,0.07l-0.277,2.013l-0.374-0.094
		c0,0-0.047-0.012-0.157-0.049c-0.105-0.007-0.258-0.019-0.437-0.046c-0.336-0.05-0.819-0.101-1.318-0.101
		c-0.5,0-0.889,0.023-1.136,0.101c-0.236,0.075-0.325,0.169-0.431,0.336c-0.061,0.11-0.113,0.275-0.152,0.495
		c-0.039,0.318-0.058,0.754-0.058,1.299c0,0.614,0.019,1.064,0.081,1.399c0.068,0.314,0.163,0.491,0.289,0.589
		c0.081,0.095,0.202,0.15,0.376,0.191c0.241,0.072,0.578,0.095,1.03,0.095c0.735,0,1.439-0.136,1.755-0.187
		c0.11-0.005,0.152-0.039,0.152-0.039l0.379-0.089l0.277,1.947l-0.299,0.098C40.419,40.668,39.437,41,37.84,41"/>
	<path fill="#024731" d="M61.267,34.115c-0.115-0.642-0.42-1.155-0.919-1.446c-0.495-0.289-1.115-0.37-1.903-0.37
		c-0.468,0-0.972,0.053-0.982,0.053l-0.095,0.009l-0.987,0.802h-0.011c-0.006,0.018-0.011,0.018-0.021,0.04
		c-0.347-0.359-0.662-0.601-1.015-0.733c-0.361-0.148-0.72-0.17-1.182-0.17h-0.053c-0.436,0-0.951,0.053-0.957,0.062l-0.068,0.011
		l-0.84,0.681c-0.032,0.027-0.053,0.041-0.084,0.056c-0.064,0.021-0.091-0.015-0.095-0.043l-0.073-0.671h-0.017H50.21v8.489h2.128
		v-6.381c0.305-0.067,0.773-0.114,1.229-0.114c0.321,0,0.553,0.008,0.721,0.047c0.12,0.039,0.194,0.067,0.252,0.094
		c0.058,0.041,0.115,0.123,0.152,0.331c0.058,0.181,0.084,0.495,0.084,0.908v5.115h2.108v-5.699c0-0.224-0.022-0.469-0.059-0.71
		c0.347-0.039,0.804-0.078,1.266-0.078c0.3,0,0.542,0.027,0.716,0.051c0.12,0.027,0.199,0.056,0.241,0.104
		c0.073,0.048,0.126,0.108,0.184,0.314c0.038,0.175,0.059,0.489,0.059,0.925v5.093h2.112v-5.237
		C61.403,35.04,61.376,34.528,61.267,34.115"/>
	<path fill="#024731" d="M24.221,35.673h-0.465h-0.021h-0.026h-0.396c-0.276,0-0.668-0.011-1.062-0.053
		c0.016-0.247,0.021-0.452,0.053-0.608c0.031-0.175,0.068-0.297,0.115-0.366c0.058-0.095,0.11-0.161,0.337-0.223
		c0.204-0.063,0.557-0.085,1.056-0.085c0.337,0,0.581,0.003,0.762,0.041c0.121,0.044,0.211,0.067,0.269,0.105
		c0.081,0.073,0.149,0.167,0.199,0.413c0.053,0.17,0.079,0.429,0.095,0.748C24.819,35.673,24.483,35.673,24.221,35.673
		 M26.008,32.699c-0.595-0.306-1.325-0.4-2.252-0.4c-0.791,0-1.464,0.072-2.031,0.32c-0.573,0.224-1.028,0.686-1.288,1.346
		c-0.252,0.687-0.376,1.667-0.376,2.688c0,0.872,0.087,1.572,0.261,2.157c0.234,0.887,0.72,1.479,1.351,1.802
		c0.636,0.309,1.379,0.376,2.249,0.388c1.559-0.012,2.738-0.437,2.768-0.445l0.28-0.111l-0.292-1.896l-0.375,0.072
		c-0.786,0.172-1.44,0.308-2.244,0.308c-0.292,0-0.62,0-0.906-0.047c-0.281-0.075-0.502-0.179-0.652-0.363
		c-0.191-0.271-0.281-0.762-0.281-1.231v-0.175c0.006-0.044,0.017-0.056,0.032-0.056l0.006-0.005c0.01,0,0.015,0,0.047,0.005
		c0.031,0.006,0.058,0.021,0.092,0.056l0.387,0.395l0.073,0.053l0.073,0.022c0.021,0.014,0.525,0.103,1.551,0.103
		c1.08-0.012,1.997-0.12,2.433-0.139l0.331-0.009l0.016-0.336c0.029-0.566,0.034-0.839,0.034-1.125c0-0.688-0.034-1.282-0.16-1.757
		C26.969,33.588,26.585,33.019,26.008,32.699"/>
	<path fill="#024731" d="M46.731,38.059c-0.016,0.247-0.069,0.434-0.116,0.542c-0.089,0.169-0.131,0.21-0.31,0.285
		c-0.179,0.07-0.51,0.089-0.957,0.089c-0.404,0-0.688-0.008-0.888-0.069c-0.137-0.024-0.211-0.075-0.263-0.136
		c-0.095-0.072-0.168-0.252-0.221-0.598c-0.058-0.332-0.069-0.852-0.069-1.519c0-0.591,0.012-1.069,0.054-1.402
		c0.037-0.245,0.068-0.431,0.115-0.539c0.101-0.172,0.142-0.228,0.32-0.289c0.189-0.063,0.51-0.085,0.951-0.085
		c0.405,0,0.694,0.003,0.888,0.058c0.143,0.039,0.206,0.078,0.279,0.145c0.068,0.078,0.146,0.241,0.205,0.595
		c0.052,0.341,0.068,0.844,0.058,1.519C46.789,37.25,46.772,37.718,46.731,38.059 M48.455,33.502
		c-0.242-0.483-0.668-0.816-1.193-0.978c-0.499-0.173-1.135-0.226-1.913-0.226c-0.693,0-1.271,0.05-1.744,0.175
		c-0.357,0.09-0.673,0.244-0.936,0.475c-0.389,0.342-0.615,0.831-0.741,1.431c-0.11,0.607-0.162,1.342-0.162,2.274
		c0,0.822,0.031,1.505,0.126,2.083c0.078,0.407,0.188,0.764,0.356,1.074c0.253,0.479,0.673,0.809,1.178,0.98
		c0.525,0.164,1.135,0.197,1.923,0.209c0.694-0.012,1.267-0.039,1.745-0.167c0.362-0.1,0.678-0.247,0.936-0.488
		c0.389-0.325,0.62-0.825,0.735-1.417c0.132-0.601,0.158-1.333,0.158-2.274c0-0.831-0.026-1.503-0.111-2.084
		C48.733,34.168,48.628,33.802,48.455,33.502"/>
	<path fill="#024731" d="M85.797,34.115c-0.156-0.642-0.456-1.155-0.955-1.446c-0.495-0.289-1.104-0.37-1.893-0.37
		c-0.288,0-0.867,0.072-0.872,0.072l-0.094,0.009h-0.006l-0.836,0.685c-0.042,0.023-0.058,0.043-0.09,0.064
		c-0.052,0.018-0.078-0.021-0.095-0.05l-0.063-0.686h-1.786v8.489h2.106v-6.359c0.363-0.077,0.884-0.136,1.371-0.136
		c0.311,0,0.558,0.008,0.727,0.047c0.115,0.039,0.205,0.067,0.235,0.094c0.079,0.041,0.127,0.123,0.18,0.331
		c0.047,0.181,0.067,0.495,0.067,0.908v5.115h2.124v-5.237C85.919,35.04,85.882,34.528,85.797,34.115"/>
	<path fill="#024731" d="M95,40.883c-0.169-0.149-0.342-0.309-0.51-0.449c0-0.007-0.017-0.028-0.048-0.043
		c0-0.008,0-0.019-0.021-0.019c-2.386-2.214-3.032-4.077-3.032-4.077l1.42-1.666l1.334-1.646l0.71-0.809l-0.521,0.028h-1.976
		l-2.712,3.146c-0.048,0.067-0.11,0.105-0.157,0.151c-0.085,0.065-0.194,0.043-0.194,0.043v-6.48h-2.114v11.821h2.114v-3.748
		c0,0,0.168-0.013,0.221,0.065c0,0,1.145,2.389,2.753,3.683H95z"/>
	<path fill="#024731" d="M75.687,38.736c-0.404,0.069-1.197,0.22-1.871,0.22c-0.23,0-0.446-0.009-0.594-0.051
		c-0.115,0-0.179-0.02-0.241-0.039c-0.073-0.056-0.084-0.074-0.12-0.164c-0.053-0.089-0.085-0.279-0.085-0.571
		c0-0.325,0.032-0.524,0.085-0.633c0.03-0.101,0.047-0.117,0.067-0.156c0.036-0.021,0.115-0.051,0.294-0.074h0.689l1.775-0.051
		V38.736z M77.573,33.685c-0.142-0.38-0.399-0.68-0.741-0.896c-0.594-0.381-1.393-0.489-2.428-0.489
		c-1.808,0-3.096,0.428-3.132,0.442l-0.299,0.094l0.305,1.985l0.403-0.105c0,0,0.079-0.016,0.201-0.056
		c0.426-0.097,1.376-0.294,2.327-0.294c0.552-0.005,0.936,0.036,1.119,0.137c0.148,0.067,0.222,0.149,0.273,0.258
		c0.053,0.116,0.079,0.28,0.084,0.53l-2.364,0.017c-0.474,0-0.867,0.048-1.221,0.146c-0.509,0.15-0.939,0.465-1.154,0.913
		c-0.237,0.479-0.3,1.037-0.316,1.765c0,0.511,0.032,0.942,0.147,1.321c0.126,0.567,0.483,1.02,0.982,1.25
		c0.505,0.226,1.125,0.286,1.913,0.298c0.489,0,1.109-0.072,1.109-0.072l0.116-0.018l0.846-0.678
		c0.036-0.027,0.063-0.044,0.079-0.066c0.057-0.005,0.083,0.022,0.104,0.047l0.059,0.67h1.828v-5.765
		C77.814,34.558,77.752,34.107,77.573,33.685"/>
	<path fill="#024731" d="M67.441,37.934c-0.026,0.238-0.074,0.422-0.132,0.559c-0.099,0.184-0.184,0.252-0.341,0.318
		c-0.168,0.084-0.437,0.117-0.81,0.117c-0.452,0-0.857-0.042-1.156-0.095c-0.074-0.003-0.121-0.022-0.185-0.041v-4.234
		c0.332-0.084,0.868-0.192,1.382-0.192c0.332,0,0.563,0.03,0.721,0.108c0.115,0.028,0.2,0.084,0.268,0.155
		c0.105,0.104,0.185,0.309,0.247,0.636c0.049,0.319,0.073,0.778,0.073,1.35C67.509,37.164,67.494,37.606,67.441,37.934
		 M68.04,32.551c-0.415-0.171-0.914-0.252-1.503-0.252c-0.199,0-0.426,0.05-0.594,0.062c-0.063,0.02-0.114,0.033-0.146,0.033
		l-0.826,0.699c-0.042,0.015-0.063,0.036-0.089,0.036c-0.042,0.033-0.089,0-0.089-0.021v-4.046h-2.108v11.372l0.248,0.08
		c1.04,0.369,2.164,0.475,2.995,0.486c0.721,0,1.309-0.072,1.803-0.209c0.757-0.236,1.288-0.738,1.565-1.45
		c0.29-0.71,0.357-1.585,0.357-2.727c0-1.431-0.126-2.488-0.599-3.234C68.808,32.984,68.445,32.718,68.04,32.551"/>
	<path fill="#024731" d="M8.688,40.714l0.023,0.02l0.027,0.024c0.021,0,0.714,0.17,1.663,0.17c0.473,0,1.02-0.045,1.579-0.17
		l0.039-0.011l0.011-0.033c2.422-3.854,3.253-7.552,3.537-9.67c0.152-0.878,0.188-1.877,0.188-1.891l-2.507,0.404
		c-0.187,1.413-0.861,5.532-2.742,8.882l-0.079,0.155l-0.069-0.155c-1.292-2.286-1.996-4.622-2.391-6.365
		c-0.184-0.833-0.349-1.989-0.415-2.541L5,29.167C5.01,29.655,5.191,35.04,8.688,40.714"/>
	<g>
	</g>
	<g>
		<path fill="#275140" d="M71.109,11.403v-0.837C71.056,10.784,71.056,11.064,71.109,11.403z"/>
		<path fill="#275140" d="M71.156,10.383c-0.024,0.051-0.031,0.122-0.047,0.184v0.837c0.017,0.106,0.031,0.21,0.058,0.328v-1.373
			C71.162,10.369,71.156,10.383,71.156,10.383z"/>
		<path fill="#275140" d="M71.167,10.358v1.373c0.016,0.07,0.039,0.147,0.059,0.22V10.25C71.192,10.304,71.177,10.337,71.167,10.358
			z"/>
		<path fill="#275140" d="M71.226,10.25v1.701c0.016,0.06,0.034,0.123,0.053,0.185v-1.96C71.261,10.201,71.239,10.229,71.226,10.25z
			"/>
		<path fill="#285240" d="M71.278,10.175v1.96c0.02,0.067,0.034,0.129,0.057,0.199v-2.237
			C71.312,10.126,71.297,10.149,71.278,10.175z"/>
		<path fill="#285240" d="M71.335,10.097v2.237c0.019,0.06,0.038,0.119,0.059,0.181v-2.482
			C71.375,10.054,71.352,10.077,71.335,10.097z"/>
		<path fill="#285340" d="M71.394,10.033v2.482c0.014,0.041,0.032,0.086,0.047,0.128V9.982C71.424,10,71.408,10.016,71.394,10.033z"
			/>
		<path fill="#285340" d="M71.44,9.982v2.661c0.021,0.061,0.045,0.124,0.068,0.186V9.913C71.483,9.937,71.463,9.959,71.44,9.982z"/>
		<path fill="#285341" d="M71.509,9.913v2.916c0.016,0.043,0.03,0.084,0.047,0.128V9.874C71.541,9.887,71.522,9.9,71.509,9.913z"/>
		<path fill="#285341" d="M71.556,9.874v3.083c0.022,0.059,0.039,0.113,0.063,0.173V9.822C71.598,9.839,71.575,9.856,71.556,9.874z"
			/>
		<path fill="#285341" d="M71.619,9.822v3.308c0.016,0.039,0.032,0.078,0.048,0.117V9.782C71.649,9.795,71.636,9.808,71.619,9.822z"
			/>
		<path fill="#285441" d="M71.667,9.782v3.465c0.021,0.05,0.046,0.105,0.067,0.156V9.731C71.71,9.748,71.689,9.765,71.667,9.782z"/>
		<path fill="#295441" d="M71.734,9.731v3.671c0.017,0.04,0.035,0.082,0.053,0.122V9.699C71.771,9.71,71.75,9.72,71.734,9.731z"/>
		<path fill="#295541" d="M71.787,9.699v3.826c0.02,0.045,0.039,0.09,0.059,0.135V9.663C71.826,9.675,71.806,9.687,71.787,9.699z"/>
		<path fill="#295541" d="M71.846,9.663v3.997c0.02,0.045,0.037,0.088,0.058,0.133V9.628C71.884,9.64,71.864,9.651,71.846,9.663z"/>
		<path fill="#2A5541" d="M71.903,9.628v4.165c0.017,0.037,0.03,0.071,0.047,0.108V9.6C71.934,9.609,71.92,9.619,71.903,9.628z"/>
		<path fill="#2A5542" d="M71.95,9.6v4.302c0.02,0.042,0.038,0.084,0.058,0.127V9.564C71.986,9.576,71.971,9.588,71.95,9.6z"/>
		<path fill="#2A5642" d="M72.008,9.564v4.464c0.018,0.038,0.039,0.079,0.058,0.118V9.539C72.048,9.548,72.025,9.556,72.008,9.564z"
			/>
		<path fill="#2A5642" d="M72.065,9.539v4.607c0.017,0.036,0.036,0.072,0.053,0.108V9.517C72.102,9.525,72.082,9.531,72.065,9.539z"
			/>
		<path fill="#2A5642" d="M72.118,9.517v4.737c0.019,0.04,0.039,0.08,0.059,0.12V9.492C72.157,9.5,72.137,9.508,72.118,9.517z"/>
		<path fill="#2A5642" d="M72.177,9.492v4.882c0.019,0.039,0.038,0.078,0.058,0.118V9.468C72.215,9.476,72.195,9.484,72.177,9.492z"
			/>
		<path fill="#2A5742" d="M72.234,9.468v5.024c0.018,0.036,0.034,0.07,0.052,0.106V9.446C72.268,9.453,72.252,9.46,72.234,9.468z"/>
		<path fill="#2A5742" d="M72.286,9.446v5.152c0.021,0.044,0.041,0.085,0.063,0.13V9.419C72.326,9.427,72.309,9.438,72.286,9.446z"
			/>
		<path fill="#2A5742" d="M72.35,9.419v5.309c0.021,0.041,0.037,0.079,0.059,0.12V9.396C72.387,9.403,72.37,9.412,72.35,9.419z"/>
		<path fill="#2C5842" d="M72.408,9.396v5.451c0.017,0.032,0.036,0.066,0.053,0.098V9.382C72.444,9.387,72.424,9.391,72.408,9.396z"
			/>
		<path fill="#2C5842" d="M72.461,9.382v5.563c0.017,0.031,0.035,0.064,0.052,0.096V9.368C72.496,9.374,72.477,9.377,72.461,9.382z"
			/>
		<path fill="#2C5943" d="M72.513,9.368v5.673c0.019,0.035,0.039,0.071,0.058,0.107V9.353C72.552,9.358,72.531,9.363,72.513,9.368z"
			/>
		<path fill="#2C5943" d="M72.57,9.353v5.795c0.018,0.032,0.035,0.065,0.053,0.098V9.339C72.605,9.344,72.588,9.348,72.57,9.353z"/>
		<path fill="#2D5942" d="M72.623,9.339v5.907c0.022,0.042,0.045,0.084,0.068,0.127V9.321C72.668,9.327,72.646,9.333,72.623,9.339z"
			/>
		<path fill="#2E5A43" d="M72.691,9.321v6.052c0.013,0.023,0.024,0.045,0.037,0.068v-6.13C72.716,9.314,72.704,9.318,72.691,9.321z"
			/>
		<path fill="#2E5A43" d="M72.729,9.311v6.13c0.021,0.039,0.041,0.077,0.063,0.116V9.295C72.769,9.3,72.75,9.306,72.729,9.311z"/>
		<path fill="#2E5A43" d="M72.791,9.295v6.263c0.02,0.036,0.037,0.07,0.058,0.106V9.279C72.828,9.284,72.812,9.29,72.791,9.295z"/>
		<path fill="#2E5B43" d="M72.907,9.27c-0.007,0.001-0.015,0.001-0.021,0.002h-0.011c-0.01,0.002-0.017,0.005-0.026,0.007v6.385
			c0.021,0.037,0.038,0.072,0.059,0.109V9.27z"/>
		<path fill="#2E5B43" d="M72.907,9.27v6.503c0.011-0.001,0.039-0.005,0.053-0.008V9.264C72.943,9.267,72.924,9.267,72.907,9.27z"/>
		<path fill="#2E5B43" d="M72.96,9.264v6.501c0.015-0.002,0.038-0.005,0.057-0.008v-6.5C72.998,9.26,72.979,9.261,72.96,9.264z"/>
		<path fill="#2E5C43" d="M73.017,9.257v6.5c0.018-0.002,0.032-0.005,0.053-0.008V9.251C73.052,9.254,73.034,9.255,73.017,9.257z"/>
		<path fill="#2E5C44" d="M73.069,9.251v6.498c0.024-0.003,0.035-0.005,0.063-0.009V9.244C73.112,9.247,73.09,9.248,73.069,9.251z"
			/>
		<path fill="#2F5C44" d="M73.133,9.244v6.496c0.015-0.002,0.032-0.004,0.048-0.006V9.238C73.165,9.241,73.148,9.242,73.133,9.244z"
			/>
		<path fill="#2F5C43" d="M73.181,9.238v6.495c0.016-0.002,0.04-0.005,0.057-0.008V9.232C73.219,9.234,73.199,9.235,73.181,9.238z"
			/>
		<path fill="#305D44" d="M73.237,9.232v6.494c0.016-0.002,0.037-0.004,0.054-0.007V9.226C73.273,9.228,73.255,9.229,73.237,9.232z"
			/>
		<path fill="#305D44" d="M73.291,9.226v6.493c0.02-0.002,0.041-0.005,0.063-0.008V9.218C73.333,9.221,73.312,9.223,73.291,9.226z"
			/>
		<path fill="#305E44" d="M73.354,9.218v6.492c0.018-0.002,0.034-0.004,0.053-0.007V9.212C73.389,9.215,73.371,9.216,73.354,9.218z"
			/>
		<path fill="#305E44" d="M73.406,9.212v6.491c0.022-0.003,0.039-0.005,0.063-0.008v-6.49C73.448,9.208,73.427,9.209,73.406,9.212z"
			/>
		<path fill="#315E44" d="M73.469,9.205v6.49c0.018-0.002,0.028-0.004,0.047-0.006V9.2C73.5,9.202,73.484,9.203,73.469,9.205z"/>
		<path fill="#305F44" d="M73.516,9.2v6.49c0.022-0.003,0.046-0.006,0.069-0.009V9.191C73.563,9.194,73.538,9.197,73.516,9.2z"/>
		<path fill="#305F44" d="M73.585,9.191v6.489c0.009-0.001,0.021-0.002,0.031-0.003V9.188C73.605,9.189,73.596,9.19,73.585,9.191z"
			/>
		<path fill="#315F44" d="M73.616,9.188v6.489c0.023-0.003,0.054-0.006,0.078-0.009V9.179C73.668,9.182,73.643,9.185,73.616,9.188z"
			/>
		<path fill="#326045" d="M73.694,9.179v6.489c0.014-0.001,0.029-0.003,0.043-0.005V9.174C73.723,9.176,73.709,9.177,73.694,9.179z"
			/>
		<path fill="#336044" d="M73.737,9.174v6.489c0.019-0.002,0.039-0.004,0.059-0.007V9.167C73.776,9.169,73.757,9.172,73.737,9.174z"
			/>
		<path fill="#326145" d="M73.796,9.167v6.489c0.019-0.002,0.037-0.004,0.057-0.006V9.161C73.834,9.163,73.814,9.165,73.796,9.167z"
			/>
		<path fill="#326145" d="M73.853,9.161v6.489c0.02-0.002,0.038-0.004,0.059-0.007V9.154C73.892,9.156,73.872,9.159,73.853,9.161z"
			/>
		<path fill="#326145" d="M73.911,9.154v6.489c0.019-0.002,0.034-0.004,0.053-0.006V9.148C73.946,9.15,73.929,9.152,73.911,9.154z"
			/>
		<path fill="#336245" d="M73.964,9.148v6.489c0.022-0.002,0.04-0.004,0.063-0.007V9.141C74.006,9.143,73.984,9.146,73.964,9.148z"
			/>
		<path fill="#336245" d="M74.026,9.141v6.489c0.016-0.002,0.026-0.003,0.042-0.005V9.136C74.055,9.137,74.04,9.139,74.026,9.141z"
			/>
		<path fill="#356345" d="M74.068,9.136v6.489c0.021-0.002,0.041-0.004,0.063-0.007v-6.49C74.109,9.131,74.09,9.134,74.068,9.136z"
			/>
		<path fill="#356345" d="M74.131,9.128v6.49c0.021-0.002,0.047-0.004,0.068-0.007V9.121C74.176,9.123,74.154,9.126,74.131,9.128z"
			/>
		<path fill="#356345" d="M74.199,9.121v6.491c0.012-0.001,0.025-0.002,0.037-0.003V9.116C74.224,9.118,74.212,9.12,74.199,9.121z"
			/>
		<path fill="#356346" d="M74.236,9.116v6.492c0.021-0.002,0.046-0.004,0.068-0.007V9.108C74.281,9.11,74.26,9.114,74.236,9.116z"/>
		<path fill="#356346" d="M74.305,9.108v6.493c0.017-0.001,0.035-0.003,0.053-0.005V9.103C74.34,9.104,74.322,9.107,74.305,9.108z"
			/>
		<path fill="#346446" d="M74.357,9.103v6.493c0.016-0.001,0.031-0.003,0.047-0.004V9.097C74.389,9.098,74.373,9.101,74.357,9.103z"
			/>
		<path fill="#356546" d="M74.404,9.097v6.495c0.021-0.002,0.041-0.004,0.063-0.006V9.09C74.445,9.091,74.426,9.095,74.404,9.097z"
			/>
		<path fill="#356546" d="M74.467,9.09v6.495c0.018-0.001,0.035-0.003,0.054-0.005V9.083C74.502,9.085,74.485,9.088,74.467,9.09z"/>
		<path fill="#356546" d="M74.521,9.083v6.497c0.02-0.002,0.038-0.004,0.058-0.006V9.077C74.559,9.078,74.54,9.082,74.521,9.083z"/>
		<path fill="#376546" d="M74.578,9.077v6.498c0.021-0.002,0.041-0.004,0.063-0.006V9.069C74.62,9.071,74.6,9.075,74.578,9.077z"/>
		<path fill="#366647" d="M74.642,9.069v6.499c0.017-0.001,0.03-0.003,0.047-0.004v-6.5C74.672,9.065,74.658,9.068,74.642,9.069z"/>
		<path fill="#376746" d="M74.688,9.064v6.5c0.022-0.002,0.04-0.004,0.063-0.006V9.062C74.73,9.063,74.709,9.063,74.688,9.064z"/>
		<path fill="#376746" d="M74.751,9.062v6.496c0.016-0.001,0.032-0.002,0.048-0.004V9.06C74.783,9.061,74.767,9.06,74.751,9.062z"/>
		<path fill="#376747" d="M74.799,9.06v6.493c0.02-0.001,0.043-0.003,0.063-0.005v-6.49C74.841,9.059,74.819,9.059,74.799,9.06z"/>
		<path fill="#386747" d="M74.861,9.058v6.49c0.019-0.001,0.04-0.003,0.059-0.004V9.056C74.9,9.057,74.881,9.057,74.861,9.058z"/>
		<path fill="#386847" d="M74.92,9.056v6.488c0.017-0.001,0.035-0.003,0.053-0.004V9.054C74.955,9.055,74.938,9.055,74.92,9.056z"/>
		<path fill="#386947" d="M74.973,9.054v6.485c0.018-0.001,0.035-0.002,0.053-0.004V9.052C75.008,9.053,74.99,9.053,74.973,9.054z"
			/>
		<path fill="#396947" d="M75.025,9.052v6.483c0.021-0.002,0.042-0.003,0.063-0.005V9.05C75.067,9.051,75.046,9.051,75.025,9.052z"
			/>
		<path fill="#396947" d="M75.088,9.05v6.48c0.018-0.001,0.035-0.003,0.053-0.004V9.048C75.123,9.049,75.105,9.049,75.088,9.05z"/>
		<path fill="#396947" d="M75.141,9.048v6.478c0.019-0.001,0.038-0.003,0.057-0.004V9.047C75.179,9.047,75.159,9.047,75.141,9.048z"
			/>
		<path fill="#3A6947" d="M75.197,9.047v6.475c0.02-0.001,0.039-0.003,0.059-0.005V9.045C75.236,9.045,75.217,9.046,75.197,9.047z"
			/>
		<path fill="#3A6A47" d="M75.256,9.045v6.472c0.02-0.001,0.038-0.003,0.058-0.004V9.043C75.295,9.043,75.274,9.044,75.256,9.045z"
			/>
		<path fill="#3B6B47" d="M75.313,9.043v6.469c0.015-0.001,0.027-0.002,0.042-0.003V9.042C75.342,9.042,75.327,9.042,75.313,9.043z"
			/>
		<path fill="#3A6B47" d="M75.355,9.042v6.467c0.02-0.001,0.038-0.003,0.058-0.004V9.04C75.394,9.04,75.375,9.041,75.355,9.042z"/>
		<path fill="#3B6B48" d="M75.413,9.04v6.465c0.021-0.001,0.038-0.003,0.059-0.005V9.038C75.452,9.038,75.433,9.039,75.413,9.04z"/>
		<path fill="#3B6B48" d="M75.472,9.038V15.5c0.02-0.001,0.037-0.003,0.057-0.004V9.036C75.51,9.037,75.49,9.037,75.472,9.038z"/>
		<path fill="#3C6C48" d="M75.528,9.036v6.459c0.018-0.001,0.035-0.002,0.053-0.003V9.034C75.563,9.035,75.546,9.035,75.528,9.036z"
			/>
		<path fill="#3C6C48" d="M75.581,9.034v6.458c0.021-0.001,0.043-0.002,0.063-0.003V9.032C75.623,9.033,75.603,9.033,75.581,9.034z"
			/>
		<path fill="#3B6D48" d="M75.645,9.032v6.457c0.017-0.001,0.035-0.002,0.052-0.003V9.03C75.679,9.031,75.662,9.031,75.645,9.032z"
			/>
		<path fill="#3D6D48" d="M75.696,9.03v6.455c0.016-0.001,0.033-0.002,0.049-0.003V9.029C75.729,9.029,75.713,9.03,75.696,9.03z"/>
		<path fill="#3D6D48" d="M75.745,9.029v6.454c0.021-0.001,0.042-0.002,0.063-0.003V9.026C75.787,9.027,75.766,9.028,75.745,9.029z"
			/>
		<path fill="#3D6D48" d="M75.808,9.026v6.453c0.018-0.001,0.035-0.002,0.053-0.003V9.025C75.843,9.025,75.825,9.026,75.808,9.026z"
			/>
		<path fill="#3E6E48" d="M75.86,9.025v6.451c0.022-0.001,0.045-0.002,0.067-0.004V9.022C75.905,9.023,75.883,9.024,75.86,9.025z"/>
		<path fill="#3E6F49" d="M75.928,9.022v6.449c0.015,0,0.028-0.001,0.043-0.002V9.021C75.956,9.021,75.942,9.022,75.928,9.022z"/>
		<path fill="#3E6F49" d="M75.971,9.021v6.448c0.021-0.001,0.042-0.002,0.063-0.004V9.019C76.012,9.02,75.992,9.021,75.971,9.021z"
			/>
		<path fill="#3E6F49" d="M76.033,9.019v6.447c0.015,0,0.028-0.001,0.043-0.002V9.018C76.062,9.018,76.048,9.019,76.033,9.019z"/>
		<path fill="#3E6F49" d="M76.076,9.018v6.446c0.02-0.001,0.037-0.002,0.057-0.003V9.016C76.113,9.016,76.096,9.018,76.076,9.018z"
			/>
		<path fill="#3F7149" d="M76.133,9.016v6.444c0.018-0.001,0.035-0.002,0.053-0.003V9.014C76.168,9.015,76.15,9.016,76.133,9.016z"
			/>
		<path fill="#3F7149" d="M76.186,9.014v6.443c0.021-0.001,0.042-0.002,0.063-0.003V9.012C76.228,9.012,76.207,9.014,76.186,9.014z"
			/>
		<path fill="#407149" d="M76.249,9.012v6.441c0.02-0.001,0.038-0.002,0.058-0.003V9.01C76.287,9.01,76.269,9.012,76.249,9.012z"/>
		<path fill="#417249" d="M76.307,9.01v6.44c0.021-0.001,0.042-0.002,0.063-0.003V9.008C76.349,9.008,76.328,9.01,76.307,9.01z"/>
		<path fill="#407249" d="M76.37,9.008v6.438c0.016-0.001,0.031-0.002,0.047-0.002V9.007C76.401,9.007,76.386,9.008,76.37,9.008z"/>
		<path fill="#417349" d="M76.417,9.007v6.438c0.019-0.001,0.04-0.001,0.059-0.002V9.005C76.455,9.005,76.437,9.006,76.417,9.007z"
			/>
		<path fill="#417349" d="M76.476,9.005v6.438c0.019-0.001,0.038-0.001,0.057-0.002V9.003C76.513,9.003,76.495,9.004,76.476,9.005z"
			/>
		<path fill="#417349" d="M76.532,9.003v6.438c0.02,0,0.039-0.001,0.059-0.001V9.001C76.57,9.001,76.553,9.003,76.532,9.003z"/>
		<path fill="#437449" d="M76.617,9c-0.009,0-0.018,0.001-0.026,0.001v6.438c0.018-0.001,0.035-0.001,0.053-0.002V9H76.617z"/>
		<path fill="#417449" d="M76.644,9v6.437c0.021,0,0.042-0.001,0.063-0.002V9H76.644z"/>
		<path fill="#437549" d="M76.723,9h-0.016v6.435c0.018,0,0.034-0.001,0.052-0.001V9.001C76.746,9.001,76.735,9,76.723,9z"/>
		<path fill="#447549" d="M76.759,9.001v6.433c0.022-0.001,0.046-0.001,0.068-0.002V9.003C76.804,9.003,76.782,9.001,76.759,9.001z"
			/>
		<path fill="#44764A" d="M76.827,9.003v6.429c0.016-0.001,0.032-0.001,0.048-0.002V9.004C76.858,9.004,76.844,9.003,76.827,9.003z"
			/>
		<path fill="#44764A" d="M76.875,9.004v6.426c0.02,0,0.038-0.001,0.058-0.001V9.006C76.913,9.005,76.895,9.004,76.875,9.004z"/>
		<path fill="#44764A" d="M76.933,9.006v6.422c0.016,0,0.031-0.001,0.047-0.001v-6.42C76.964,9.007,76.948,9.006,76.933,9.006z"/>
		<path fill="#44774A" d="M76.979,9.007v6.42c0.021-0.001,0.042-0.001,0.063-0.002V9.009C77.021,9.008,77.001,9.007,76.979,9.007z"
			/>
		<path fill="#46774A" d="M77.043,9.009v6.416c0.016,0,0.031-0.001,0.047-0.001V9.01C77.074,9.01,77.059,9.009,77.043,9.009z"/>
		<path fill="#46784A" d="M77.09,9.01v6.414c0.021,0,0.042-0.001,0.063-0.002v-6.41C77.132,9.011,77.111,9.01,77.09,9.01z"/>
		<path fill="#46784A" d="M77.153,9.012v6.41c0.016,0,0.031-0.001,0.047-0.001V9.013C77.185,9.013,77.169,9.012,77.153,9.012z"/>
		<path fill="#46784A" d="M77.2,9.013v6.407c0.018,0,0.035-0.001,0.053-0.002V9.014C77.235,9.014,77.218,9.013,77.2,9.013z"/>
		<path fill="#47794A" d="M77.253,9.014v6.404c0.023,0,0.045-0.001,0.068-0.002v-6.4C77.299,9.016,77.275,9.015,77.253,9.014z"/>
		<path fill="#47794A" d="M77.321,9.016v6.4c0.019,0,0.039,0,0.058,0V9.018C77.359,9.017,77.341,9.017,77.321,9.016z"/>
		<path fill="#477A4A" d="M77.379,9.018v6.398c0.018,0,0.035,0,0.053,0V9.019C77.414,9.019,77.396,9.018,77.379,9.018z"/>
		<path fill="#477A4A" d="M77.432,9.019v6.397c0.018,0,0.035,0,0.053,0V9.021C77.467,9.02,77.449,9.02,77.432,9.019z"/>
		<path fill="#477A4A" d="M77.484,9.021v6.395c0.02,0,0.039,0,0.058,0V9.022C77.523,9.021,77.504,9.021,77.484,9.021z"/>
		<path fill="#497B4B" d="M77.542,9.022v6.394c0.016,0,0.031,0,0.047,0V9.023C77.573,9.023,77.558,9.022,77.542,9.022z"/>
		<path fill="#497A4A" d="M77.589,9.023v6.392c0.021,0,0.042,0,0.063,0V9.025C77.632,9.024,77.609,9.024,77.589,9.023z"/>
		<path fill="#497B4B" d="M77.652,9.025v6.391c0.018,0,0.035,0,0.053,0V9.026C77.688,9.026,77.67,9.026,77.652,9.025z"/>
		<path fill="#4A7C4B" d="M77.705,9.026v6.389c0.019,0,0.038,0,0.057,0V9.028C77.743,9.027,77.724,9.027,77.705,9.026z"/>
		<path fill="#4A7C4B" d="M77.762,9.028v6.388c0.018,0,0.035,0,0.053,0V9.029C77.797,9.029,77.779,9.029,77.762,9.028z"/>
		<path fill="#4B7D4B" d="M77.814,9.029v6.386c0.02,0,0.039,0,0.059,0V9.031C77.854,9.03,77.834,9.03,77.814,9.029z"/>
		<path fill="#4C7D4B" d="M77.873,9.031v6.384c0.018,0,0.035,0,0.053,0V9.033C77.908,9.032,77.891,9.032,77.873,9.031z"/>
		<path fill="#4B7E4B" d="M77.926,9.033v6.383c0.02,0,0.038,0,0.058,0V9.037C77.964,9.036,77.945,9.034,77.926,9.033z"/>
		<path fill="#4C7E4B" d="M77.983,9.037v6.378c0.016,0,0.031,0,0.047,0V9.04C78.015,9.039,77.999,9.037,77.983,9.037z"/>
		<path fill="#4C7E4B" d="M78.03,9.04v6.375c0.021,0,0.042,0,0.063,0V9.044C78.072,9.043,78.052,9.041,78.03,9.04z"/>
		<path fill="#4C7E4B" d="M78.094,9.044v6.371c0.018,0,0.035,0,0.053,0V9.047C78.129,9.046,78.111,9.045,78.094,9.044z"/>
		<path fill="#4C7E4B" d="M78.146,9.047v6.368c0.022,0,0.045,0,0.067,0V9.052C78.191,9.051,78.169,9.049,78.146,9.047z"/>
		<path fill="#4D804B" d="M78.214,9.052v6.363c0.016,0,0.031,0,0.047,0v-6.36C78.245,9.054,78.229,9.053,78.214,9.052z"/>
		<path fill="#4D804B" d="M78.261,9.055v6.36c0.008,0,0.015,0,0.022,0c0.013,0,0.023,0.001,0.036,0.001V9.059
			C78.3,9.058,78.28,9.057,78.261,9.055z"/>
		<path fill="#4E814B" d="M78.319,9.059v6.357c0.019,0,0.034,0.001,0.053,0.002V9.063C78.354,9.062,78.337,9.06,78.319,9.059z"/>
		<path fill="#4E814B" d="M78.372,9.063v6.356c0.021,0,0.038,0.001,0.058,0.002V9.066C78.41,9.065,78.392,9.064,78.372,9.063z"/>
		<path fill="#4F824B" d="M78.43,9.066v6.354c0.021,0,0.038,0.001,0.059,0.002V9.07C78.469,9.069,78.449,9.068,78.43,9.066z"/>
		<path fill="#4F824B" d="M78.488,9.07v6.353c0.02,0,0.037,0.001,0.057,0.002V9.074C78.526,9.073,78.507,9.072,78.488,9.07z"/>
		<path fill="#50834C" d="M78.545,9.074v6.351c0.018,0.001,0.035,0.001,0.053,0.002V9.078C78.58,9.077,78.563,9.076,78.545,9.074z"
			/>
		<path fill="#51824C" d="M78.598,9.078v6.349c0.018,0,0.035,0.001,0.053,0.002V9.082C78.633,9.08,78.615,9.079,78.598,9.078z"/>
		<path fill="#51844C" d="M78.65,9.082v6.348c0.018,0,0.035,0.001,0.053,0.002V9.085C78.686,9.083,78.668,9.083,78.65,9.082z"/>
		<path fill="#51844C" d="M78.703,9.085v6.346c0.021,0,0.042,0.001,0.063,0.002V9.089C78.745,9.088,78.724,9.086,78.703,9.085z"/>
		<path fill="#51844C" d="M78.766,9.089v6.344c0.02,0.001,0.039,0.001,0.059,0.002V9.093C78.805,9.092,78.785,9.091,78.766,9.089z"
			/>
		<path fill="#52854C" d="M78.824,9.093v6.342c0.018,0.001,0.035,0.001,0.053,0.002V9.097C78.859,9.095,78.842,9.095,78.824,9.093z"
			/>
		<path fill="#52854C" d="M78.877,9.097v6.341c0.021,0,0.043,0.001,0.063,0.002V9.101C78.92,9.1,78.898,9.098,78.877,9.097z"/>
		<path fill="#53864C" d="M78.94,9.101v6.339c0.016,0,0.032,0.001,0.047,0.001V9.104C78.972,9.103,78.956,9.102,78.94,9.101z"/>
		<path fill="#53864C" d="M78.987,9.104v6.338c0.021,0.001,0.042,0.001,0.063,0.002V9.108C79.029,9.106,79.008,9.105,78.987,9.104z"
			/>
		<path fill="#53864C" d="M79.087,9.111c-0.013-0.001-0.024-0.001-0.037-0.002v6.336c0.017,0.001,0.036,0.001,0.053,0.002V9.112
			C79.098,9.112,79.092,9.111,79.087,9.111z"/>
		<path fill="#54874C" d="M79.103,9.112v6.334c0.017,0.001,0.036,0.001,0.053,0.002V9.117C79.139,9.115,79.119,9.113,79.103,9.112z"
			/>
		<path fill="#54874C" d="M79.155,9.117v6.332c0.021,0.001,0.042,0.002,0.063,0.003v-6.33C79.197,9.12,79.175,9.118,79.155,9.117z"
			/>
		<path fill="#54874C" d="M79.218,9.122v6.33c0.019,0.001,0.035,0.002,0.054,0.004V9.126C79.254,9.125,79.235,9.123,79.218,9.122z"
			/>
		<path fill="#55874C" d="M79.271,9.126v6.329c0.02,0.001,0.037,0.002,0.057,0.004V9.131C79.31,9.13,79.29,9.128,79.271,9.126z"/>
		<path fill="#55884B" d="M79.328,9.131v6.328c0.021,0.001,0.042,0.003,0.063,0.004V9.137C79.37,9.135,79.35,9.133,79.328,9.131z"/>
		<path fill="#55884B" d="M79.392,9.137v6.327c0.015,0.001,0.027,0.002,0.042,0.003V9.14C79.42,9.139,79.405,9.138,79.392,9.137z"/>
		<path fill="#56894B" d="M79.434,9.14v6.327c0.021,0.001,0.041,0.003,0.063,0.005V9.146C79.475,9.144,79.455,9.142,79.434,9.14z"/>
		<path fill="#56894B" d="M79.496,9.146v6.326c0.017,0.001,0.032,0.002,0.049,0.003V9.15C79.528,9.148,79.513,9.147,79.496,9.146z"
			/>
		<path fill="#568A4B" d="M79.545,9.15v6.325c0.022,0.001,0.045,0.003,0.067,0.004V9.155C79.589,9.153,79.568,9.152,79.545,9.15z"/>
		<path fill="#578A4C" d="M79.612,9.155v6.324c0.012,0.001,0.024,0.002,0.036,0.003V9.159C79.636,9.157,79.625,9.157,79.612,9.155z"
			/>
		<path fill="#578B4B" d="M79.648,9.159v6.324c0.025,0.002,0.051,0.003,0.075,0.005V9.166C79.698,9.164,79.674,9.161,79.648,9.159z"
			/>
		<path fill="#598C4B" d="M79.724,9.166v6.322c0.017,0.001,0.035,0.002,0.052,0.003V9.172C79.759,9.17,79.74,9.168,79.724,9.166z"/>
		<path fill="#598C4B" d="M79.775,9.172v6.319c0.017,0.001,0.035,0.002,0.052,0.004V9.178C79.811,9.176,79.792,9.173,79.775,9.172z"
			/>
		<path fill="#598D4C" d="M79.827,9.178v6.317c0.019,0.001,0.04,0.002,0.059,0.004V9.184C79.866,9.182,79.847,9.18,79.827,9.178z"/>
		<path fill="#5A8E4C" d="M79.886,9.184v6.315c0.019,0.002,0.039,0.003,0.058,0.004V9.19C79.924,9.188,79.904,9.186,79.886,9.184z"
			/>
		<path fill="#5A8E4C" d="M79.943,9.19v6.313c0.017,0.001,0.036,0.002,0.053,0.004V9.196C79.979,9.194,79.961,9.192,79.943,9.19z"/>
		<path fill="#5A8E4C" d="M79.996,9.196v6.311c0.021,0.002,0.041,0.004,0.063,0.006v-6.31C80.038,9.201,80.017,9.199,79.996,9.196z"
			/>
		<path fill="#5A8E4C" d="M80.059,9.203v6.31c0.017,0.001,0.031,0.004,0.048,0.005v-6.31C80.09,9.207,80.074,9.205,80.059,9.203z"/>
		<path fill="#5A8E4C" d="M80.106,9.208v6.31c0.019,0.002,0.034,0.004,0.053,0.006v-6.31C80.142,9.212,80.124,9.21,80.106,9.208z"/>
		<path fill="#5B8F4C" d="M80.159,9.214v6.31c0.019,0.002,0.034,0.004,0.053,0.006V9.22C80.194,9.218,80.177,9.216,80.159,9.214z"/>
		<path fill="#5B8F4C" d="M80.212,9.22v6.31c0.023,0.002,0.045,0.005,0.067,0.007v-6.31C80.256,9.225,80.234,9.223,80.212,9.22z"/>
		<path fill="#5B8F4C" d="M80.279,9.228v6.31c0.015,0.001,0.028,0.003,0.043,0.005v-6.31C80.308,9.23,80.294,9.229,80.279,9.228z"/>
		<path fill="#5C904C" d="M80.322,9.232v6.31c0.02,0.002,0.038,0.004,0.057,0.006V9.24C80.36,9.238,80.341,9.235,80.322,9.232z"/>
		<path fill="#5C914C" d="M80.379,9.24v6.309c0.023,0.002,0.047,0.005,0.069,0.008V9.25C80.426,9.247,80.401,9.243,80.379,9.24z"/>
		<path fill="#5D914C" d="M80.448,9.25v6.307c0.014,0.001,0.028,0.003,0.042,0.004V9.256C80.477,9.254,80.462,9.252,80.448,9.25z"/>
		<path fill="#5E924C" d="M80.49,9.256v6.305c0.019,0.002,0.039,0.004,0.058,0.006V9.264C80.528,9.262,80.51,9.258,80.49,9.256z"/>
		<path fill="#5E924C" d="M80.548,9.264v6.303c0.017,0.002,0.035,0.004,0.052,0.006V9.271C80.582,9.269,80.565,9.267,80.548,9.264z"
			/>
		<path fill="#5E924C" d="M80.6,9.271v6.302c0.022,0.003,0.048,0.005,0.069,0.008v-6.3C80.646,9.278,80.623,9.274,80.6,9.271z"/>
		<path fill="#5F934C" d="M80.669,9.281v6.3c0.017,0.002,0.036,0.003,0.053,0.006V9.289C80.704,9.286,80.687,9.284,80.669,9.281z"/>
		<path fill="#5F934C" d="M80.722,9.289v6.298c0.02,0.002,0.037,0.005,0.057,0.008V9.296C80.76,9.294,80.74,9.291,80.722,9.289z"/>
		<path fill="#5F934C" d="M80.778,9.296v6.298c0.021,0.003,0.038,0.006,0.059,0.009V9.305C80.817,9.302,80.798,9.299,80.778,9.296z"
			/>
		<path fill="#60944C" d="M80.837,9.305v6.299c0.021,0.003,0.038,0.006,0.058,0.009V9.313C80.875,9.31,80.856,9.308,80.837,9.305z"
			/>
		<path fill="#61954B" d="M80.895,9.313v6.301c0.019,0.002,0.035,0.005,0.053,0.008V9.32C80.93,9.317,80.912,9.315,80.895,9.313z"/>
		<path fill="#60954C" d="M80.947,9.32v6.301c0.021,0.003,0.041,0.006,0.063,0.01V9.329C80.988,9.326,80.969,9.323,80.947,9.32z"/>
		<path fill="#62964B" d="M81.01,9.329v6.302c0.014,0.002,0.028,0.004,0.042,0.007V9.336C81.038,9.334,81.023,9.332,81.01,9.329z"/>
		<path fill="#62964B" d="M81.052,9.336v6.302c0.02,0.003,0.039,0.006,0.058,0.009v-6.3C81.09,9.344,81.071,9.34,81.052,9.336z"/>
		<path fill="#63974B" d="M81.109,9.347v6.3c0.018,0.003,0.035,0.005,0.053,0.008V9.356C81.145,9.353,81.127,9.35,81.109,9.347z"/>
		<path fill="#64974B" d="M81.162,9.356v6.299c0.021,0.004,0.044,0.007,0.064,0.01V9.367C81.205,9.364,81.184,9.359,81.162,9.356z"
			/>
		<path fill="#63984B" d="M81.227,9.367v6.298c0.019,0.003,0.039,0.006,0.057,0.009V9.377C81.265,9.374,81.245,9.371,81.227,9.367z"
			/>
		<path fill="#64984C" d="M81.283,9.377v6.298c0.019,0.003,0.04,0.005,0.058,0.009V9.387C81.321,9.384,81.303,9.38,81.283,9.377z"/>
		<path fill="#64994C" d="M81.341,9.387v6.296c0.016,0.003,0.032,0.006,0.048,0.009V9.396C81.373,9.393,81.356,9.39,81.341,9.387z"
			/>
		<path fill="#64994C" d="M81.389,9.396v6.297c0.026,0.005,0.048,0.011,0.073,0.016V9.409C81.438,9.404,81.413,9.4,81.389,9.396z"/>
		<path fill="#649A4D" d="M81.462,9.409v6.299c0.012,0.002,0.021,0.005,0.032,0.007V9.414C81.483,9.412,81.473,9.411,81.462,9.409z"
			/>
		<path fill="#659B4C" d="M81.494,9.414v6.301c0.023,0.004,0.045,0.01,0.067,0.015V9.426C81.539,9.422,81.517,9.418,81.494,9.414z"
			/>
		<path fill="#659B4C" d="M81.562,9.426v6.304c0.021,0.004,0.042,0.009,0.063,0.014V9.437C81.604,9.433,81.583,9.43,81.562,9.426z"
			/>
		<path fill="#679B4C" d="M81.625,9.437v6.307c0.016,0.003,0.032,0.007,0.048,0.01V9.445C81.657,9.442,81.641,9.44,81.625,9.437z"/>
		<path fill="#679C4C" d="M81.673,9.445v6.309c0.018,0.004,0.036,0.008,0.053,0.012v-6.31C81.708,9.453,81.69,9.449,81.673,9.445z"
			/>
		<path fill="#679C4D" d="M81.726,9.456v6.31c0.021,0.004,0.043,0.009,0.063,0.013V9.47C81.768,9.465,81.746,9.46,81.726,9.456z"/>
		<path fill="#689E4C" d="M81.788,9.47v6.309c0.019,0.004,0.04,0.008,0.058,0.013V9.482C81.826,9.479,81.808,9.474,81.788,9.47z"/>
		<path fill="#689E4C" d="M81.846,9.482v6.309c0.019,0.004,0.041,0.008,0.059,0.013V9.495C81.885,9.491,81.865,9.486,81.846,9.482z"
			/>
		<path fill="#699E4C" d="M81.904,9.495v6.309c0.017,0.004,0.03,0.009,0.047,0.013V9.505C81.936,9.502,81.92,9.499,81.904,9.495z"/>
		<path fill="#6A9F4C" d="M81.951,9.505v6.312c0.022,0.006,0.041,0.013,0.063,0.019V9.519C81.993,9.515,81.972,9.51,81.951,9.505z"
			/>
		<path fill="#6BA04D" d="M82.014,9.519v6.317c0.017,0.004,0.031,0.009,0.047,0.014v-6.32C82.045,9.526,82.029,9.522,82.014,9.519z"
			/>
		<path fill="#6A9F4C" d="M82.061,9.529v6.32c0.017,0.004,0.031,0.009,0.048,0.014V9.54C82.093,9.536,82.076,9.533,82.061,9.529z"/>
		<path fill="#6BA04B" d="M82.108,9.54v6.324c0.023,0.007,0.046,0.014,0.068,0.021V9.555C82.154,9.549,82.131,9.545,82.108,9.54z"/>
		<path fill="#6BA04B" d="M82.177,9.555v6.329c0.018,0.005,0.036,0.01,0.053,0.015V9.566C82.212,9.562,82.194,9.559,82.177,9.555z"
			/>
		<path fill="#6CA14C" d="M82.229,9.566v6.333c0.017,0.005,0.035,0.01,0.052,0.015V9.578C82.264,9.573,82.247,9.57,82.229,9.566z"/>
		<path fill="#6CA14C" d="M82.281,9.578v6.336c0.02,0.007,0.044,0.012,0.063,0.019V9.591C82.324,9.586,82.303,9.583,82.281,9.578z"
			/>
		<path fill="#6CA24B" d="M82.345,9.591v6.342c0.017,0.005,0.031,0.011,0.048,0.017V9.602C82.377,9.598,82.36,9.595,82.345,9.591z"
			/>
		<path fill="#6DA24C" d="M82.393,9.602v6.348c0.021,0.007,0.037,0.016,0.058,0.023V9.618C82.431,9.613,82.412,9.607,82.393,9.602z"
			/>
		<path fill="#6DA34B" d="M82.45,9.618v6.355c0.022,0.008,0.041,0.017,0.063,0.025V9.635C82.491,9.629,82.472,9.623,82.45,9.618z"/>
		<path fill="#6DA44C" d="M82.513,9.635v6.363c0.018,0.007,0.035,0.014,0.053,0.021v-6.37C82.548,9.645,82.53,9.64,82.513,9.635z"/>
		<path fill="#6EA44B" d="M82.565,9.649v6.37c0.016,0.006,0.032,0.012,0.047,0.019V9.662C82.597,9.658,82.581,9.653,82.565,9.649z"
			/>
		<path fill="#6FA44B" d="M82.612,9.662v6.376c0.021,0.008,0.044,0.017,0.063,0.025V9.68C82.654,9.674,82.634,9.668,82.612,9.662z"
			/>
		<path fill="#70A64A" d="M82.676,9.68v6.383c0.021,0.009,0.045,0.018,0.064,0.027V9.697C82.719,9.691,82.697,9.686,82.676,9.68z"/>
		<path fill="#70A64A" d="M82.74,9.697v6.393c0.016,0.007,0.026,0.015,0.041,0.023V9.708C82.768,9.705,82.754,9.701,82.74,9.697z"/>
		<path fill="#70A64C" d="M82.781,9.708v6.405c0.025,0.012,0.045,0.025,0.068,0.038V9.727C82.827,9.721,82.804,9.715,82.781,9.708z"
			/>
		<path fill="#71A74B" d="M82.85,9.727v6.424c0.016,0.009,0.031,0.018,0.047,0.026V9.74C82.881,9.735,82.865,9.731,82.85,9.727z"/>
		<path fill="#71A74B" d="M82.896,9.74v6.438c0.021,0.012,0.044,0.023,0.063,0.035V9.757C82.939,9.751,82.917,9.746,82.896,9.74z"/>
		<path fill="#72A84A" d="M82.96,9.757v6.456c0.013,0.008,0.029,0.016,0.042,0.023V9.769C82.988,9.765,82.974,9.761,82.96,9.757z"/>
		<path fill="#73A94B" d="M83.002,9.769v6.468c0.005,0.003,0.011,0.006,0.016,0.009c0.021,0.013,0.033,0.029,0.053,0.043v-6.5
			C83.048,9.782,83.024,9.775,83.002,9.769z"/>
		<path fill="#73A94B" d="M83.07,9.789v6.5c0.02,0.014,0.035,0.029,0.053,0.043V9.807C83.104,9.801,83.089,9.794,83.07,9.789z"/>
		<path fill="#74A94B" d="M83.123,9.807v6.525c0.021,0.017,0.045,0.034,0.063,0.052V9.829C83.165,9.822,83.145,9.813,83.123,9.807z"
			/>
		<path fill="#74AA4B" d="M83.187,9.829v6.554c0.015,0.015,0.033,0.028,0.047,0.043V9.845C83.218,9.84,83.202,9.834,83.187,9.829z"
			/>
		<path fill="#73AB4A" d="M83.233,9.845v6.582c0.025,0.028,0.042,0.059,0.063,0.088V9.867C83.274,9.86,83.255,9.852,83.233,9.845z"
			/>
		<path fill="#73AB4A" d="M83.296,9.867v6.648c0.016,0.022,0.034,0.044,0.048,0.068v-6.7C83.328,9.878,83.313,9.872,83.296,9.867z"
			/>
		<path fill="#75AB4B" d="M83.344,9.883v6.7c0.028,0.05,0.05,0.102,0.068,0.154v-6.83C83.39,9.899,83.366,9.891,83.344,9.883z"/>
		<path fill="#75AB4B" d="M83.386,17.687c0.008-0.014,0.019-0.034,0.026-0.049v-0.031C83.403,17.636,83.394,17.666,83.386,17.687z"
			/>
		<path fill="#76AD4C" d="M83.412,17.606v0.031c0.015-0.026,0.031-0.059,0.047-0.087v-0.146
			C83.445,17.484,83.429,17.551,83.412,17.606z"/>
		<path fill="#76AD4C" d="M83.412,9.907v6.83c0.021,0.058,0.037,0.114,0.047,0.172V9.923C83.443,9.918,83.428,9.913,83.412,9.907z"
			/>
		<path fill="#76AD4C" d="M83.459,17.55c0.021-0.038,0.042-0.077,0.063-0.118V9.945c-0.021-0.008-0.043-0.015-0.063-0.022v6.986
			c0.031,0.177,0.024,0.351,0,0.494V17.55z"/>
		<path fill="#77AE4B" d="M83.564,17.354V9.96c-0.014-0.005-0.028-0.01-0.042-0.015v7.486C83.537,17.405,83.55,17.382,83.564,17.354
			z"/>
		<path fill="#77AE4B" d="M83.627,17.234V9.981c-0.021-0.008-0.042-0.014-0.063-0.021v7.394
			C83.585,17.314,83.605,17.275,83.627,17.234z"/>
		<path fill="#76AE4C" d="M83.68,17.13V10c-0.017-0.007-0.036-0.012-0.053-0.019v7.252C83.644,17.202,83.662,17.164,83.68,17.13z"/>
		<path fill="#77AF4C" d="M83.728,17.036v-7.015c-0.017-0.006-0.031-0.015-0.048-0.021v7.13
			C83.695,17.1,83.712,17.068,83.728,17.036z"/>
		<path fill="#77AF4C" d="M83.795,16.904v-6.853c-0.023-0.009-0.044-0.021-0.067-0.03v7.015
			C83.75,16.992,83.771,16.95,83.795,16.904z"/>
		<path fill="#79B04C" d="M83.848,16.799v-6.724c-0.018-0.008-0.034-0.016-0.053-0.024v6.853
			C83.813,16.868,83.829,16.836,83.848,16.799z"/>
		<path fill="#79B04C" d="M83.9,16.69v-6.592c-0.018-0.008-0.035-0.016-0.053-0.023v6.724C83.865,16.765,83.883,16.726,83.9,16.69z"
			/>
		<path fill="#7AB24C" d="M83.953,16.582v-6.459c-0.018-0.008-0.035-0.016-0.053-0.024v6.592
			C83.918,16.655,83.936,16.618,83.953,16.582z"/>
		<path fill="#7BB34C" d="M84.021,16.44v-6.287c-0.022-0.011-0.046-0.021-0.068-0.031v6.459
			C83.976,16.535,83.998,16.488,84.021,16.44z"/>
		<path fill="#7BB34C" d="M84.074,16.331v-6.154c-0.018-0.008-0.035-0.016-0.053-0.023v6.287
			C84.039,16.403,84.057,16.369,84.074,16.331z"/>
		<path fill="#7DB64D" d="M84.121,16.232v-6.035c-0.015-0.007-0.031-0.014-0.047-0.021v6.154
			C84.09,16.298,84.105,16.266,84.121,16.232z"/>
		<path fill="#7DB64D" d="M84.185,16.094v-5.867c-0.021-0.01-0.043-0.019-0.063-0.029v6.035
			C84.143,16.187,84.163,16.14,84.185,16.094z"/>
		<path fill="#7DB64D" d="M84.247,15.957v-5.703c-0.02-0.01-0.043-0.018-0.063-0.028v5.867
			C84.205,16.048,84.227,16.003,84.247,15.957z"/>
		<path fill="#7DB64D" d="M84.3,15.842v-5.554c-0.016-0.009-0.043-0.028-0.053-0.033v5.703C84.265,15.918,84.282,15.881,84.3,15.842
			z"/>
		<path fill="#7DB64D" d="M84.357,15.716v-5.393c-0.022-0.014-0.041-0.026-0.058-0.036v5.554
			C84.319,15.799,84.338,15.759,84.357,15.716z"/>
		<path fill="#7DB64D" d="M84.416,15.581v-5.22c-0.025-0.019-0.037-0.024-0.059-0.038v5.393
			C84.377,15.671,84.396,15.626,84.416,15.581z"/>
		<path fill="#7DB64D" d="M84.469,15.458v-5.052c-0.017-0.013-0.037-0.034-0.053-0.045v5.22
			C84.434,15.54,84.451,15.499,84.469,15.458z"/>
		<path fill="#7DB64D" d="M84.511,15.359v-4.917c-0.014-0.011-0.029-0.025-0.042-0.036v5.052
			C84.482,15.425,84.497,15.393,84.511,15.359z"/>
		<path fill="#7DB64D" d="M84.584,15.188v-4.685c-0.025-0.022-0.049-0.042-0.073-0.062v4.917
			C84.535,15.302,84.561,15.246,84.584,15.188z"/>
		<path fill="#7DB64D" d="M84.631,15.079v-4.535c-0.017-0.016-0.03-0.025-0.047-0.04v4.685C84.6,15.151,84.616,15.115,84.631,15.079
			z"/>
		<path fill="#7DB64D" d="M84.678,14.959v-4.372c-0.017-0.017-0.03-0.028-0.047-0.044v4.535
			C84.647,15.038,84.661,14.999,84.678,14.959z"/>
		<path fill="#7DB64D" d="M84.742,14.793v-4.129c-0.021-0.023-0.043-0.055-0.064-0.077v4.372
			C84.7,14.903,84.721,14.849,84.742,14.793z"/>
		<path fill="#7DB64D" d="M84.799,14.648v-3.917c-0.02-0.022-0.038-0.047-0.057-0.067v4.129
			C84.762,14.745,84.78,14.696,84.799,14.648z"/>
		<path fill="#7DB64D" d="M84.846,14.528v-3.741c-0.016-0.02-0.031-0.037-0.047-0.056v3.917
			C84.814,14.608,84.831,14.567,84.846,14.528z"/>
		<path fill="#7DB64D" d="M84.915,14.333V10.87c-0.022-0.031-0.046-0.054-0.069-0.083v3.741
			C84.87,14.461,84.892,14.398,84.915,14.333z"/>
		<path fill="#7DB64D" d="M84.962,14.195v-3.262c-0.016-0.023-0.031-0.042-0.047-0.063v3.463
			C84.932,14.286,84.946,14.241,84.962,14.195z"/>
		<path fill="#7DB64D" d="M85.021,14.023v-2.979c-0.021-0.034-0.037-0.078-0.059-0.11v3.262
			C84.981,14.138,85.002,14.079,85.021,14.023z"/>
		<path fill="#7DB64D" d="M85.067,13.882v-2.75c-0.016-0.029-0.03-0.061-0.047-0.088v2.979
			C85.035,13.976,85.054,13.927,85.067,13.882z"/>
		<path fill="#7DB64D" d="M85.136,13.628V11.26c-0.021-0.045-0.045-0.086-0.068-0.128v2.75
			C85.095,13.793,85.113,13.713,85.136,13.628z"/>
		<path fill="#7DB64D" d="M85.183,13.455v-2.106c-0.014-0.033-0.032-0.057-0.047-0.088v2.368
			C85.151,13.571,85.17,13.51,85.183,13.455z"/>
		<path fill="#7DB64D" d="M85.203,13.379c0.021-0.084,0.032-0.157,0.048-0.234v-1.614c-0.021-0.065-0.041-0.118-0.052-0.151
			c-0.005-0.012-0.012-0.02-0.017-0.031v2.106C85.188,13.431,85.198,13.402,85.203,13.379z"/>
		<path fill="#7DB64D" d="M85.298,12.904v-1.196c-0.016-0.07-0.031-0.128-0.047-0.177v1.614
			C85.268,13.063,85.286,12.979,85.298,12.904z"/>
		<path fill="#7DB64D" d="M85.298,11.708v1.196C85.388,12.335,85.352,11.955,85.298,11.708z"/>
	</g>
	<g>
		<path fill="#FBFEFF" d="M66.438,11.837c0,0-0.113,0.113-0.252,0.321l0.268-0.335C66.448,11.828,66.441,11.833,66.438,11.837z"/>
		<path fill="#FBFEFF" d="M66.935,11.408c-0.192,0.15-0.359,0.293-0.481,0.415l-0.268,0.335c-0.094,0.142-0.199,0.33-0.291,0.556
			L66.935,11.408z"/>
		<path fill="#FBFEFF" d="M65.784,13.036l1.492-1.876c-0.127,0.086-0.238,0.168-0.342,0.249l-1.04,1.307
			C65.854,12.815,65.816,12.921,65.784,13.036z"/>
		<path fill="#FBFEFF" d="M65.733,13.286l1.846-2.32c-0.106,0.065-0.209,0.13-0.303,0.193l-1.492,1.876
			C65.763,13.114,65.749,13.202,65.733,13.286z"/>
		<path fill="#FBFEFF" d="M65.7,13.515l2.152-2.707c-0.097,0.054-0.187,0.106-0.273,0.159l-1.846,2.32
			C65.72,13.361,65.708,13.436,65.7,13.515z"/>
		<path fill="#FBFEFF" d="M65.689,13.717l2.417-3.042c-0.086,0.044-0.175,0.089-0.254,0.133L65.7,13.515
			C65.693,13.58,65.691,13.648,65.689,13.717z"/>
		<path fill="#FBFEFF" d="M65.681,13.879c0,0.005,0.001,0.01,0.001,0.015l2.654-3.338c-0.083,0.04-0.152,0.08-0.229,0.12
			l-2.417,3.042C65.688,13.772,65.68,13.822,65.681,13.879z"/>
		<path fill="#FBFEFF" d="M65.699,14.066l2.878-3.621c-0.081,0.037-0.165,0.073-0.241,0.109l-2.654,3.338
			C65.685,13.949,65.695,14.01,65.699,14.066z"/>
		<path fill="#F8FCFF" d="M65.716,14.23l3.083-3.877c-0.073,0.031-0.151,0.062-0.222,0.093l-2.878,3.621
			C65.703,14.12,65.71,14.175,65.716,14.23z"/>
		<path fill="#F8FCFF" d="M65.731,14.386l3.274-4.121c-0.071,0.029-0.138,0.058-0.207,0.087l-3.083,3.877
			C65.722,14.282,65.725,14.333,65.731,14.386z"/>
		<path fill="#F7FCFD" d="M65.754,14.557l3.487-4.391c-0.086,0.032-0.153,0.066-0.235,0.099l-3.274,4.121
			C65.739,14.443,65.744,14.499,65.754,14.557z"/>
		<path fill="#F7FCFD" d="M65.778,14.687l3.642-4.581c-0.057,0.021-0.124,0.04-0.179,0.06l-3.487,4.391
			C65.76,14.599,65.771,14.644,65.778,14.687z"/>
		<path fill="#F5F8FA" d="M65.808,14.837l3.816-4.799c-0.066,0.023-0.141,0.045-0.204,0.068l-3.642,4.581
			C65.787,14.736,65.798,14.787,65.808,14.837z"/>
		<path fill="#F5F8FA" d="M65.838,14.992l3.985-5.02c-0.067,0.022-0.135,0.044-0.199,0.066l-3.816,4.799
			C65.818,14.889,65.827,14.939,65.838,14.992z"/>
		<path fill="#F0F7F7" d="M65.868,15.147l4.169-5.247c-0.075,0.023-0.143,0.047-0.214,0.071l-3.985,5.02
			C65.849,15.044,65.856,15.095,65.868,15.147z"/>
		<path fill="#F0F7F7" d="M65.898,15.27l4.322-5.43c-0.066,0.02-0.119,0.041-0.184,0.061l-4.169,5.247
			C65.877,15.188,65.889,15.229,65.898,15.27z"/>
		<path fill="#EEF5F5" d="M65.938,15.419l4.477-5.632c-0.063,0.018-0.133,0.034-0.194,0.052l-4.322,5.43
			C65.911,15.319,65.926,15.369,65.938,15.419z"/>
		<path fill="#EEF5F5" d="M65.975,15.557L70.6,9.741c-0.06,0.016-0.127,0.03-0.185,0.047l-4.477,5.632
			C65.95,15.465,65.962,15.511,65.975,15.557z"/>
		<path fill="#EEF5F5" d="M66.01,15.69l4.756-5.992c-0.055,0.014-0.112,0.028-0.166,0.042l-4.625,5.816
			C65.986,15.602,65.997,15.646,66.01,15.69z"/>
		<path fill="#EDF4F4" d="M66.049,15.841l4.919-6.193c-0.068,0.017-0.136,0.034-0.202,0.051L66.01,15.69
			C66.023,15.741,66.034,15.791,66.049,15.841z"/>
		<path fill="#EDF4F4" d="M66.089,15.969l5.059-6.367c-0.062,0.015-0.119,0.03-0.18,0.045l-4.919,6.193
			C66.062,15.884,66.076,15.926,66.089,15.969z"/>
		<path fill="#ECF1F1" d="M66.128,16.092l5.196-6.535c-0.063,0.014-0.115,0.03-0.177,0.045l-5.059,6.367
			C66.102,16.011,66.115,16.051,66.128,16.092z"/>
		<path fill="#ECF1F1" d="M66.171,16.228l5.335-6.712c-0.063,0.013-0.12,0.028-0.182,0.042l-5.196,6.535
			C66.142,16.138,66.156,16.183,66.171,16.228z"/>
		<path fill="#E7F0EF" d="M66.212,16.359l5.464-6.875c-0.054,0.011-0.117,0.02-0.17,0.031l-5.335,6.712
			C66.185,16.271,66.198,16.316,66.212,16.359z"/>
		<path fill="#E7F0EF" d="M66.252,16.484l5.588-7.03c-0.053,0.011-0.112,0.019-0.164,0.03l-5.464,6.875
			C66.226,16.401,66.238,16.443,66.252,16.484z"/>
		<path fill="#E7F0EF" d="M66.297,16.614l4.818-6.071c0.015-0.053,0.02-0.116,0.041-0.16c0,0,0.141-0.357,0.627-0.682l0.22-0.276
			c-0.054,0.01-0.11,0.019-0.163,0.029l-5.588,7.03C66.267,16.528,66.281,16.57,66.297,16.614z"/>
		<path fill="#E3EDED" d="M66.344,16.745l4.724-5.938c0.006-0.1,0.026-0.183,0.048-0.264l-4.818,6.071
			C66.312,16.659,66.328,16.701,66.344,16.745z"/>
		<path fill="#E3EDED" d="M72.082,9.532l0.113-0.142c-0.064,0.012-0.13,0.023-0.192,0.035l-0.22,0.276
			C71.871,9.643,71.97,9.586,72.082,9.532z"/>
		<path fill="#E1EAEA" d="M72.277,9.45l0.068-0.087c-0.051,0.009-0.101,0.019-0.15,0.027l-0.113,0.142
			C72.143,9.503,72.209,9.477,72.277,9.45z"/>
		<path fill="#E1EAEA" d="M66.386,16.864l4.685-5.896c-0.001-0.054-0.006-0.112-0.003-0.162l-4.724,5.938
			C66.357,16.785,66.371,16.825,66.386,16.864z"/>
		<path fill="#E1EAEA" d="M72.497,9.373l0.034-0.043c-0.064,0.011-0.122,0.023-0.186,0.034L72.277,9.45
			C72.347,9.422,72.419,9.396,72.497,9.373z"/>
		<path fill="#E1EAEA" d="M66.431,16.989l4.643-5.829c-0.007-0.07-0.002-0.127-0.003-0.191l-4.685,5.896
			C66.4,16.906,66.415,16.948,66.431,16.989z"/>
		<path fill="#E1EAEA" d="M66.48,17.129l4.612-5.818c-0.007-0.05-0.016-0.103-0.02-0.15l-4.643,5.829
			C66.447,17.035,66.463,17.084,66.48,17.129z"/>
		<path fill="#E1EAEA" d="M72.665,9.328l0.021-0.027c-0.054,0.008-0.101,0.019-0.154,0.028l-0.034,0.043
			C72.55,9.356,72.608,9.343,72.665,9.328z"/>
		<path fill="#DFE8E8" d="M72.861,9.276l0.003-0.004h-0.021c-0.057,0.008-0.103,0.02-0.158,0.029l-0.021,0.027
			C72.73,9.311,72.789,9.291,72.861,9.276z"/>
		<path fill="#DFE8E8" d="M66.526,17.25l4.594-5.783c-0.009-0.052-0.021-0.107-0.027-0.156l-4.612,5.818
			C66.496,17.171,66.511,17.208,66.526,17.25z"/>
		<polygon fill="#DFE8E8" points="72.875,9.272 72.864,9.272 72.861,9.276 		"/>
		<path fill="#DFE8E8" d="M66.571,17.365l4.574-5.757c-0.01-0.049-0.017-0.094-0.025-0.141l-4.594,5.783
			C66.542,17.29,66.557,17.326,66.571,17.365z"/>
		<path fill="#DBE8E7" d="M66.622,17.496l4.551-5.729c-0.013-0.057-0.017-0.104-0.027-0.158l-4.574,5.757
			C66.588,17.409,66.605,17.453,66.622,17.496z"/>
		<path fill="#DBE8E7" d="M66.671,17.621l4.541-5.718c-0.011-0.044-0.028-0.094-0.039-0.137l-4.551,5.729
			C66.639,17.537,66.655,17.581,66.671,17.621z"/>
		<path fill="#D9E4E3" d="M66.715,17.734l4.534-5.701c-0.012-0.043-0.026-0.088-0.037-0.13l-4.541,5.718
			C66.686,17.657,66.701,17.698,66.715,17.734z"/>
		<path fill="#D9E4E3" d="M66.766,17.856l4.521-5.688c-0.013-0.046-0.025-0.09-0.038-0.135l-4.534,5.701
			C66.733,17.778,66.748,17.813,66.766,17.856z"/>
		<path fill="#D9E4E3" d="M66.818,17.98l4.51-5.671c-0.016-0.049-0.026-0.093-0.041-0.141l-4.521,5.688
			C66.784,17.899,66.801,17.939,66.818,17.98z"/>
		<path fill="#D8E3E0" d="M66.864,18.091l4.499-5.659c-0.015-0.043-0.022-0.081-0.035-0.123l-4.51,5.671
			C66.833,18.018,66.849,18.056,66.864,18.091z"/>
		<path fill="#D6E1DE" d="M66.918,18.22l4.496-5.65c-0.016-0.044-0.036-0.094-0.051-0.138l-4.499,5.659
			C66.882,18.133,66.901,18.181,66.918,18.22z"/>
		<path fill="#D6E1DE" d="M66.966,18.33l4.489-5.646c-0.013-0.038-0.028-0.077-0.041-0.114l-4.496,5.65
			C66.936,18.262,66.949,18.292,66.966,18.33z"/>
		<path fill="#D6E1DE" d="M67.019,18.452l4.483-5.64c-0.016-0.042-0.031-0.085-0.047-0.127l-4.489,5.646
			C66.984,18.374,67.001,18.412,67.019,18.452z"/>
		<path fill="#D3E0DD" d="M67.075,18.579l4.476-5.635c-0.017-0.045-0.032-0.088-0.049-0.133l-4.483,5.64
			C67.037,18.494,67.058,18.542,67.075,18.579z"/>
		<path fill="#D3E0DD" d="M67.095,18.625c0.01,0.021,0.021,0.043,0.032,0.065l4.47-5.622c-0.017-0.042-0.029-0.082-0.046-0.124
			l-4.476,5.635C67.081,18.593,67.089,18.612,67.095,18.625z"/>
		<path fill="#D1DEDC" d="M67.18,18.797l4.462-5.609c-0.017-0.041-0.029-0.079-0.045-0.12l-4.47,5.622
			C67.144,18.725,67.162,18.761,67.18,18.797z"/>
		<path fill="#D1DEDC" d="M67.238,18.917l4.458-5.604c-0.018-0.041-0.038-0.085-0.055-0.126l-4.462,5.609
			C67.199,18.837,67.219,18.877,67.238,18.917z"/>
		<path fill="#CFDDDA" d="M67.291,19.024l4.452-5.602c-0.016-0.036-0.032-0.074-0.047-0.109l-4.458,5.604
			C67.256,18.953,67.273,18.989,67.291,19.024z"/>
		<path fill="#CFDDDA" d="M67.352,19.147l4.445-5.6c-0.018-0.042-0.037-0.083-0.054-0.125l-4.452,5.602
			C67.312,19.065,67.331,19.106,67.352,19.147z"/>
		<path fill="#CFDDDA" d="M67.402,19.25l4.445-5.585c-0.018-0.04-0.034-0.079-0.051-0.118l-4.445,5.6
			C67.368,19.181,67.385,19.215,67.402,19.25z"/>
		<path fill="#CDDAD7" d="M67.463,19.372l4.437-5.588c-0.019-0.041-0.034-0.08-0.052-0.12l-4.445,5.585
			C67.423,19.291,67.442,19.331,67.463,19.372z"/>
		<path fill="#C9D9D5" d="M67.517,19.473l4.433-5.573c-0.018-0.04-0.032-0.076-0.05-0.115l-4.437,5.588
			C67.48,19.406,67.499,19.438,67.517,19.473z"/>
		<path fill="#C9D9D5" d="M67.578,19.588l4.427-5.565c-0.019-0.042-0.036-0.082-0.056-0.124l-4.433,5.573
			C67.537,19.511,67.558,19.549,67.578,19.588z"/>
		<path fill="#C9D9D5" d="M67.635,19.695l4.423-5.566c-0.017-0.035-0.036-0.072-0.053-0.106l-4.427,5.565
			C67.597,19.624,67.615,19.66,67.635,19.695z"/>
		<path fill="#C6D6D2" d="M67.694,19.808l4.421-5.56c-0.019-0.039-0.04-0.08-0.058-0.119l-4.423,5.566
			C67.654,19.733,67.674,19.771,67.694,19.808z"/>
		<path fill="#C6D6D2" d="M67.76,19.932l4.415-5.561c-0.02-0.041-0.04-0.082-0.06-0.123l-4.421,5.56
			C67.716,19.849,67.737,19.891,67.76,19.932z"/>
		<path fill="#C4D4D1" d="M67.815,20.036l4.413-5.555c-0.018-0.037-0.035-0.073-0.054-0.11l-4.415,5.561
			C67.778,19.966,67.796,20.001,67.815,20.036z"/>
		<path fill="#C4D4D1" d="M67.869,20.132l4.41-5.549c-0.018-0.034-0.033-0.068-0.051-0.102l-4.413,5.555
			C67.833,20.068,67.851,20.099,67.869,20.132z"/>
		<path fill="#C3D3CF" d="M67.937,20.253l4.404-5.543c-0.021-0.043-0.041-0.084-0.062-0.127l-4.41,5.549
			C67.892,20.173,67.914,20.212,67.937,20.253z"/>
		<path fill="#C3D3CF" d="M67.993,20.354l4.399-5.539c-0.019-0.036-0.033-0.07-0.052-0.105l-4.404,5.543
			C67.956,20.287,67.975,20.32,67.993,20.354z"/>
		<path fill="#BDD0CC" d="M68.054,20.46l4.397-5.533c-0.02-0.038-0.04-0.075-0.059-0.112l-4.399,5.539
			C68.014,20.389,68.033,20.425,68.054,20.46z"/>
		<path fill="#BDD0CC" d="M68.111,20.562l4.397-5.528c-0.019-0.035-0.04-0.072-0.058-0.107l-4.397,5.533
			C68.072,20.494,68.092,20.528,68.111,20.562z"/>
		<path fill="#BDD0CC" d="M68.173,20.673l4.396-5.528c-0.02-0.036-0.041-0.074-0.06-0.11l-4.397,5.528
			C68.132,20.598,68.152,20.637,68.173,20.673z"/>
		<path fill="#BCCDC7" d="M68.232,20.775l4.392-5.527c-0.019-0.034-0.038-0.069-0.056-0.103l-4.396,5.528
			C68.193,20.708,68.213,20.74,68.232,20.775z"/>
		<path fill="#BCCDC7" d="M68.3,20.889l4.385-5.528c-0.021-0.038-0.04-0.076-0.061-0.113l-4.392,5.527
			C68.256,20.814,68.277,20.85,68.3,20.889z"/>
		<path fill="#BBCCC6" d="M68.355,20.983l4.387-5.516c-0.02-0.036-0.038-0.07-0.058-0.106L68.3,20.889
			C68.318,20.921,68.337,20.951,68.355,20.983z"/>
		<path fill="#BBCCC6" d="M68.418,21.088l4.382-5.514c-0.02-0.037-0.038-0.072-0.058-0.108l-4.387,5.516
			C68.376,21.018,68.397,21.054,68.418,21.088z"/>
		<path fill="#B7CBC4" d="M68.479,21.191l4.379-5.51c-0.02-0.036-0.037-0.071-0.058-0.106l-4.382,5.514
			C68.438,21.123,68.459,21.158,68.479,21.191z"/>
		<path fill="#B7CBC4" d="M68.543,21.3l4.376-5.508c-0.004-0.006-0.008-0.013-0.012-0.02c-0.018-0.031-0.032-0.061-0.05-0.092
			l-4.379,5.51C68.5,21.227,68.522,21.266,68.543,21.3z"/>
		<path fill="#B5C9C2" d="M68.608,21.408l4.377-5.504c-0.021-0.037-0.046-0.075-0.066-0.112L68.543,21.3
			C68.565,21.338,68.587,21.371,68.608,21.408z"/>
		<path fill="#B5C9C2" d="M68.671,21.509l4.375-5.502c-0.02-0.034-0.041-0.068-0.061-0.103l-4.377,5.504
			C68.63,21.443,68.65,21.475,68.671,21.509z"/>
		<path fill="#B3C7C0" d="M68.733,21.61l4.373-5.5c-0.02-0.034-0.041-0.068-0.061-0.103l-4.375,5.502
			C68.692,21.543,68.713,21.576,68.733,21.61z"/>
		<path fill="#B3C7C0" d="M68.802,21.721l4.37-5.501c-0.021-0.037-0.044-0.073-0.065-0.11l-4.373,5.5
			C68.756,21.647,68.779,21.685,68.802,21.721z"/>
		<path fill="#B3C7C0" d="M68.857,21.812l4.371-5.497c-0.019-0.032-0.037-0.064-0.057-0.096l-4.37,5.501
			C68.819,21.75,68.84,21.783,68.857,21.812z"/>
		<path fill="#B0C5BE" d="M68.932,21.93l4.365-5.501c-0.023-0.038-0.045-0.076-0.068-0.114l-4.371,5.497
			C68.883,21.852,68.907,21.891,68.932,21.93z"/>
		<path fill="#ACC3BB" d="M68.992,22.024l4.366-5.492c-0.021-0.035-0.041-0.069-0.062-0.104l-4.365,5.501
			C68.953,21.964,68.972,21.992,68.992,22.024z"/>
		<path fill="#ACC3BB" d="M69.059,22.129l4.363-5.489c-0.021-0.036-0.042-0.072-0.063-0.108l-4.366,5.492
			C69.015,22.061,69.037,22.095,69.059,22.129z"/>
		<path fill="#ACC3BB" d="M69.12,22.225l4.362-5.483c-0.021-0.034-0.039-0.067-0.061-0.101l-4.363,5.489
			C69.079,22.161,69.101,22.194,69.12,22.225z"/>
		<path fill="#AAC1B9" d="M69.188,22.332l4.359-5.485c-0.022-0.035-0.044-0.07-0.065-0.105l-4.362,5.483
			C69.142,22.259,69.167,22.299,69.188,22.332z"/>
		<path fill="#AAC1B9" d="M69.253,22.43l4.356-5.488c-0.02-0.032-0.042-0.063-0.062-0.095l-4.359,5.485
			C69.212,22.368,69.23,22.395,69.253,22.43z"/>
		<path fill="#A8BFB7" d="M69.321,22.532l4.356-5.484c-0.022-0.035-0.047-0.07-0.068-0.105l-4.356,5.488
			C69.277,22.466,69.299,22.498,69.321,22.532z"/>
		<path fill="#A8BFB7" d="M69.391,22.638l4.354-5.486c-0.021-0.035-0.045-0.069-0.067-0.104l-4.356,5.484
			C69.344,22.567,69.369,22.605,69.391,22.638z"/>
		<path fill="#A7BDB5" d="M69.447,22.722l4.359-5.477c-0.021-0.031-0.041-0.063-0.062-0.094l-4.354,5.486
			C69.409,22.665,69.431,22.697,69.447,22.722z"/>
		<path fill="#A7BDB5" d="M69.521,22.83l4.354-5.478c-0.023-0.036-0.047-0.071-0.069-0.106l-4.359,5.477
			C69.477,22.766,69.497,22.793,69.521,22.83z"/>
		<path fill="#A7BDB5" d="M69.589,22.927l4.352-5.476c-0.021-0.033-0.043-0.066-0.064-0.099l-4.354,5.478
			C69.545,22.862,69.57,22.9,69.589,22.927z"/>
		<path fill="#A2BBB4" d="M69.612,22.96c0.012,0.017,0.029,0.04,0.041,0.057l4.349-5.471c-0.021-0.032-0.041-0.063-0.062-0.095
			l-4.352,5.476C69.596,22.936,69.606,22.952,69.612,22.96z"/>
		<path fill="#A1BAB3" d="M69.732,23.126l4.343-5.469c-0.025-0.037-0.048-0.074-0.073-0.111l-4.349,5.471
			C69.677,23.05,69.708,23.092,69.732,23.126z"/>
		<path fill="#A1BAB3" d="M69.792,23.209l4.341-5.463c-0.021-0.03-0.038-0.059-0.058-0.088l-4.343,5.469
			C69.75,23.152,69.773,23.182,69.792,23.209z"/>
		<path fill="#A1BAB3" d="M69.867,23.313l4.338-5.456c-0.005-0.007-0.012-0.017-0.016-0.023c-0.02-0.029-0.037-0.059-0.057-0.088
			l-4.341,5.463C69.815,23.242,69.843,23.278,69.867,23.313z"/>
		<path fill="#9EB8B1" d="M69.938,23.411l4.335-5.454c-0.022-0.034-0.048-0.071-0.067-0.101l-4.338,5.456
			C69.89,23.345,69.914,23.378,69.938,23.411z"/>
		<path fill="#9EB8B1" d="M70.006,23.505l4.333-5.45c-0.024-0.037-0.044-0.065-0.066-0.098l-4.335,5.454
			C69.961,23.442,69.981,23.473,70.006,23.505z"/>
		<path fill="#9EB8B1" d="M70.071,23.596l4.331-5.449c-0.021-0.031-0.044-0.063-0.063-0.092l-4.333,5.45
			C70.028,23.536,70.048,23.564,70.071,23.596z"/>
		<path fill="#9DB6AD" d="M70.146,23.698l4.327-5.449c-0.023-0.035-0.048-0.07-0.07-0.102l-4.331,5.449
			C70.098,23.632,70.118,23.662,70.146,23.698z"/>
		<path fill="#9AB4AA" d="M70.214,23.794l4.327-5.447c-0.024-0.035-0.045-0.064-0.068-0.098l-4.327,5.449
			C70.17,23.732,70.188,23.759,70.214,23.794z"/>
		<path fill="#9AB4AA" d="M70.29,23.892l4.321-5.445c-0.023-0.033-0.048-0.068-0.07-0.1l-4.327,5.447
			C70.238,23.826,70.267,23.86,70.29,23.892z"/>
		<path fill="#9AB4AA" d="M70.362,23.984l4.321-5.436c-0.024-0.034-0.049-0.068-0.072-0.101l-4.321,5.445
			C70.313,23.921,70.34,23.954,70.362,23.984z"/>
		<path fill="#98B3A8" d="M70.432,24.072l4.317-5.432c-0.023-0.032-0.044-0.061-0.065-0.092l-4.321,5.436
			C70.385,24.013,70.409,24.043,70.432,24.072z"/>
		<path fill="#98B3A8" d="M70.505,24.165l4.315-5.425c-0.025-0.035-0.048-0.066-0.071-0.1l-4.317,5.432
			C70.455,24.103,70.48,24.134,70.505,24.165z"/>
		<path fill="#96B1A6" d="M70.578,24.258l4.31-5.425c-0.022-0.03-0.046-0.063-0.067-0.092l-4.315,5.425
			C70.528,24.196,70.554,24.227,70.578,24.258z"/>
		<path fill="#96B1A6" d="M70.648,24.349l4.306-5.424c-0.022-0.031-0.045-0.062-0.066-0.092l-4.31,5.425
			C70.602,24.288,70.625,24.318,70.648,24.349z"/>
		<path fill="#94AEA4" d="M70.716,24.435l4.307-5.417c-0.023-0.032-0.045-0.062-0.068-0.093l-4.306,5.424
			C70.672,24.377,70.693,24.405,70.716,24.435z"/>
		<path fill="#94AEA4" d="M70.782,24.519l4.306-5.411c-0.023-0.031-0.043-0.059-0.065-0.09l-4.307,5.417
			C70.738,24.463,70.759,24.49,70.782,24.519z"/>
		<path fill="#8FACA1" d="M70.859,24.617l4.304-5.409c-0.024-0.033-0.052-0.069-0.075-0.101l-4.306,5.411
			C70.809,24.552,70.832,24.583,70.859,24.617z"/>
		<path fill="#8FACA1" d="M70.932,24.708l4.3-5.409c-0.022-0.03-0.046-0.061-0.068-0.091l-4.304,5.409
			C70.885,24.648,70.906,24.677,70.932,24.708z"/>
		<path fill="#8CA99F" d="M71.01,24.804l4.297-5.404c-0.025-0.034-0.05-0.067-0.075-0.101l-4.3,5.409
			C70.958,24.741,70.982,24.771,71.01,24.804z"/>
		<path fill="#8CA99F" d="M71.083,24.89l4.292-5.399c-0.023-0.031-0.045-0.06-0.068-0.09l-4.297,5.404
			C71.033,24.833,71.06,24.861,71.083,24.89z"/>
		<path fill="#8CA99F" d="M71.165,24.985l4.285-5.395c-0.025-0.033-0.051-0.067-0.075-0.1l-4.292,5.399
			C71.109,24.921,71.138,24.953,71.165,24.985z"/>
		<path fill="#8AA89D" d="M71.239,25.071l4.279-5.393c-0.022-0.029-0.046-0.059-0.068-0.088l-4.285,5.395
			C71.188,25.014,71.215,25.042,71.239,25.071z"/>
		<path fill="#8AA89D" d="M71.313,25.158l4.278-5.384c-0.024-0.032-0.049-0.064-0.073-0.096l-4.279,5.393
			C71.264,25.1,71.289,25.129,71.313,25.158z"/>
		<path fill="#89A79C" d="M71.389,25.245l4.273-5.38c-0.023-0.031-0.046-0.061-0.07-0.091l-4.278,5.384
			C71.338,25.187,71.363,25.216,71.389,25.245z"/>
		<path fill="#89A79C" d="M71.465,25.334l4.271-5.373c-0.025-0.032-0.049-0.063-0.074-0.096l-4.273,5.38
			C71.414,25.275,71.439,25.304,71.465,25.334z"/>
		<path fill="#85A499" d="M71.545,25.427l4.266-5.374c-0.024-0.031-0.05-0.062-0.074-0.092l-4.271,5.373
			C71.492,25.365,71.518,25.396,71.545,25.427z"/>
		<path fill="#85A499" d="M71.617,25.512l4.264-5.369c-0.023-0.03-0.048-0.06-0.07-0.089l-4.266,5.374
			C71.569,25.456,71.593,25.483,71.617,25.512z"/>
		<path fill="#83A397" d="M71.69,25.597l4.263-5.365c-0.024-0.03-0.048-0.06-0.072-0.09l-4.264,5.369
			C71.643,25.54,71.666,25.569,71.69,25.597z"/>
		<path fill="#83A397" d="M71.767,25.685l4.262-5.358c-0.025-0.032-0.05-0.063-0.075-0.095l-4.263,5.365
			C71.717,25.626,71.74,25.656,71.767,25.685z"/>
		<path fill="#81A195" d="M71.848,25.777l4.256-5.357c-0.025-0.031-0.05-0.062-0.075-0.093l-4.262,5.358
			C71.794,25.716,71.819,25.747,71.848,25.777z"/>
		<path fill="#81A195" d="M84.247,10.254c0.009,0.004,0.034,0.022,0.048,0.03l0.003-0.004
			C84.269,10.265,84.247,10.254,84.247,10.254z"/>
		<path fill="#81A195" d="M71.919,25.852l4.253-5.35c-0.022-0.028-0.046-0.055-0.068-0.083l-4.256,5.357
			C71.871,25.803,71.896,25.826,71.919,25.852z"/>
		<path fill="#7E9F91" d="M72.002,25.938l4.247-5.342c-0.025-0.031-0.052-0.062-0.077-0.093l-4.253,5.35
			C71.946,25.881,71.975,25.908,72.002,25.938z"/>
		<path fill="#7E9F91" d="M84.298,10.28l-0.003,0.004c0.029,0.017,0.058,0.033,0.104,0.065l0.008-0.011
			C84.363,10.313,84.326,10.293,84.298,10.28z"/>
		<path fill="#7E9F91" d="M84.406,10.338l-0.008,0.011c0.025,0.018,0.056,0.046,0.085,0.069l0.019-0.024
			C84.468,10.373,84.438,10.355,84.406,10.338z"/>
		<path fill="#7E9F91" d="M72.084,26.023l4.241-5.337c-0.025-0.03-0.051-0.06-0.076-0.091l-4.247,5.342
			C72.029,25.967,72.057,25.994,72.084,26.023z"/>
		<path fill="#7E9F91" d="M84.502,10.395l-0.019,0.024c0.026,0.021,0.054,0.045,0.083,0.07l0.026-0.034
			C84.563,10.434,84.532,10.413,84.502,10.395z"/>
		<path fill="#7E9F91" d="M72.164,26.106l4.234-5.332c-0.025-0.029-0.049-0.059-0.073-0.088l-4.241,5.337
			C72.111,26.052,72.138,26.078,72.164,26.106z"/>
		<path fill="#7C9D8F" d="M72.251,26.196l4.229-5.324c-0.028-0.032-0.055-0.064-0.082-0.097l-4.234,5.332
			C72.193,26.137,72.222,26.166,72.251,26.196z"/>
		<path fill="#7C9D8F" d="M84.626,10.477c-0.011-0.008-0.022-0.014-0.033-0.022l-0.026,0.034c0.033,0.029,0.061,0.047,0.097,0.082
			l0.03-0.039C84.671,10.514,84.649,10.494,84.626,10.477z"/>
		<path fill="#7C9D8F" d="M72.319,26.268l4.228-5.319c-0.022-0.026-0.045-0.051-0.066-0.077l-4.229,5.324
			C72.273,26.221,72.296,26.243,72.319,26.268z"/>
		<path fill="#7C9D8F" d="M84.693,10.532l-0.03,0.039c0.022,0.022,0.046,0.057,0.069,0.082l0.043-0.055
			C84.749,10.575,84.722,10.553,84.693,10.532z"/>
		<path fill="#7A9B8D" d="M84.775,10.598l-0.043,0.055c0.027,0.029,0.054,0.064,0.081,0.097l0.058-0.073
			C84.842,10.648,84.808,10.624,84.775,10.598z"/>
		<path fill="#7A9B8D" d="M72.402,26.354l4.225-5.313c-0.026-0.031-0.054-0.061-0.08-0.092l-4.228,5.319
			C72.347,26.296,72.374,26.325,72.402,26.354z"/>
		<path fill="#7A9B8D" d="M84.871,10.676l-0.058,0.073c0.023,0.028,0.046,0.052,0.069,0.083l0.063-0.079
			C84.92,10.727,84.9,10.701,84.871,10.676z"/>
		<path fill="#7A9B8D" d="M72.481,26.436l4.22-5.31c-0.024-0.028-0.049-0.057-0.074-0.085l-4.225,5.313
			C72.429,26.381,72.455,26.409,72.481,26.436z"/>
		<path fill="#7A9B8D" d="M72.564,26.521l4.216-5.305c-0.026-0.029-0.053-0.061-0.079-0.091l-4.22,5.31
			C72.51,26.464,72.536,26.494,72.564,26.521z"/>
		<path fill="#7A9B8D" d="M84.946,10.753l-0.063,0.079c0.025,0.033,0.051,0.059,0.076,0.095l0.07-0.088
			C85.004,10.811,84.975,10.782,84.946,10.753z"/>
		<path fill="#78998B" d="M85.063,10.874c-0.009-0.012-0.023-0.023-0.033-0.035l-0.07,0.088c0.021,0.033,0.038,0.077,0.06,0.112
			l0.087-0.109C85.09,10.913,85.078,10.89,85.063,10.874z"/>
		<path fill="#78998B" d="M72.643,26.604l4.215-5.301c-0.025-0.028-0.051-0.057-0.077-0.086l-4.216,5.305
			C72.591,26.549,72.616,26.577,72.643,26.604z"/>
		<path fill="#78998B" d="M85.105,10.93l-0.087,0.109c0.021,0.034,0.038,0.072,0.058,0.108l0.1-0.125
			C85.151,10.993,85.13,10.958,85.105,10.93z"/>
		<path fill="#78998B" d="M72.72,26.684l4.214-5.298c-0.025-0.028-0.051-0.055-0.076-0.083l-4.215,5.301
			C72.669,26.63,72.694,26.658,72.72,26.684z"/>
		<path fill="#73978A" d="M85.176,11.022l-0.1,0.125c0.021,0.039,0.042,0.075,0.062,0.116l0.113-0.143
			C85.226,11.087,85.201,11.054,85.176,11.022z"/>
		<path fill="#73978A" d="M72.749,26.714c0.019,0.018,0.041,0.038,0.06,0.056l4.209-5.293c-0.028-0.03-0.056-0.06-0.084-0.09
			l-4.214,5.298C72.729,26.693,72.739,26.704,72.749,26.714z"/>
		<path fill="#73978A" d="M72.894,26.848l4.201-5.288c-0.026-0.027-0.052-0.056-0.077-0.083l-4.209,5.293
			C72.835,26.794,72.866,26.822,72.894,26.848z"/>
		<path fill="#73978A" d="M85.251,11.121l-0.113,0.143c0.017,0.037,0.039,0.064,0.055,0.104l0.125-0.158
			C85.297,11.177,85.272,11.152,85.251,11.121z"/>
		<path fill="#73978A" d="M72.98,26.929l4.197-5.279c-0.027-0.029-0.056-0.061-0.083-0.09l-4.201,5.288
			C72.921,26.874,72.952,26.901,72.98,26.929z"/>
		<path fill="#73978A" d="M85.317,11.209l-0.125,0.158c0.002,0.005,0.005,0.008,0.007,0.013c0.01,0.028,0.025,0.072,0.043,0.124
			l0.148-0.187C85.367,11.279,85.342,11.246,85.317,11.209z"/>
		<path fill="#729587" d="M85.391,11.317l-0.148,0.187c0.013,0.037,0.024,0.08,0.038,0.129l0.165-0.208
			C85.426,11.391,85.41,11.351,85.391,11.317z"/>
		<path fill="#729587" d="M73.058,26.999l4.194-5.273c-0.024-0.026-0.05-0.05-0.074-0.076l-4.197,5.279
			C73.006,26.952,73.032,26.976,73.058,26.999z"/>
		<path fill="#729587" d="M85.445,11.425l-0.165,0.208c0.01,0.039,0.02,0.078,0.028,0.125l0.187-0.235
			C85.479,11.491,85.463,11.457,85.445,11.425z"/>
		<path fill="#729587" d="M73.14,27.075l4.189-5.272c-0.026-0.026-0.051-0.051-0.077-0.077l-4.194,5.273
			C73.084,27.024,73.112,27.05,73.14,27.075z"/>
		<path fill="#719486" d="M85.495,11.524l-0.187,0.235c0.01,0.051,0.019,0.109,0.025,0.171l0.225-0.282
			C85.538,11.605,85.517,11.565,85.495,11.524z"/>
		<path fill="#719486" d="M73.229,27.158l4.188-5.268c-0.029-0.029-0.058-0.059-0.087-0.088l-4.189,5.272
			C73.169,27.104,73.198,27.13,73.229,27.158z"/>
		<path fill="#719486" d="M73.314,27.238l4.183-5.267c-0.027-0.026-0.054-0.054-0.081-0.081l-4.188,5.268
			C73.258,27.185,73.285,27.211,73.314,27.238z"/>
		<path fill="#719486" d="M85.559,11.648l-0.225,0.282c0.006,0.047,0.009,0.102,0.012,0.156l0.266-0.334
			C85.595,11.715,85.575,11.685,85.559,11.648z"/>
		<path fill="#6F9284" d="M85.635,11.799c-0.007-0.017-0.017-0.03-0.023-0.047l-0.266,0.334c0.003,0.06,0.006,0.12,0.006,0.187
			l0.313-0.394C85.655,11.856,85.643,11.816,85.635,11.799z"/>
		<path fill="#6F9284" d="M73.396,27.313l4.183-5.261c-0.027-0.026-0.055-0.054-0.081-0.081l-4.183,5.267
			C73.343,27.264,73.367,27.287,73.396,27.313z"/>
		<path fill="#6F9284" d="M85.665,11.879l-0.313,0.394c0,0.055-0.003,0.115-0.007,0.176l0.362-0.456
			C85.691,11.952,85.678,11.912,85.665,11.879z"/>
		<path fill="#6F9284" d="M73.48,27.392l4.18-5.265c-0.027-0.026-0.054-0.049-0.082-0.075l-4.183,5.261
			C73.425,27.34,73.451,27.364,73.48,27.392z"/>
		<path fill="#6F9284" d="M85.707,11.993l-0.362,0.456c-0.003,0.066-0.009,0.135-0.017,0.208l0.424-0.533
			C85.735,12.068,85.723,12.038,85.707,11.993z"/>
		<path fill="#6F9284" d="M73.563,27.465l4.182-5.262c-0.028-0.025-0.056-0.05-0.084-0.076l-4.18,5.265
			C73.508,27.416,73.535,27.44,73.563,27.465z"/>
		<path fill="#6B9082" d="M85.752,12.123l-0.424,0.533c-0.007,0.067-0.015,0.136-0.025,0.209l0.482-0.607
			C85.773,12.216,85.764,12.161,85.752,12.123z"/>
		<path fill="#6B9082" d="M73.648,27.54l4.179-5.262c-0.027-0.024-0.056-0.05-0.083-0.076l-4.182,5.262
			C73.591,27.49,73.621,27.515,73.648,27.54z"/>
		<path fill="#6B9082" d="M73.729,27.609l4.18-5.257c-0.026-0.023-0.055-0.05-0.081-0.074l-4.179,5.262
			C73.675,27.563,73.702,27.586,73.729,27.609z"/>
		<path fill="#6B9082" d="M85.785,12.258l-0.482,0.607c-0.012,0.076-0.028,0.159-0.044,0.242l0.562-0.706
			C85.809,12.352,85.797,12.303,85.785,12.258z"/>
		<path fill="#698E80" d="M73.817,27.686l4.181-5.26c-0.03-0.025-0.059-0.047-0.09-0.074l-4.18,5.257
			C73.758,27.635,73.788,27.66,73.817,27.686z"/>
		<path fill="#698E80" d="M85.82,12.401l-0.562,0.706c-0.017,0.082-0.03,0.161-0.051,0.25l0.646-0.814
			C85.844,12.489,85.831,12.451,85.82,12.401z"/>
		<path fill="#698E80" d="M85.854,12.543l-0.646,0.814c-0.002,0.008-0.003,0.014-0.005,0.022c-0.017,0.072-0.042,0.154-0.063,0.231
			l0.736-0.928C85.868,12.635,85.863,12.587,85.854,12.543z"/>
		<path fill="#698E80" d="M73.91,27.767l4.18-5.269c-0.03-0.024-0.061-0.047-0.092-0.072l-4.181,5.26
			C73.848,27.713,73.879,27.739,73.91,27.767z"/>
		<path fill="#698E80" d="M73.991,27.837l4.187-5.269c-0.029-0.022-0.059-0.046-0.088-0.07l-4.18,5.269
			C73.938,27.79,73.964,27.813,73.991,27.837z"/>
		<path fill="#698E80" d="M85.876,12.683L85.14,13.61c-0.026,0.099-0.05,0.193-0.083,0.299l0.837-1.053
			C85.887,12.8,85.884,12.736,85.876,12.683z"/>
		<path fill="#678D7F" d="M74.08,27.913l4.19-5.272c-0.03-0.021-0.063-0.05-0.093-0.073l-4.187,5.269
			C74.021,27.862,74.05,27.888,74.08,27.913z"/>
		<path fill="#678D7F" d="M85.894,12.856l-0.837,1.053c-0.033,0.108-0.075,0.224-0.115,0.338l0.97-1.22
			C85.906,12.969,85.9,12.913,85.894,12.856z"/>
		<path fill="#678D7F" d="M74.164,27.986l4.2-5.284c-0.032-0.022-0.062-0.038-0.094-0.061l-4.19,5.272
			C74.108,27.938,74.136,27.962,74.164,27.986z"/>
		<path fill="#678D7F" d="M85.911,13.028l-0.97,1.22c-0.037,0.109-0.075,0.216-0.117,0.328l1.104-1.388
			C85.926,13.13,85.916,13.083,85.911,13.028z"/>
		<path fill="#658A7C" d="M74.252,28.063l4.207-5.3c-0.031-0.02-0.063-0.039-0.095-0.061l-4.2,5.284
			C74.193,28.011,74.222,28.037,74.252,28.063z"/>
		<path fill="#658A7C" d="M85.928,13.188l-1.104,1.388c-0.041,0.109-0.084,0.22-0.128,0.331l1.229-1.549
			C85.926,13.301,85.93,13.242,85.928,13.188z"/>
		<path fill="#658A7C" d="M85.926,13.358l-1.229,1.549c-0.057,0.141-0.114,0.28-0.174,0.422l1.39-1.748
			C85.916,13.507,85.926,13.428,85.926,13.358z"/>
		<path fill="#658A7C" d="M74.338,28.137l4.222-5.309c-0.033-0.019-0.067-0.043-0.101-0.065l-4.207,5.3
			C74.281,28.087,74.309,28.112,74.338,28.137z"/>
		<path fill="#60897A" d="M74.434,28.215l4.236-5.331c-0.037-0.019-0.073-0.035-0.11-0.057l-4.222,5.309
			C74.37,28.163,74.401,28.188,74.434,28.215z"/>
		<path fill="#60897A" d="M85.912,13.581l-1.39,1.748c-0.058,0.138-0.116,0.276-0.177,0.413l1.555-1.957
			C85.907,13.715,85.909,13.648,85.912,13.581z"/>
		<path fill="#60897A" d="M74.52,28.281l4.25-5.353c-0.033-0.014-0.066-0.027-0.1-0.044l-4.236,5.331
			C74.462,28.238,74.491,28.258,74.52,28.281z"/>
		<path fill="#60897A" d="M85.9,13.785l-1.555,1.957c-0.057,0.128-0.113,0.253-0.17,0.378l1.715-2.16
			C85.898,13.897,85.895,13.845,85.9,13.785z"/>
		<path fill="#60897A" d="M74.604,28.348l4.271-5.372c-0.033-0.011-0.07-0.032-0.104-0.047l-4.25,5.353
			C74.548,28.305,74.575,28.324,74.604,28.348z"/>
		<path fill="#60897A" d="M85.887,14.018c0.003-0.021,0.001-0.038,0.004-0.059l-1.715,2.16c-0.073,0.159-0.145,0.311-0.216,0.46
			l1.899-2.39C85.868,14.134,85.88,14.073,85.887,14.018z"/>
		<path fill="#5F8676" d="M85.859,14.189l-1.899,2.39c-0.08,0.168-0.157,0.325-0.23,0.474l2.095-2.635
			C85.836,14.342,85.85,14.264,85.859,14.189z"/>
		<path fill="#5F8676" d="M74.694,28.418l4.305-5.415c-0.042-0.009-0.081-0.012-0.125-0.027l-4.271,5.372
			C74.634,28.372,74.664,28.394,74.694,28.418z"/>
		<path fill="#5F8676" d="M85.824,14.418l-2.095,2.635c-0.094,0.187-0.179,0.355-0.256,0.5l2.315-2.915
			C85.803,14.564,85.813,14.492,85.824,14.418z"/>
		<path fill="#5F8676" d="M74.786,28.489l4.34-5.462c-0.04-0.002-0.084-0.014-0.127-0.023l-4.305,5.415
			C74.725,28.442,74.755,28.466,74.786,28.489z"/>
		<path fill="#5D8574" d="M85.789,14.639l-2.315,2.915c-0.02,0.038-0.043,0.084-0.062,0.119l-0.026,0.014
			c-0.02,0.041-0.126,0.239-0.289,0.53l2.65-3.335C85.763,14.799,85.775,14.72,85.789,14.639z"/>
		<path fill="#5D8574" d="M74.875,28.56l4.416-5.556c-0.045,0.01-0.093,0.029-0.136,0.028c-0.009,0-0.021-0.005-0.029-0.005
			l-4.34,5.462C74.815,28.513,74.846,28.536,74.875,28.56z"/>
		<path fill="#5D8574" d="M74.972,28.635l4.524-5.698c-0.071,0.034-0.139,0.053-0.205,0.067l-4.416,5.556
			C74.907,28.584,74.939,28.61,74.972,28.635z"/>
		<path fill="#5D8574" d="M85.747,14.882l-2.65,3.335c-0.106,0.189-0.239,0.419-0.391,0.676l2.991-3.769
			C85.714,15.044,85.732,14.962,85.747,14.882z"/>
		<path fill="#5D8574" d="M85.697,15.125l-2.991,3.769c-0.144,0.243-0.304,0.506-0.477,0.782l3.415-4.294
			C85.663,15.295,85.681,15.21,85.697,15.125z"/>
		<path fill="#5D8574" d="M75.054,28.698l4.706-5.917c-0.091,0.065-0.179,0.115-0.264,0.156l-4.524,5.698
			C74.999,28.655,75.026,28.678,75.054,28.698z"/>
		<path fill="#5B8272" d="M85.645,15.381l-3.415,4.294c-0.215,0.345-0.448,0.702-0.691,1.054l4.059-5.114
			C85.614,15.537,85.628,15.46,85.645,15.381z"/>
		<path fill="#5B8272" d="M75.152,28.775l5.115-6.444c-0.176,0.179-0.346,0.333-0.508,0.45l-4.706,5.917
			C75.086,28.723,75.12,28.751,75.152,28.775z"/>
		<path fill="#5B8272" d="M75.235,28.84l10.296-12.952c0.021-0.091,0.045-0.182,0.065-0.272l-4.059,5.114
			c-0.416,0.604-0.855,1.176-1.271,1.602l-5.115,6.444C75.18,28.796,75.208,28.82,75.235,28.84z"/>
		<path fill="#588172" d="M75.337,28.908L85.466,16.16c0.022-0.091,0.044-0.181,0.065-0.272L75.235,28.84
			C75.271,28.865,75.303,28.884,75.337,28.908z"/>
		<path fill="#588172" d="M75.427,28.967L85.4,16.428c0.023-0.089,0.043-0.179,0.065-0.268L75.337,28.908
			C75.368,28.93,75.396,28.945,75.427,28.967z"/>
		<path fill="#568070" d="M75.516,29.024L85.328,16.7c0.024-0.092,0.049-0.18,0.072-0.272l-9.974,12.539
			C75.457,28.987,75.485,29.004,75.516,29.024z"/>
		<path fill="#568070" d="M75.623,29.095l9.631-12.122c0.025-0.09,0.05-0.181,0.074-0.272l-9.813,12.324
			C75.552,29.049,75.587,29.07,75.623,29.095z"/>
		<path fill="#568070" d="M75.71,29.151l9.468-11.895c0.026-0.092,0.051-0.189,0.076-0.284l-9.631,12.122
			C75.652,29.114,75.681,29.133,75.71,29.151z"/>
		<path fill="#557E6E" d="M75.816,29.221l9.271-11.659c0.03-0.103,0.06-0.199,0.09-0.305L75.71,29.151
			C75.745,29.175,75.781,29.199,75.816,29.221z"/>
		<path fill="#557E6E" d="M75.91,29.282l9.099-11.447c0.026-0.089,0.053-0.181,0.079-0.273l-9.271,11.659
			C75.848,29.24,75.88,29.264,75.91,29.282z"/>
		<path fill="#527C6C" d="M76.013,29.349l8.91-11.229c0.028-0.093,0.057-0.188,0.086-0.285L75.91,29.282
			C75.943,29.303,75.979,29.33,76.013,29.349z"/>
		<path fill="#527C6C" d="M76.076,29.391c0.01,0.005,0.021,0.009,0.031,0.014l8.718-10.973c0.032-0.102,0.064-0.203,0.098-0.311
			l-8.91,11.229C76.033,29.361,76.056,29.379,76.076,29.391z"/>
		<path fill="#527C6C" d="M76.207,29.449l8.526-10.725c0.029-0.092,0.061-0.194,0.092-0.293l-8.718,10.973
			C76.14,29.421,76.174,29.435,76.207,29.449z"/>
		<path fill="#4E7A69" d="M76.313,29.498l8.31-10.441c0.035-0.106,0.07-0.212,0.11-0.333l-8.526,10.725
			C76.242,29.466,76.277,29.483,76.313,29.498z"/>
		<path fill="#4E7A69" d="M76.426,29.536l8.099-10.188c0.03-0.089,0.063-0.186,0.099-0.292l-8.31,10.441
			C76.352,29.513,76.389,29.523,76.426,29.536z"/>
		<path fill="#4C7867" d="M76.555,29.579l7.848-9.883c0.005-0.015,0.012-0.034,0.018-0.049c0.029-0.08,0.067-0.19,0.104-0.298
			l-8.099,10.188C76.469,29.551,76.512,29.567,76.555,29.579z"/>
		<path fill="#4C7867" d="M76.663,29.607l7.61-9.566c0.046-0.121,0.089-0.238,0.129-0.345l-7.848,9.883
			C76.592,29.59,76.627,29.598,76.663,29.607z"/>
		<path fill="#4C7867" d="M76.791,29.639l7.343-9.231c0.049-0.127,0.097-0.251,0.14-0.367l-7.61,9.566
			C76.706,29.618,76.749,29.63,76.791,29.639z"/>
		<path fill="#4A7666" d="M76.917,29.662l7.09-8.926c0.045-0.115,0.085-0.22,0.127-0.329l-7.343,9.231
			C76.835,29.648,76.876,29.655,76.917,29.662z"/>
		<path fill="#4A7666" d="M77.039,29.683l6.818-8.576c0.051-0.125,0.103-0.251,0.149-0.37l-7.09,8.926
			C76.959,29.67,77,29.678,77.039,29.683z"/>
		<path fill="#487563" d="M77.178,29.701l6.517-8.194c0.057-0.138,0.11-0.27,0.163-0.401l-6.818,8.576
			C77.087,29.689,77.136,29.697,77.178,29.701z"/>
		<path fill="#487563" d="M77.309,29.713l6.23-7.838c0.054-0.125,0.104-0.247,0.155-0.368l-6.517,8.194
			C77.228,29.707,77.27,29.71,77.309,29.713z"/>
		<path fill="#447261" d="M77.449,29.721l5.91-7.43c0.062-0.14,0.122-0.279,0.18-0.416l-6.23,7.838
			C77.372,29.718,77.418,29.72,77.449,29.721z"/>
		<path fill="#447261" d="M77.489,29.722c0.023-0.001,0.062-0.004,0.11-0.007l5.582-7.024c0.062-0.135,0.119-0.267,0.178-0.4
			l-5.91,7.43C77.467,29.722,77.483,29.722,77.489,29.722z"/>
		<path fill="#447261" d="M77.767,29.695l5.204-6.553c0.071-0.151,0.144-0.302,0.211-0.452L77.6,29.715
			C77.646,29.711,77.702,29.705,77.767,29.695z"/>
		<path fill="#42715E" d="M77.927,29.669l4.831-6.081c0.073-0.149,0.144-0.297,0.213-0.446l-5.204,6.553
			C77.815,29.688,77.869,29.68,77.927,29.669z"/>
		<path fill="#42715E" d="M78.106,29.625l4.405-5.546c0.084-0.163,0.166-0.327,0.246-0.491l-4.831,6.081
			C77.982,29.658,78.044,29.642,78.106,29.625z"/>
		<path fill="#42705D" d="M78.315,29.561l3.875-4.88c0.109-0.199,0.217-0.398,0.321-0.601l-4.405,5.546
			C78.173,29.607,78.242,29.586,78.315,29.561z"/>
		<path fill="#42705D" d="M78.493,29.495l3.388-4.257c0.063-0.112,0.127-0.225,0.186-0.329c0.042-0.075,0.082-0.153,0.124-0.229
			l-3.875,4.88C78.374,29.54,78.432,29.521,78.493,29.495z"/>
		<path fill="#42705D" d="M78.755,29.369l2.718-3.417c0.145-0.25,0.279-0.487,0.408-0.714l-3.388,4.257
			C78.578,29.459,78.666,29.418,78.755,29.369z"/>
		<path fill="#3D6F5B" d="M79.057,29.18l1.979-2.491c0.151-0.247,0.299-0.495,0.438-0.736l-2.718,3.417
			C78.854,29.314,78.955,29.252,79.057,29.18z"/>
		<path fill="#3D6F5B" d="M79.392,28.905c0.047-0.046,0.094-0.102,0.141-0.151l0.901-1.133c0.207-0.301,0.407-0.615,0.602-0.933
			l-1.979,2.491C79.168,29.1,79.28,29.011,79.392,28.905z"/>
		<path fill="#3B6C5A" d="M80.434,27.621l-0.901,1.133C79.838,28.434,80.141,28.046,80.434,27.621z"/>
	</g>
</g>
<g>
</g>
<g>
</g>
<g>
</g>
<g>
</g>
<g>
</g>
<g>
</g>
</svg>
